<?xml version="1.0" standalone="no"?>
<!DOCTYPE svg PUBLIC "-//W3C//DTD SVG 20010904//EN"
 "http://www.w3.org/TR/2001/REC-SVG-20010904/DTD/svg10.dtd">
<svg version="1.0" xmlns="http://www.w3.org/2000/svg"
 width="1920.000000pt" height="1080.000000pt" viewBox="0 0 7680.000000 4320.000000"
 preserveAspectRatio="xMidYMid meet">

<g transform="translate(0.000000,4320.000000) scale(0.100000,-0.100000)"
fill="#000000" stroke="none">
<path d="M0 21600 l0 -21600 38400 0 38400 0 0 21600 0 21600 -38400 0 -38400
0 0 -21600z m39160 19560 c0 -7 -4540 -10 -13600 -10 -9060 0 -13600 3 -13600
10 0 7 4540 10 13600 10 9060 0 13600 -3 13600 -10z m-23065 -3729 c2 -2 80
67 172 152 92 86 169 154 171 152 3 -2 -84 -256 -152 -444 l-16 -44 267 7 268
8 -168 -115 c-92 -63 -189 -130 -217 -148 -27 -19 -50 -36 -50 -39 0 -3 98
-72 218 -154 l217 -148 -267 6 -268 7 39 -108 c21 -59 62 -171 89 -248 28 -77
50 -140 49 -141 -1 -1 -80 69 -174 157 -153 142 -173 157 -177 137 -3 -13 -35
-284 -71 -603 -36 -319 -68 -598 -72 -620 -5 -28 -28 146 -82 603 l-76 644
-170 -156 c-93 -85 -171 -153 -173 -151 -4 4 153 459 165 478 5 8 -342 1 -467
-9 -82 -6 -88 -13 160 156 107 73 199 136 203 140 5 4 -88 74 -207 155 -119
81 -216 149 -216 151 0 1 117 0 260 -3 172 -4 260 -3 260 4 0 5 -27 86 -61
179 -107 296 -111 308 -92 293 10 -8 87 -78 172 -157 144 -132 156 -141 163
-120 3 13 36 248 73 523 36 275 69 507 72 515 3 8 39 -226 80 -520 41 -294 77
-537 78 -539z m-1380 -611 l0 -1150 -250 0 -251 0 0 1150 0 1150 251 0 250 0
0 -1150z m5120 0 l0 -1150 -250 0 -251 0 0 1150 0 1150 251 0 250 0 0 -1150z
m-870 900 l0 -115 -305 -3 -305 -2 -24 -133 c-13 -72 -44 -204 -69 -291 -34
-121 -42 -161 -32 -164 27 -9 371 -244 505 -345 213 -160 426 -340 415 -350
-16 -15 -502 -338 -504 -336 -2 2 -38 69 -80 149 -120 225 -308 487 -427 595
l-42 38 -21 -26 c-12 -14 -41 -53 -65 -87 -64 -89 -193 -223 -286 -295 -151
-118 -404 -268 -623 -371 l-93 -43 -34 71 -34 71 77 53 c42 29 108 78 145 108
142 114 351 363 430 514 104 198 177 508 177 754 l0 88 -325 0 -325 0 0 120 0
120 923 -2 922 -3 0 -115z m-5213 -780 l1 -885 -764 0 c-712 0 -767 1 -811 18
-86 33 -79 -39 -81 913 l-2 844 828 -2 828 -3 1 -885z m28 -2670 c0 -464 -2
-530 -15 -530 -13 0 -15 66 -15 530 0 464 2 530 15 530 13 0 15 -66 15 -530z
m1480 360 l0 -170 105 0 c87 0 105 -3 105 -15 0 -12 -18 -15 -105 -15 l-105 0
0 -210 c0 -180 -2 -210 -15 -210 -13 0 -15 51 -15 395 0 344 2 395 15 395 13
0 15 -26 15 -170z m1640 -360 c0 -464 -2 -530 -15 -530 -13 0 -15 66 -15 530
0 464 2 530 15 530 13 0 15 -66 15 -530z m-1976 483 c15 -88 -37 -226 -120
-321 -58 -66 -167 -139 -280 -186 -79 -33 -104 -35 -92 -9 2 4 35 22 73 38
137 60 230 132 299 229 52 74 77 137 79 202 l2 49 -217 3 c-185 2 -218 5 -218
17 0 13 34 15 234 15 l234 0 6 -37z m-1494 -483 l0 -510 -270 0 -270 0 0 510
0 510 270 0 270 0 0 -510z m785 451 c-49 -84 -74 -144 -96 -236 -56 -234 -23
-479 91 -677 26 -45 34 -68 25 -68 -19 0 -80 101 -114 190 -41 105 -54 185
-54 330 0 145 13 225 54 330 34 89 95 190 114 190 10 0 3 -19 -20 -59z m1415
29 c35 -49 97 -190 114 -260 36 -149 30 -381 -15 -514 -37 -110 -117 -251
-133 -235 -3 3 15 46 39 95 83 170 115 346 95 525 -14 123 -39 207 -96 321
-24 48 -44 90 -44 93 0 15 21 1 40 -25z m950 15 c0 -12 -24 -15 -137 -17
l-138 -3 0 -280 c0 -319 8 -371 75 -473 36 -55 133 -153 195 -198 22 -16 27
-25 19 -33 -11 -12 -69 24 -132 83 -50 46 -122 150 -147 212 l-22 54 -43 -87
c-31 -64 -61 -104 -114 -158 -87 -89 -154 -135 -166 -115 -6 9 9 25 48 55 110
81 183 174 229 290 l27 70 1 290 0 290 -132 3 c-109 2 -133 5 -133 17 0 13 41
15 285 15 244 0 285 -2 285 -15z m-4280 -255 l0 -40 -40 0 -40 0 0 40 0 40 40
0 40 0 0 -40z m2220 -580 l0 -150 390 0 c383 0 390 0 390 -20 0 -20 -7 -20
-405 -20 l-405 0 0 170 c0 144 2 170 15 170 13 0 15 -23 15 -150z m-2220 80
l0 -40 -40 0 -40 0 0 40 0 40 40 0 40 0 0 -40z m11372 -3738 c117 -39 188 -83
273 -167 116 -114 175 -267 175 -449 0 -161 -45 -278 -149 -388 -77 -82 -133
-125 -226 -171 -123 -61 -173 -72 -335 -71 -133 0 -152 2 -225 28 -210 73
-371 238 -431 441 -44 150 -11 342 84 486 175 267 536 393 834 291z m1383 -17
c0 -17 -7 -20 -50 -22 -131 -7 -196 -16 -210 -30 -22 -21 -23 -1039 -1 -1069
12 -16 30 -20 133 -24 118 -5 118 -5 118 -30 l0 -25 -380 -3 c-319 -2 -384 0
-400 12 -38 28 -4 41 125 46 68 3 124 10 130 16 25 25 30 107 30 544 0 437 -5
519 -30 544 -6 6 -61 13 -128 16 -112 5 -117 6 -120 28 l-3 22 393 -2 c385 -3
393 -3 393 -23z m-3545 -625 l5 -545 55 -5 c30 -3 54 -9 53 -15 -2 -6 -70 -11
-173 -13 -144 -2 -170 0 -170 12 0 11 14 16 48 18 l47 3 0 505 0 505 -48 5
c-26 3 -49 9 -50 14 -1 5 30 15 69 22 39 6 84 19 100 27 62 35 59 65 64 -533z
m-8750 507 c101 -24 94 -10 91 -216 -3 -199 -2 -203 54 -160 23 19 33 21 73
13 48 -10 69 -31 59 -58 -5 -13 -22 -16 -97 -16 l-90 0 0 -73 c0 -79 -15 -180
-32 -211 -10 -19 -11 -19 -24 -1 -11 15 -14 82 -14 326 l0 307 -29 24 c-15 14
-42 30 -60 37 -36 15 -42 41 -8 41 12 0 47 -6 77 -13z m1147 -34 l37 -18 -3
-192 -3 -192 31 15 c17 8 33 19 36 25 8 12 67 12 100 -1 21 -8 26 -16 23 -38
l-3 -27 -92 -3 -93 -3 0 -109 c0 -112 -15 -246 -31 -271 -7 -11 -11 -11 -21
-1 -10 10 -14 96 -16 379 -2 258 -6 371 -14 381 -7 7 -33 25 -60 38 -26 13
-48 29 -48 36 0 16 112 4 157 -19z m758 -36 c66 1 142 2 168 3 53 2 79 -13 75
-44 -3 -20 -8 -21 -193 -21 -174 0 -193 2 -230 21 -22 12 -42 29 -43 39 -4 15
1 16 50 9 29 -5 107 -8 173 -7z m-2362 -10 c37 1 92 3 122 4 60 4 91 -14 79
-44 -5 -15 -23 -17 -133 -17 -135 1 -205 12 -233 37 -32 29 -21 36 40 27 31
-5 87 -8 125 -7z m1062 -48 c105 1 216 4 247 7 86 10 91 6 64 -58 -77 -188
-184 -311 -367 -425 -94 -58 -204 -113 -225 -113 -32 0 -5 27 106 101 183 123
310 251 374 376 14 29 26 55 26 58 0 10 -243 5 -304 -6 -54 -10 -66 -9 -96 6
-67 34 -95 74 -42 60 15 -4 113 -7 217 -6z m-738 -121 c8 -6 13 -21 11 -32 -3
-20 -7 -21 -153 -18 l-150 4 32 -33 32 -32 -26 -45 c-26 -44 -26 -45 -7 -59
36 -28 129 -70 168 -77 26 -5 54 -22 87 -53 49 -46 61 -76 35 -86 -13 -5 -185
87 -288 156 l-55 36 -61 -57 c-56 -52 -226 -166 -261 -174 -32 -7 -18 21 26
52 112 79 283 269 283 314 0 25 -12 46 -25 46 -7 0 -15 5 -17 11 -4 11 -49 6
-140 -16 -19 -5 -39 1 -72 20 -25 15 -46 30 -46 34 0 5 98 6 218 3 184 -4 222
-2 252 12 39 17 133 14 157 -6z m2468 2 c26 -10 37 -31 25 -50 -7 -11 -59 -13
-262 -12 -139 1 -293 5 -343 8 -69 5 -99 3 -127 -9 -35 -15 -39 -14 -97 13
-34 16 -61 33 -61 37 0 4 150 6 332 4 286 -3 338 -1 368 13 36 16 118 14 165
-4z m5934 -155 c174 -95 240 -329 145 -516 -33 -66 -123 -145 -186 -164 -257
-76 -487 142 -440 416 19 107 68 193 142 244 64 45 107 56 200 52 72 -2 94 -8
139 -32z m-849 16 c0 -12 -26 -21 -61 -21 -39 0 -38 -10 16 -160 25 -69 60
-167 78 -218 l33 -94 78 231 c42 127 74 236 71 241 -3 6 -22 10 -41 10 -19 0
-34 5 -34 10 0 11 187 14 214 4 26 -10 7 -24 -32 -24 -20 0 -43 -4 -50 -9 -7
-4 -62 -155 -122 -335 -59 -181 -113 -333 -119 -339 -9 -9 -14 -8 -21 3 -8 13
-108 277 -207 545 l-48 130 -40 3 c-52 4 -68 9 -60 22 8 13 345 14 345 1z
m-5293 -36 c110 -37 161 -119 132 -214 -24 -82 -92 -121 -236 -136 l-63 -7 0
-94 0 -94 125 0 c91 0 136 4 163 16 43 18 142 11 179 -12 22 -14 22 -54 -1
-54 -6 -1 -193 -2 -416 -3 -318 -2 -411 -5 -435 -16 -27 -12 -36 -11 -82 9
-28 12 -59 30 -68 40 -17 19 -11 19 224 13 l241 -6 0 100 0 101 -72 7 c-131
13 -196 48 -223 120 -35 91 7 185 98 220 70 27 136 34 262 30 77 -2 138 -9
172 -20z m-2153 -328 c57 -19 121 -76 136 -123 27 -81 -37 -165 -152 -200 -51
-15 -93 -19 -218 -19 -181 1 -243 15 -307 70 -119 102 -54 247 128 285 70 14
355 5 413 -13z m622 -38 l29 -14 -4 -108 c-2 -74 1 -112 9 -122 10 -12 46 -15
189 -15 150 0 182 3 217 19 35 16 53 18 113 11 72 -8 101 -21 101 -46 0 -8
-10 -16 -22 -19 -13 -3 -162 -5 -331 -3 l-309 3 -19 24 c-16 19 -19 40 -19
114 0 70 -4 95 -17 109 -9 10 -19 18 -23 18 -23 0 -80 32 -74 42 9 14 122 5
160 -13z m8829 -135 c21 -8 45 -56 45 -89 0 -68 -106 -103 -149 -49 -59 75 15
172 104 138z m2975 -1134 c0 -7 -2207 -10 -6600 -10 -4393 0 -6600 3 -6600 10
0 7 2207 10 6600 10 4393 0 6600 -3 6600 -10z m-851 -1026 l31 -6 0 -150 c0
-143 -9 -196 -31 -183 -5 4 -9 22 -9 42 l0 36 -41 -6 c-29 -4 -49 -1 -65 10
-39 25 -28 33 46 33 l70 0 0 50 c0 43 -3 50 -20 50 -11 0 -20 -4 -20 -9 0 -5
-14 -14 -31 -20 -33 -11 -55 -5 -79 23 -11 14 -5 16 59 16 l71 0 0 39 c0 31
-6 44 -27 60 -26 19 -26 20 -7 21 12 0 36 -3 53 -6z m-11248 -20 c5 -3 9 -51
9 -107 0 -78 3 -98 12 -89 16 16 53 15 67 -1 16 -20 3 -27 -50 -27 l-48 0 -3
-102 c-2 -70 -7 -103 -15 -106 -10 -3 -13 42 -13 202 l0 205 -30 16 c-16 9
-30 18 -30 22 0 7 87 -4 101 -13z m748 10 l31 -6 0 -89 c0 -81 8 -106 25 -79
9 15 62 12 68 -4 8 -21 -2 -26 -54 -26 l-48 0 -3 -57 c-2 -34 -8 -58 -15 -61
-10 -3 -13 29 -13 136 l0 141 -32 25 c-29 23 -31 26 -12 26 12 0 36 -3 53 -6z
m1387 -4 l27 -11 -6 -147 c-6 -154 -12 -185 -31 -179 -7 2 -13 56 -16 158 -5
148 -6 154 -27 164 -51 22 -2 35 53 15z m1177 -18 c-1 -5 18 -12 42 -16 25 -3
63 -15 85 -26 71 -36 76 -123 10 -172 -39 -28 -138 -42 -212 -29 -70 12 -106
34 -127 76 -12 25 -12 35 0 69 16 46 53 69 127 81 37 5 42 9 37 26 -5 16 -3
18 17 10 13 -5 22 -13 21 -19z m780 6 c15 -8 17 -29 17 -218 0 -128 -4 -211
-10 -215 -5 -3 -10 -27 -10 -53 0 -55 -9 -92 -21 -92 -5 0 -9 123 -9 275 l0
275 -30 19 c-16 10 -27 21 -23 25 8 8 59 -2 86 -16z m547 8 c63 0 136 4 162 9
48 8 85 -6 72 -26 -3 -5 -82 -9 -175 -9 l-170 0 3 -67 3 -68 110 1 c61 1 131
4 157 9 34 5 52 4 63 -5 27 -22 5 -30 -86 -30 l-89 0 0 -52 0 -51 113 6 c90 6
117 4 133 -7 29 -22 12 -25 -236 -30 -124 -3 -233 -6 -243 -6 -11 -1 -31 7
-45 17 -27 18 -26 18 101 21 l127 3 0 43 0 44 -71 4 c-47 2 -73 8 -79 18 -6 8
-10 46 -10 83 0 60 -2 70 -20 74 -45 12 -12 36 35 25 17 -4 82 -7 145 -6z
m800 -2 c13 -3 15 -41 12 -276 -2 -279 -5 -323 -22 -313 -6 4 -10 112 -10 276
0 256 -1 270 -20 289 -11 11 -24 20 -30 20 -5 0 -10 5 -10 11 0 10 30 7 80 -7z
m590 -4 c13 -7 14 -42 8 -261 -6 -244 -14 -314 -34 -314 -5 0 -10 116 -12 278
l-2 278 -25 11 c-14 6 -25 15 -25 20 0 9 65 1 90 -12z m746 9 l44 -11 0 -214
c0 -131 -4 -215 -10 -219 -5 -3 -10 -30 -10 -60 0 -29 -3 -60 -6 -69 -19 -49
-24 10 -24 259 l0 275 -30 19 c-16 10 -27 21 -23 24 8 9 6 9 59 -4z m614 -9
c13 -7 14 -42 8 -261 -6 -244 -14 -314 -34 -314 -5 0 -10 116 -12 278 l-2 278
-25 11 c-14 6 -25 15 -25 20 0 9 65 1 90 -12z m580 0 c13 -7 14 -42 8 -261 -6
-244 -14 -314 -34 -314 -5 0 -10 116 -12 278 l-2 278 -25 11 c-14 6 -25 15
-25 20 0 9 65 1 90 -12z m1319 11 c25 -7 25 -8 22 -109 -2 -98 2 -115 26 -91
16 16 57 7 61 -13 3 -15 -4 -18 -47 -18 l-51 0 0 -89 c0 -49 -3 -96 -6 -105
-18 -46 -24 3 -24 189 0 113 -3 205 -7 205 -5 0 -19 9 -33 20 l-25 20 30 -1
c17 -1 41 -4 54 -8z m405 3 c27 -10 19 -34 -11 -34 -41 0 -100 -18 -118 -36
-21 -21 -19 -67 3 -87 29 -26 122 -40 189 -28 65 13 93 33 93 70 0 31 -8 44
-35 59 -11 6 -14 12 -7 12 47 1 87 -63 70 -112 -18 -50 -58 -63 -195 -63 -108
0 -125 2 -150 21 -36 27 -50 65 -35 98 16 36 51 55 121 67 51 9 60 14 50 25
-12 15 -2 18 25 8z m2115 -3 c25 -7 25 -8 22 -113 l-3 -107 31 12 c22 8 37 8
48 1 28 -17 15 -29 -37 -32 l-50 -3 0 -94 c0 -51 -3 -100 -6 -109 -17 -44 -24
15 -24 205 0 115 -3 209 -7 209 -5 0 -19 9 -33 20 l-25 20 30 -1 c17 -1 41 -4
54 -8z m-12405 -11 l26 -10 0 -125 c0 -125 0 -126 21 -114 16 8 28 8 46 0 38
-18 22 -36 -35 -39 l-52 -3 0 -134 c0 -73 -3 -140 -6 -149 -18 -47 -24 22 -24
270 l0 274 -32 20 -33 20 32 0 c17 0 43 -4 57 -10z m1087 0 c5 0 9 -6 9 -14 0
-7 14 -16 31 -20 17 -3 46 -21 65 -40 30 -30 34 -40 34 -86 0 -47 -4 -56 -38
-90 -67 -67 -158 -66 -225 1 -38 38 -39 41 -35 94 6 65 30 96 95 121 37 14 41
19 31 32 -11 13 -10 15 5 9 10 -4 23 -7 28 -7z m1360 -1 c11 -5 17 -14 14 -18
-2 -5 8 -11 24 -14 43 -9 89 -53 101 -99 21 -77 -12 -146 -85 -173 -83 -32
-171 -1 -201 71 -33 78 -3 152 76 191 29 14 44 27 42 37 -3 19 2 20 29 5z
m8821 -3 c15 -22 -11 -26 -173 -26 l-169 0 0 -36 0 -35 118 4 c64 3 132 8 150
12 31 7 62 -6 62 -26 0 -5 -74 -9 -165 -9 l-165 0 0 -36 0 -37 168 4 c143 3
167 2 167 -11 0 -13 -26 -15 -165 -17 -216 -4 -214 -5 -218 105 -2 70 -6 83
-23 92 -11 6 -18 14 -15 18 7 11 420 9 428 -2z m-8318 -2 c13 -5 16 -22 16
-78 0 -43 5 -77 12 -84 16 -16 211 -16 255 0 36 13 83 3 91 -19 3 -10 -39 -13
-187 -13 -220 0 -211 -4 -211 100 0 55 -2 61 -25 72 -14 6 -25 15 -25 20 0 9
51 11 74 2z m2988 -17 c12 -18 9 -462 -2 -492 -21 -55 -30 -12 -30 141 0 153
0 154 -23 154 -12 0 -37 -4 -55 -9 -36 -11 -77 1 -86 25 -4 11 12 14 79 14
l85 0 0 75 c0 71 -2 76 -25 87 -14 6 -25 15 -25 21 0 13 73 -2 82 -16z m5712
14 c17 -6 18 -19 17 -141 -2 -133 -13 -182 -33 -146 -7 13 -27 16 -92 16 -75
0 -84 -2 -89 -20 -3 -11 -10 -20 -16 -20 -7 0 -11 41 -11 124 0 124 0 124 -27
145 -25 18 -26 20 -8 21 49 0 65 -11 65 -46 l0 -34 90 0 90 0 0 35 c0 28 -5
37 -30 50 -16 9 -30 18 -30 20 0 7 52 5 74 -4z m-2322 -6 c9 -10 -40 -215 -52
-215 -4 0 -3 21 1 48 4 26 8 68 8 95 l1 47 -119 0 c-65 0 -132 -5 -148 -11
-25 -8 -38 -7 -69 8 l-39 18 185 5 c102 3 194 7 206 8 11 1 23 0 26 -3z m2916
-19 c4 -17 -3 -18 -87 -15 -63 3 -95 9 -105 19 -14 13 -4 15 87 15 91 0 102
-2 105 -19z m-5872 0 c3 -8 19 -16 36 -20 42 -8 93 -63 102 -108 18 -99 -41
-169 -148 -176 -55 -3 -65 -1 -103 27 -96 70 -75 210 39 256 32 12 39 19 27
26 -10 6 -7 9 14 9 15 0 30 -6 33 -14z m1940 0 c3 -8 19 -16 36 -20 42 -8 93
-63 102 -108 18 -99 -41 -169 -148 -176 -55 -3 -65 -1 -103 27 -96 70 -75 210
39 256 32 12 39 19 27 26 -10 6 -7 9 14 9 15 0 30 -6 33 -14z m-6343 -3 c6
-10 -18 -232 -33 -303 -19 -87 -34 -87 -26 0 3 41 9 119 13 173 l6 97 -116 0
c-64 0 -138 -5 -166 -11 -41 -8 -55 -7 -80 6 -17 8 -31 20 -31 25 0 6 81 11
198 13 108 1 205 3 214 5 9 1 19 -1 21 -5z m7797 -3 c0 -6 -10 -32 -22 -58
-30 -64 -138 -170 -221 -216 -90 -50 -120 -44 -41 8 77 52 160 130 196 185 15
25 28 49 28 53 0 12 -122 10 -158 -3 -25 -8 -37 -7 -64 8 l-33 18 135 5 c74 3
145 7 158 8 12 1 22 -3 22 -8z m-9322 -27 c1 -10 -1 -64 -6 -121 -4 -57 -4
-106 0 -108 4 -3 8 -12 8 -20 0 -11 -21 -14 -114 -14 -82 0 -116 -3 -119 -12
-12 -35 -23 17 -27 135 -5 124 -6 132 -27 143 -13 6 -21 13 -19 15 3 2 71 3
153 2 135 -1 148 -3 151 -20z m4082 18 c0 -5 -5 -44 -11 -86 -8 -58 -7 -80 2
-91 10 -12 -5 -14 -100 -14 l-111 0 0 -90 0 -90 63 6 c34 4 101 14 150 24 48
10 87 13 87 8 0 -14 -45 -27 -187 -55 -166 -33 -163 -34 -163 92 0 89 -1 92
-26 103 -47 22 -15 29 111 24 l125 -5 0 72 0 73 -104 -3 c-101 -3 -136 5 -136
32 0 5 68 9 150 9 86 0 150 -4 150 -9z m-4899 -21 c18 -10 19 -23 19 -170 0
-101 4 -160 10 -160 21 0 186 40 229 55 44 15 68 12 41 -6 -28 -18 -270 -90
-293 -87 -22 3 -22 6 -27 171 -5 172 -9 186 -47 187 -7 0 -13 5 -13 10 0 13
56 13 81 0z m6022 -7 c4 -2 7 -76 7 -164 0 -87 2 -159 5 -159 3 0 51 7 107 15
97 15 128 13 99 -4 -7 -5 -60 -21 -117 -36 -84 -22 -107 -25 -119 -15 -12 10
-15 41 -15 164 0 83 -4 156 -8 162 -4 6 -18 17 -31 24 -19 10 -21 14 -10 21
13 8 63 3 82 -8z m2203 6 c11 -19 -18 -29 -91 -29 -63 -1 -68 -2 -51 -15 18
-13 18 -16 2 -55 -26 -64 -21 -77 52 -149 71 -69 103 -124 85 -142 -7 -7 -37
19 -93 85 l-82 95 -25 -37 c-43 -63 -133 -172 -143 -172 -17 0 -12 11 50 101
63 92 123 226 118 262 -3 20 -9 22 -73 22 -69 0 -95 7 -95 25 0 5 57 11 128
13 70 1 146 4 169 5 23 1 45 -3 49 -9z m-604 -53 c-11 -127 -16 -268 -10 -272
27 -17 -6 -24 -111 -24 -112 0 -119 -1 -124 -21 -14 -53 -26 5 -32 161 -8 171
-8 171 -34 185 -23 13 -9 14 144 12 l170 -2 -3 -39z m5066 22 c3 -16 -8 -18
-121 -18 -68 0 -138 -5 -155 -11 -24 -8 -37 -7 -61 6 -17 8 -31 20 -31 25 0 5
64 11 148 13 216 5 216 5 220 -15z m-3199 -27 c11 -7 14 -26 12 -69 l-2 -59
76 -7 c51 -5 87 -3 110 5 39 15 100 2 100 -21 0 -21 -475 -32 -517 -13 -56 27
-41 33 81 33 l121 0 0 45 c0 43 -4 51 -45 80 -19 14 -18 14 15 15 19 0 41 -4
49 -9z m3092 -41 c74 -21 108 -101 64 -151 -79 -88 -265 -50 -265 54 0 43 17
67 63 88 47 21 85 24 138 9z m-1636 -71 c23 -22 -24 -28 -256 -30 -219 -2
-250 -1 -273 14 -14 10 -26 18 -26 20 0 1 96 1 213 -1 127 -2 223 1 238 7 26
11 88 5 104 -10z m-8827 -15 c21 -6 22 -11 22 -122 l0 -115 119 6 c126 7 151
4 151 -19 0 -12 -35 -14 -195 -14 -122 0 -212 -5 -240 -12 -39 -10 -50 -10
-72 2 -57 32 -41 40 82 40 l116 0 -3 103 c-3 95 -5 103 -25 112 -46 20 -12 34
45 19z m9587 -14 c57 -22 11 -30 -163 -30 -97 0 -206 -5 -241 -10 -50 -7 -70
-6 -92 5 -15 8 -30 18 -32 22 -3 5 86 7 197 5 115 -2 213 1 227 7 32 13 72 13
104 1z m-7966 -6 c22 -5 31 -12 29 -23 -3 -14 -33 -17 -248 -21 -204 -4 -250
-3 -272 10 -16 8 -28 17 -28 20 0 3 95 4 210 2 129 -2 217 1 228 7 20 12 38
13 81 5z m814 -43 c23 -23 -8 -31 -128 -31 l-123 0 -7 -97 c-7 -109 -12 -133
-26 -133 -5 0 -9 52 -9 120 l0 120 -31 0 c-16 0 -61 -5 -98 -11 -60 -10 -71
-9 -94 6 -15 9 -27 20 -27 24 0 3 97 5 215 3 141 -2 221 1 232 8 20 12 81 6
96 -9z m-2818 -68 l0 -63 -148 0 -148 0 3 -37 3 -38 165 0 c140 0 165 -2 165
-15 0 -13 -26 -15 -160 -17 -192 -3 -208 2 -213 65 -3 36 -8 45 -30 53 -52 20
0 26 166 20 l162 -6 0 33 0 32 -121 0 c-66 0 -128 -4 -137 -9 -19 -10 -82 11
-82 28 0 9 231 19 355 16 17 0 20 -7 20 -62z m9120 -3 l0 -60 -158 0 -158 0 3
-37 3 -38 120 2 c66 1 142 3 170 5 41 2 50 0 53 -14 3 -17 -11 -18 -180 -18
-130 0 -188 4 -196 12 -7 7 -12 29 -12 50 0 33 -4 40 -27 49 -54 20 -1 26 175
20 l172 -6 0 33 0 32 -119 0 c-66 0 -132 -5 -147 -10 -27 -11 -94 5 -94 22 0
4 78 9 173 11 94 1 183 4 197 5 25 2 26 0 25 -58z m1379 -5 l0 -60 -152 -3
-152 -3 0 -36 0 -36 173 4 c148 3 172 2 172 -11 0 -13 -26 -15 -165 -17 -194
-3 -213 2 -218 61 -2 28 -9 40 -23 43 -21 6 -26 22 -6 24 6 1 83 0 170 -1
l157 -2 0 32 0 31 -158 -2 c-150 -3 -182 1 -182 21 0 8 250 18 365 15 18 0 20
-7 19 -60z m-9389 45 c18 -7 25 -15 21 -25 -3 -8 -9 -21 -12 -29 -4 -10 9 -24
36 -42 23 -15 47 -38 54 -52 l13 -24 30 38 c31 40 63 96 63 112 0 5 -10 14
-22 20 -22 10 -22 11 7 11 50 1 62 -12 47 -51 -12 -33 -12 -34 43 -84 52 -48
66 -76 46 -88 -5 -3 -33 24 -62 60 l-53 65 -19 -26 c-21 -28 -137 -121 -137
-109 0 4 7 15 15 24 13 14 10 21 -35 65 l-49 48 -49 -54 c-46 -50 -112 -99
-112 -84 0 4 26 35 58 70 32 35 67 80 78 100 19 36 19 37 0 51 -17 12 -17 14
-4 14 9 0 29 -5 43 -10z m2924 -34 c64 -34 80 -99 35 -141 -62 -57 -308 -51
-349 9 -16 21 -19 63 -9 91 7 18 53 44 99 56 45 12 190 2 224 -15z m3831 13
c70 -15 104 -46 104 -94 0 -54 -34 -80 -123 -95 -91 -15 -199 1 -239 35 -33
29 -36 85 -5 117 42 41 163 58 263 37z m2031 -99 c-1 -52 -5 -98 -7 -102 -16
-25 -24 2 -24 77 l0 85 -119 0 c-66 0 -130 -4 -143 -9 -24 -9 -98 13 -98 30 0
7 262 17 375 14 18 0 19 -6 16 -95z m-8279 69 c12 -7 18 -25 20 -67 l3 -57
110 1 c61 1 125 5 142 9 41 9 83 -1 83 -20 0 -13 -28 -15 -179 -15 -206 0
-211 2 -211 75 0 40 -3 46 -31 61 -24 12 -29 18 -18 25 14 8 51 3 81 -12z
m-2714 5 c30 -6 31 -8 34 -68 l3 -61 160 0 c144 0 160 -2 163 -17 3 -17 -10
-18 -163 -18 -95 0 -175 4 -186 10 -15 8 -19 22 -19 61 0 45 -3 52 -30 67 -50
29 -33 40 38 26z m9316 -4 c23 -8 25 -15 28 -72 l3 -63 105 2 c58 2 130 4 160
5 45 3 55 0 58 -14 3 -17 -10 -18 -165 -18 -120 0 -174 4 -186 13 -10 7 -17
30 -19 62 -3 45 -6 52 -35 66 -18 9 -30 19 -26 23 9 9 48 7 77 -4z m2533 -22
c7 -5 13 -33 15 -61 l3 -52 105 2 c58 2 130 4 160 5 45 3 55 0 58 -14 3 -17
-10 -18 -172 -18 -198 0 -206 3 -206 70 0 34 -4 42 -30 55 -17 9 -28 20 -25
26 7 11 73 2 92 -13z m-5561 4 c-6 -10 -95 -26 -256 -47 -101 -13 -117 -13
-137 0 -13 9 -23 19 -23 23 0 4 42 8 93 8 50 1 130 6 177 11 113 14 152 15
146 5z m1940 0 c-6 -10 -95 -26 -256 -47 -101 -13 -117 -13 -137 0 -13 9 -23
19 -23 23 0 4 42 8 93 8 50 1 130 6 177 11 113 14 152 15 146 5z m-7873 -702
c14 -12 4 -567 -10 -582 -10 -10 -13 43 -13 264 0 295 0 297 -50 313 -34 11
-11 26 28 19 20 -3 41 -10 45 -14z m553 9 l44 -11 0 -214 c0 -131 -4 -215 -10
-219 -5 -3 -10 -30 -10 -60 0 -29 -3 -60 -6 -69 -19 -49 -24 10 -24 259 l0
275 -30 19 c-16 10 -27 21 -23 24 8 9 6 9 59 -4z m588 1 c26 -9 26 -10 25
-122 -2 -152 -11 -241 -26 -246 -10 -3 -13 34 -13 161 l0 166 -32 25 -33 26
27 0 c15 0 38 -4 52 -10z m390 4 c35 -13 15 -32 -42 -38 -79 -9 -102 -26 -102
-77 0 -37 3 -41 38 -56 50 -21 177 -21 219 0 50 26 57 64 18 102 -25 26 -18
33 16 14 31 -16 49 -66 37 -101 -18 -50 -58 -63 -195 -63 -108 0 -125 2 -150
21 -36 27 -50 65 -35 98 16 36 51 55 121 67 51 9 60 14 50 25 -12 15 -2 18 25
8z m756 -8 c63 0 132 4 152 8 45 10 88 1 88 -19 0 -13 -27 -15 -175 -15 l-175
0 0 -31 0 -32 163 4 c139 3 162 2 162 -11 0 -13 -26 -15 -163 -18 l-163 -3 3
-32 3 -32 115 2 c63 1 137 4 165 5 41 3 50 0 53 -14 3 -16 -6 -18 -87 -18
l-91 0 0 -47 0 -46 114 6 c119 7 146 4 146 -18 0 -20 -494 -27 -533 -8 -15 8
-25 18 -22 23 4 6 62 10 131 10 l124 0 0 40 0 40 -75 0 c-90 0 -95 6 -95 110
0 63 -2 72 -20 77 -45 12 -12 36 35 25 17 -3 82 -6 145 -6z m793 3 l38 -10 -3
-284 c-2 -210 -6 -287 -15 -297 -10 -10 -13 19 -13 145 l0 157 -45 0 -44 0 -3
-132 c-2 -94 -7 -133 -15 -136 -10 -3 -13 51 -13 246 l0 250 -30 12 c-43 18
-38 34 7 25 21 -4 41 -9 45 -11 5 -3 8 -57 8 -120 l0 -114 45 0 46 0 -3 112
-3 112 -32 22 c-18 12 -29 24 -26 28 8 8 11 8 56 -5z m1380 -6 c13 -8 8 -539
-5 -570 -11 -24 -13 -6 -16 130 l-3 157 -44 0 -44 0 -3 -132 c-2 -94 -7 -133
-15 -136 -10 -3 -13 51 -13 246 l0 250 -31 12 c-40 17 -23 34 22 23 l34 -9 3
-117 3 -117 44 0 45 0 0 109 c0 115 -6 132 -50 146 -34 11 -11 26 28 19 20 -4
40 -9 45 -11z m545 11 c21 -6 22 -11 22 -102 0 -75 3 -93 12 -84 7 7 27 12 45
12 26 0 33 -4 33 -20 0 -17 -7 -20 -49 -20 l-50 0 -3 -52 c-2 -30 -8 -53 -15
-56 -10 -3 -13 29 -13 137 0 145 0 144 -45 176 -19 14 -19 14 10 15 17 0 40
-3 53 -6z m588 -5 l44 -11 0 -214 c0 -131 -4 -215 -10 -219 -5 -3 -10 -30 -10
-60 0 -29 -3 -60 -6 -69 -19 -49 -24 10 -24 259 l0 275 -30 19 c-16 10 -27 21
-23 24 8 9 6 9 59 -4z m560 0 l44 -11 0 -130 c0 -126 0 -129 20 -118 28 15 60
3 60 -21 0 -16 -7 -19 -50 -19 l-50 0 0 -129 c0 -71 -3 -136 -6 -145 -19 -49
-24 10 -24 259 l0 275 -30 19 c-16 10 -27 21 -23 24 8 9 6 9 59 -4z m-6281
-19 l25 -10 -2 -251 c-2 -191 -6 -253 -15 -257 -10 -3 -13 30 -13 141 l0 145
-35 -9 c-19 -6 -41 -6 -49 -2 -8 4 -53 7 -100 5 l-86 -3 0 -85 c0 -46 2 -84 3
-84 2 0 48 7 103 15 117 18 131 18 118 6 -5 -6 -58 -23 -119 -40 -78 -21 -113
-26 -122 -19 -9 7 -13 40 -13 99 0 89 0 89 -31 108 -41 25 -24 30 84 23 l87
-5 0 68 0 68 -70 -5 c-50 -4 -75 -1 -90 9 -38 27 -20 33 101 33 97 0 120 -3
116 -13 -3 -8 -8 -44 -12 -80 l-7 -67 61 0 61 0 0 89 0 89 -30 12 c-56 23 -23
42 35 20z m4963 1 c6 0 12 -8 12 -16 0 -12 -16 -15 -86 -15 -79 0 -124 10
-124 28 0 6 143 8 198 3z m-5432 -28 c-4 -16 -11 -54 -16 -87 -10 -61 -20 -85
-20 -48 0 12 -2 22 -5 22 -2 0 -75 -9 -160 -20 -146 -19 -159 -19 -191 -4 -19
9 -34 20 -34 24 0 4 78 10 173 13 215 7 217 8 217 58 l0 39 -106 0 c-58 0
-124 -5 -147 -11 -35 -8 -49 -7 -82 8 l-40 18 180 5 c99 3 193 7 208 8 26 2
28 0 23 -25z m4312 3 c13 -12 12 -18 -7 -44 -11 -17 -21 -34 -21 -40 0 -11
104 -67 140 -75 31 -8 85 -61 76 -76 -8 -12 -56 10 -176 82 l-76 44 -39 -34
c-43 -37 -172 -113 -192 -113 -26 0 -11 16 47 53 72 46 159 124 183 165 17 30
17 31 -5 47 -23 17 -22 17 16 11 22 -3 46 -12 54 -20z m-2700 -8 c3 -16 -8
-18 -117 -18 l-121 0 0 -50 0 -50 55 0 c30 0 65 5 79 11 30 14 76 4 76 -16 0
-12 -20 -15 -110 -15 l-110 0 0 -55 0 -55 73 6 c39 3 109 14 155 24 45 9 85
13 88 9 3 -5 -8 -11 -23 -15 -15 -3 -53 -12 -83 -19 -88 -21 -208 -38 -224
-32 -13 5 -16 28 -16 132 0 124 0 126 -25 137 -13 6 -23 14 -21 17 2 3 75 6
162 6 143 0 159 -2 162 -17z m-734 -4 c9 -3 16 -12 16 -19 0 -7 14 -15 31 -19
92 -18 137 -163 84 -267 -19 -36 -83 -69 -135 -69 -19 0 -54 9 -77 19 -56 26
-77 67 -78 151 0 87 23 126 93 161 40 19 49 28 40 37 -13 13 -1 16 26 6z
m2581 -14 c0 -12 -16 -16 -72 -18 -67 -3 -113 8 -113 26 0 4 42 7 93 7 75 0
92 -3 92 -15z m3155 -5 c23 -27 0 -35 -106 -35 l-104 0 0 -155 c0 -145 1 -155
19 -155 10 0 73 11 141 25 133 27 159 30 145 16 -13 -12 -187 -67 -254 -81
-46 -9 -57 -8 -72 6 -17 15 -19 34 -19 185 0 159 -1 168 -20 174 -11 3 -20 11
-20 16 0 7 34 8 94 3 62 -4 100 -3 112 4 27 16 69 15 84 -3z m-799 -5 c18 -10
19 -23 19 -170 0 -130 3 -160 14 -160 8 0 67 14 132 31 157 41 171 44 159 32
-27 -26 -281 -106 -319 -101 -20 3 -21 8 -24 170 l-2 168 -30 15 c-17 9 -30
18 -30 20 0 9 61 5 81 -5z m-306 -20 c0 -12 -24 -16 -140 -20 -77 -3 -145 -8
-150 -12 -13 -8 -75 18 -75 31 0 7 54 12 143 14 213 5 222 4 222 -13z m-660
-22 c-11 -54 -70 -170 -110 -216 -45 -52 -155 -145 -162 -138 -3 3 23 36 57
73 34 37 76 87 92 111 26 38 78 143 78 158 0 3 -37 5 -82 3 -90 -3 -128 4
-128 27 0 11 24 14 131 14 l131 0 -7 -32z m-1341 -14 c9 -3 16 -12 16 -19 0
-9 -30 -14 -107 -17 -60 -2 -117 -9 -129 -16 -22 -12 -64 3 -72 26 -3 9 24 12
110 12 62 0 120 5 128 10 17 11 32 12 54 4z m1952 -47 c67 -78 -20 -159 -152
-142 -66 8 -104 40 -104 87 0 38 6 48 40 72 20 14 41 17 108 14 77 -3 86 -5
108 -31z m-3051 -68 c23 -22 -24 -28 -256 -30 -219 -2 -250 -1 -273 14 -14 10
-26 18 -26 20 0 1 96 1 213 -1 127 -2 223 1 238 7 26 11 88 5 104 -10z m1033
1 c72 -44 80 -133 16 -189 -29 -26 -43 -31 -84 -31 -43 0 -56 5 -86 33 -110
100 25 265 154 187z m-3431 -36 c58 -1 68 -6 60 -29 -5 -12 -23 -15 -83 -15
l-77 0 8 -110 c7 -108 2 -150 -16 -150 -5 0 -9 56 -9 130 l0 130 -80 0 -80 0
0 -124 c0 -98 -3 -126 -15 -136 -13 -11 -15 4 -15 129 l0 142 -37 -7 c-52 -10
-71 -8 -101 13 -27 18 -23 18 176 21 151 2 202 5 202 15 0 7 3 8 8 2 4 -6 31
-10 59 -11z m4265 -30 c5 -3 8 -46 8 -96 l0 -91 109 7 c114 7 141 3 141 -20 0
-11 -35 -14 -194 -14 -112 0 -216 -5 -245 -12 -43 -10 -53 -9 -75 6 -14 9 -26
21 -26 26 0 6 52 10 130 10 l130 0 0 75 c0 74 -1 76 -30 93 -16 9 -30 21 -30
26 0 8 66 0 82 -10z m-1955 -41 c-14 -52 -16 -72 -7 -78 29 -18 -16 -25 -156
-25 l-155 0 3 -37 3 -38 120 1 c66 0 132 4 147 9 36 10 78 -1 78 -20 0 -13
-28 -15 -179 -15 -99 0 -186 3 -195 6 -11 4 -16 19 -16 43 0 41 -7 55 -33 64
-47 17 7 24 168 19 l175 -5 0 32 0 31 -119 0 c-66 0 -131 -4 -146 -10 -20 -7
-35 -6 -63 8 l-37 17 180 5 c99 3 193 7 208 8 23 2 27 -2 24 -15z m3267 8 c17
-6 18 -18 17 -115 -1 -59 -5 -114 -8 -122 -7 -19 -23 -18 -23 1 0 13 -22 15
-135 15 -83 0 -135 -4 -135 -10 0 -5 -4 -10 -10 -10 -6 0 -10 39 -10 98 0 98
0 99 -27 112 -26 13 -26 14 -7 17 37 7 74 -14 74 -42 l0 -25 130 0 130 0 0 24
c0 16 -11 31 -32 45 -32 20 -32 21 -8 20 14 0 33 -4 44 -8z m-3873 -41 c33
-17 59 -54 59 -85 0 -25 -49 -71 -88 -83 -49 -15 -184 -15 -236 -1 -86 24
-115 103 -56 153 17 14 45 28 63 30 18 3 43 8 57 10 47 8 165 -6 201 -24z
m1289 9 c61 -13 98 -43 106 -86 15 -78 -116 -128 -267 -103 -88 15 -123 41
-123 94 0 47 27 75 91 92 60 16 127 17 193 3z m3975 -119 c0 -28 -4 -36 -22
-38 -14 -2 -26 4 -33 17 -15 29 4 63 33 59 18 -2 22 -10 22 -38z m33264
-14984 c11 -9 13 -48 8 -214 -3 -128 -9 -208 -16 -215 -8 -8 -11 47 -11 201
l0 212 -25 12 c-14 6 -25 15 -25 20 0 10 50 -1 69 -16z m1200 0 c11 -9 13 -48
8 -214 -3 -128 -9 -208 -16 -215 -8 -8 -11 47 -11 201 l0 212 -25 12 c-14 6
-25 15 -25 20 0 10 50 -1 69 -16z m410 13 l31 -11 0 -203 c0 -112 -3 -210 -6
-219 -17 -44 -24 15 -24 204 0 200 -1 209 -20 215 -11 3 -20 11 -20 16 0 11 0
11 39 -2z m580 0 l31 -11 0 -203 c0 -112 -3 -210 -6 -219 -17 -44 -24 15 -24
204 0 200 -1 209 -20 215 -11 3 -20 11 -20 16 0 11 0 11 39 -2z m450 -4 l24
-7 -5 -210 c-4 -136 -9 -213 -17 -221 -8 -8 -11 42 -11 198 l0 209 -27 24
c-29 24 -26 25 36 7z m-2442 -47 c-57 -98 -57 -214 -2 -320 32 -61 32 -71 -1
-27 -36 48 -71 119 -79 160 -8 46 16 121 61 186 43 63 58 63 21 1z m371 46
c20 -6 22 -12 22 -80 l0 -73 35 6 c28 4 35 2 35 -11 0 -12 -9 -16 -35 -16
l-35 0 0 -69 c0 -39 -4 -73 -10 -76 -6 -4 -10 45 -10 139 l0 144 -27 21 c-29
21 -19 26 25 15z m149 -52 c69 -101 79 -171 39 -259 -27 -57 -65 -113 -78
-113 -5 0 3 18 16 39 67 105 70 200 12 314 -19 37 -31 67 -28 67 4 0 21 -21
39 -48z m723 25 c0 -7 16 -19 35 -26 44 -16 67 -49 67 -98 0 -30 -7 -44 -37
-71 -35 -32 -41 -34 -92 -30 -67 6 -102 36 -110 94 -4 33 -1 45 22 72 15 17
41 36 58 40 18 5 31 14 30 21 -2 6 4 11 12 11 8 0 15 -6 15 -13z m580 0 c0 -7
16 -19 35 -26 44 -16 67 -49 67 -98 0 -30 -7 -44 -37 -71 -35 -32 -41 -34 -92
-30 -67 6 -102 36 -110 94 -4 33 -1 45 22 72 15 17 41 36 58 40 18 5 31 14 30
21 -2 6 4 11 12 11 8 0 15 -6 15 -13z m-1544 -11 c8 -20 -19 -77 -56 -119 -32
-36 -156 -114 -166 -104 -3 2 24 26 60 52 62 46 126 120 126 145 0 9 -20 11
-74 8 -44 -3 -81 -1 -93 6 -14 9 3 12 82 17 55 3 104 6 108 7 4 1 10 -4 13
-12z m-571 -28 c-3 -13 -6 -67 -8 -120 -2 -86 -4 -98 -19 -98 -16 0 -18 12
-18 105 l0 105 -75 0 -76 0 2 -126 c0 -80 -3 -130 -10 -137 -8 -8 -11 27 -11
126 0 122 -2 138 -17 145 -10 4 32 9 92 13 61 3 118 6 128 7 13 2 16 -3 12
-20z m1205 12 c0 -6 -29 -10 -67 -10 -64 0 -66 -1 -49 -19 16 -17 16 -21 1
-59 -17 -40 -16 -42 9 -75 14 -18 37 -40 52 -47 22 -12 54 -56 54 -75 0 -18
-25 3 -79 65 l-60 70 -17 -32 c-23 -45 -64 -95 -93 -114 -27 -18 -25 -14 26
57 44 62 85 156 81 188 -3 24 -7 26 -48 26 -25 1 -52 5 -60 10 -10 7 18 12 90
16 58 3 117 6 133 7 15 1 27 -2 27 -8z m1447 -110 c-2 -117 -3 -120 -24 -120
-22 0 -23 3 -23 105 l0 105 -76 0 -76 0 2 -117 c1 -65 1 -127 -1 -138 -3 -29
-16 108 -18 193 -1 49 -5 73 -13 74 -7 1 34 5 92 8 58 3 113 7 122 8 15 2 16
-11 15 -118z m-3496 27 c-1 -4 -1 -14 -1 -22 0 -8 -4 -15 -9 -15 -10 0 -21 36
-13 45 7 7 24 2 23 -8z m-41 -37 c8 -14 8 -20 0 -20 -20 0 -51 21 -45 31 10
16 34 10 45 -11z m105 11 c6 -10 -25 -31 -45 -31 -8 0 -8 6 0 20 11 21 35 27
45 11z m-90 -61 c-31 -32 -55 -39 -55 -15 0 8 8 15 18 15 10 0 27 7 38 15 30
23 30 17 -1 -15z m85 -15 c0 -8 -6 -15 -14 -15 -7 0 -19 7 -26 15 -11 13 -8
15 14 15 16 0 26 -5 26 -15z m-57 -14 c2 -10 1 -25 -4 -32 -8 -12 -10 -12 -18
0 -9 15 -3 51 9 51 4 0 10 -9 13 -19z m1305 -105 l3 -48 121 3 c92 3 122 1
126 -9 3 -10 -25 -12 -130 -10 l-133 3 -5 43 c-4 33 -11 47 -30 58 l-25 14 35
-2 c34 -3 35 -4 38 -52z m1222 45 c0 -18 -257 -61 -289 -49 -44 16 -17 25 92
32 90 6 177 17 195 25 1 0 2 -3 2 -8z m580 0 c0 -18 -257 -61 -289 -49 -44 16
-17 25 92 32 90 6 177 17 195 25 1 0 2 -3 2 -8z m-2187 -568 c11 -6 8 -415 -3
-433 -6 -10 -10 55 -10 192 0 174 -2 209 -16 222 -8 9 -20 16 -25 16 -5 0 -9
5 -9 10 0 9 42 5 63 -7z m416 6 l31 -11 0 -198 c0 -109 -3 -205 -6 -214 -18
-46 -24 3 -24 189 0 194 -1 205 -20 217 -11 7 -20 16 -20 20 0 10 1 10 39 -3z
m-1358 -51 c-42 -76 -55 -158 -36 -232 8 -32 27 -79 41 -104 l26 -47 -31 35
c-74 82 -99 192 -63 271 19 43 77 129 87 129 3 0 -8 -24 -24 -52z m360 -66
c44 -90 35 -161 -32 -262 -23 -33 -43 -60 -44 -58 -2 2 12 36 32 75 30 61 36
83 36 140 1 59 -4 78 -36 143 l-37 75 30 -35 c17 -19 40 -54 51 -78z m-170
-248 c6 -7 23 -15 37 -17 15 -2 -16 -4 -68 -4 -68 -1 -85 1 -61 7 18 4 38 14
42 22 5 7 8 67 7 133 l-3 120 -35 5 -35 6 36 7 c21 4 43 15 50 24 12 14 14 -7
17 -137 1 -88 7 -159 13 -166z m665 299 c-3 -10 -6 -64 -8 -120 -3 -90 -5
-103 -20 -103 -16 0 -18 12 -18 105 l0 105 -76 0 -75 0 1 -112 c2 -150 2 -158
-10 -158 -6 0 -10 52 -10 135 0 120 -2 136 -17 143 -10 4 32 9 92 13 61 3 118
6 128 7 13 1 17 -3 13 -15z m444 7 c0 -6 -28 -10 -65 -10 -66 0 -76 -4 -51
-24 13 -10 13 -17 0 -54 -14 -41 -14 -43 10 -75 14 -19 36 -39 50 -46 22 -12
46 -49 46 -72 0 -19 -16 -5 -69 59 -28 34 -55 62 -59 62 -4 0 -16 -15 -26 -34
-10 -18 -38 -53 -63 -77 -52 -49 -51 -49 9 41 48 72 85 168 74 195 -5 14 -14
17 -45 12 -21 -2 -46 0 -57 7 -15 9 2 12 86 17 58 3 117 6 133 7 15 1 27 -2
27 -8z m1580 -839 c-9 -17 -8 -22 5 -27 8 -3 15 -15 15 -26 0 -15 -6 -19 -27
-16 -24 3 -28 7 -26 32 1 16 10 37 19 47 21 24 29 18 14 -10z m403 12 c11 -6
8 -415 -3 -433 -6 -10 -10 55 -10 192 0 174 -2 209 -16 222 -8 9 -20 16 -25
16 -5 0 -9 5 -9 10 0 9 42 5 63 -7z m541 7 l26 -10 0 -129 c0 -76 -4 -132 -10
-136 -5 -3 -10 -40 -10 -81 0 -43 -4 -74 -10 -74 -6 0 -10 27 -10 61 l0 60
-118 -2 c-74 -1 -125 2 -138 9 -15 9 8 11 106 12 160 0 170 3 170 45 0 27 -5
34 -25 39 -14 4 -36 4 -49 0 -13 -3 -27 -1 -30 5 -5 7 8 11 38 11 l46 0 0 51
0 51 -39 -7 c-24 -4 -42 -2 -46 4 -4 7 11 11 44 11 50 0 51 1 51 30 0 17 -4
30 -8 30 -5 0 -17 7 -28 15 -17 12 -17 14 -2 15 9 0 28 -4 42 -10z m414 -5
c21 -6 22 -11 22 -106 0 -54 3 -99 6 -99 3 0 14 4 24 10 20 11 50 4 50 -11 0
-5 -18 -9 -40 -9 l-40 0 0 -99 c0 -55 -3 -106 -6 -115 -17 -44 -24 15 -24 205
0 115 -4 209 -8 209 -5 0 -17 7 -28 16 -19 15 -19 15 1 10 11 -2 30 -7 43 -11z
m580 9 c20 -6 22 -12 22 -71 0 -64 0 -65 24 -59 28 7 58 -2 50 -15 -3 -5 -20
-9 -39 -9 -32 0 -33 -1 -37 -45 -2 -25 0 -45 4 -45 5 0 8 -44 8 -97 0 -75 -3
-94 -12 -85 -8 8 -49 12 -116 12 -88 0 -107 -3 -118 -17 -11 -16 -13 -7 -14
61 0 60 -4 84 -17 98 -15 17 -15 18 5 18 36 0 52 -11 52 -36 0 -25 0 -25 97
-22 87 3 98 5 101 22 3 12 -5 27 -19 37 -20 15 -21 19 -6 19 15 0 17 11 17 99
0 97 -1 100 -27 120 -29 21 -19 26 25 15z m176 -24 c-4 -19 -2 -30 5 -30 6 0
11 -9 11 -21 0 -16 -5 -20 -27 -17 -23 2 -28 7 -25 28 2 23 27 70 37 70 2 0 2
-13 -1 -30z m405 6 c11 -9 13 -48 8 -214 -3 -128 -9 -208 -16 -215 -8 -8 -11
47 -11 201 l0 212 -25 12 c-14 6 -25 15 -25 20 0 10 50 -1 69 -16z m-5398 -38
c-42 -76 -55 -158 -36 -232 8 -32 27 -79 41 -104 l26 -47 -31 35 c-74 82 -99
192 -63 271 19 43 77 129 87 129 3 0 -8 -24 -24 -52z m3609 32 c0 -4 -14 -13
-30 -20 -40 -16 -50 -37 -50 -99 0 -39 5 -55 22 -71 27 -25 69 -26 99 -1 32
26 34 117 4 152 l-20 24 23 -19 c27 -24 47 -85 38 -121 -12 -47 -49 -75 -101
-75 -74 0 -102 39 -95 130 3 37 28 70 61 82 19 6 28 15 25 24 -3 8 0 11 10 7
7 -3 14 -9 14 -13z m1987 -32 c-57 -98 -57 -214 -2 -320 32 -61 32 -71 -1 -27
-36 48 -71 119 -79 160 -8 46 16 121 61 186 43 63 58 63 21 1z m115 35 c24
-28 29 -41 19 -47 -5 -3 -18 10 -30 29 -21 37 -15 47 11 18z m230 -31 c-3 -38
-2 -42 20 -42 13 0 29 5 35 11 13 13 43 5 43 -11 0 -5 -22 -10 -50 -10 l-50 0
0 -50 c0 -46 2 -50 23 -50 13 0 28 5 33 10 7 7 16 4 29 -10 18 -20 18 -20 -91
-18 -60 1 -87 3 -60 5 l49 4 -7 105 c-7 99 -6 106 11 102 14 -3 17 -11 15 -46z
m-5581 -70 c44 -90 35 -161 -32 -262 -23 -33 -43 -60 -44 -58 -2 2 12 36 32
75 30 61 36 83 36 140 1 59 -4 78 -36 143 l-37 75 30 -35 c17 -19 40 -54 51
-78z m3067 77 c2 -16 -5 -32 -19 -45 l-22 -19 12 23 c10 18 9 23 -4 28 -8 3
-15 15 -15 26 0 31 44 20 48 -13z m2689 -17 c69 -101 79 -171 39 -259 -27 -57
-65 -113 -78 -113 -5 0 3 18 16 39 67 105 70 200 12 314 -19 37 -31 67 -28 67
4 0 21 -21 39 -48z m186 14 c-1 -17 -12 -39 -23 -50 l-21 -21 12 28 c11 24 10
29 -6 41 -23 16 -11 38 18 34 18 -2 22 -9 20 -32z m-1563 9 c0 -5 -24 -11 -54
-13 -42 -2 -54 -6 -50 -17 3 -7 1 -22 -5 -34 -9 -17 -6 -23 18 -40 16 -12 33
-21 38 -21 14 0 57 -49 50 -56 -8 -8 -66 28 -96 60 l-24 26 -58 -55 c-69 -66
-99 -74 -41 -11 52 57 94 124 86 137 -4 6 -19 8 -36 5 -17 -3 -39 0 -51 7 -19
10 -8 13 78 18 127 7 146 6 145 -6z m-4536 -15 c15 -5 31 -21 38 -35 19 -43
-5 -96 -83 -180 -39 -42 -69 -82 -66 -88 2 -7 28 -13 60 -15 46 -2 60 1 77 18
11 11 20 30 20 42 0 12 3 19 6 16 3 -4 2 -27 -1 -52 l-7 -46 -99 0 c-55 0 -99
4 -99 9 0 5 19 32 43 61 128 156 127 154 127 192 0 60 -58 87 -109 52 -19 -14
-22 -22 -16 -50 6 -35 -2 -43 -23 -22 -19 19 -14 57 13 83 26 27 73 33 119 15z
m519 -140 c27 -77 52 -138 57 -135 4 2 29 65 56 140 l49 135 38 0 c20 0 37 -4
37 -10 0 -5 -7 -10 -15 -10 -13 0 -15 -23 -15 -150 0 -127 2 -150 15 -150 8 0
15 -4 15 -10 0 -6 -26 -10 -57 -10 -57 0 -58 1 -35 18 22 17 23 22 20 152 l-3
135 -49 -145 c-27 -80 -52 -149 -56 -153 -8 -9 -21 22 -80 193 -18 52 -37 99
-42 105 -4 5 -8 -55 -8 -134 0 -134 1 -143 20 -148 32 -8 12 -23 -30 -23 -42
0 -62 15 -30 23 19 5 20 14 20 145 0 133 -1 140 -22 155 -22 16 -22 16 22 16
l45 1 48 -140z m2477 130 c0 -6 -28 -10 -65 -10 -66 0 -76 -4 -51 -24 13 -10
13 -17 0 -54 -14 -41 -14 -43 10 -75 14 -19 36 -39 50 -46 22 -12 46 -49 46
-72 0 -19 -16 -5 -69 59 -28 34 -55 62 -59 62 -4 0 -16 -15 -26 -34 -10 -18
-38 -53 -63 -77 -52 -49 -51 -49 9 41 48 72 85 168 74 195 -5 14 -14 17 -45
12 -21 -2 -46 0 -57 7 -15 9 2 12 86 17 58 3 117 6 133 7 15 1 27 -2 27 -8z
m967 -12 c-3 -13 -11 -61 -17 -108 -7 -47 -15 -88 -19 -92 -3 -4 -4 40 -3 98
l4 105 -85 -2 c-47 -1 -92 3 -103 9 -15 9 10 11 105 12 123 0 123 0 118 -22z
m1143 12 c0 -6 -29 -10 -67 -10 -64 0 -66 -1 -49 -19 16 -17 16 -21 1 -59 -17
-40 -16 -42 9 -75 14 -18 37 -40 52 -47 22 -12 54 -56 54 -75 0 -18 -25 3 -79
65 l-60 70 -17 -32 c-23 -45 -64 -95 -93 -114 -27 -18 -25 -14 26 57 44 62 85
156 81 188 -3 24 -7 26 -48 26 -25 1 -52 5 -60 10 -10 7 18 12 90 16 58 3 117
6 133 7 15 1 27 -2 27 -8z m-3800 -45 c0 -43 1 -45 30 -45 17 0 30 -4 30 -10
0 -5 -13 -10 -30 -10 l-30 0 0 -95 c0 -104 7 -118 52 -94 23 12 23 12 4 -10
-23 -25 -49 -27 -70 -5 -12 12 -16 37 -16 110 l0 94 -27 1 -28 0 25 10 c31 13
40 26 40 67 0 17 5 32 10 32 6 0 10 -20 10 -45z m4290 30 c11 -13 2 -15 -71
-14 l-84 2 58 7 c32 4 61 10 64 14 10 10 20 7 33 -9z m-3260 -80 l0 -55 50 0
c28 0 50 -4 50 -10 0 -5 -22 -10 -50 -10 l-50 0 0 -61 c0 -81 -24 -77 -28 4
l-3 57 -49 0 c-28 0 -50 5 -50 10 0 6 23 10 50 10 l50 0 0 55 c0 42 3 55 15
55 12 0 15 -13 15 -55z m3234 8 c-63 -7 -114 -7 -114 -1 0 5 20 8 44 8 25 0
48 5 51 10 5 8 12 7 23 -2 14 -12 13 -13 -4 -15z m-4382 -8 c4 -5 8 -23 8 -40
l0 -30 -25 27 c-36 39 -65 45 -87 18 -10 -13 -17 -28 -16 -34 2 -6 32 -24 66
-41 66 -31 80 -52 68 -100 -8 -32 -41 -45 -94 -38 -31 4 -42 10 -46 28 -3 13
-9 31 -13 42 -4 10 9 1 29 -19 38 -40 76 -49 98 -24 23 29 7 60 -45 88 -67 35
-75 44 -75 78 0 39 33 62 85 58 22 -1 43 -7 47 -13z m-312 -5 c0 -5 -7 -10
-16 -10 -9 0 -14 -6 -11 -12 2 -7 14 -41 27 -75 12 -35 26 -63 30 -63 4 0 18
28 30 63 13 34 25 68 27 75 3 6 -2 12 -11 12 -9 0 -16 5 -16 10 0 6 18 10 40
10 41 0 54 -14 22 -22 -12 -4 -32 -41 -62 -119 -50 -131 -64 -156 -92 -165
-23 -7 -54 18 -43 36 5 8 12 7 25 -5 23 -21 37 -13 45 25 9 40 -49 230 -70
230 -8 0 -15 5 -15 10 0 6 20 10 45 10 25 0 45 -4 45 -10z m681 -19 c19 -20
29 -40 29 -60 l0 -31 -79 0 -80 0 9 -31 c20 -70 80 -90 135 -47 l28 21 -12
-21 c-16 -30 -42 -42 -90 -42 -69 0 -101 56 -88 153 11 83 91 114 148 58z
m147 -1 c19 25 29 31 55 28 24 -2 33 -8 35 -25 4 -27 -5 -29 -30 -7 -21 20
-40 9 -64 -37 -19 -38 -19 -138 1 -145 31 -12 13 -24 -35 -24 -27 0 -50 5 -50
10 0 6 7 10 15 10 12 0 15 17 15 95 0 84 -2 95 -17 96 -12 0 -7 5 12 14 29 13
30 13 35 -17 l5 -30 23 32z m192 20 c0 -5 -7 -10 -15 -10 -20 0 -19 -3 12 -88
29 -81 28 -82 67 21 24 65 24 67 6 67 -11 0 -20 5 -20 10 0 6 18 10 40 10 22
0 40 -4 40 -10 0 -5 -6 -10 -14 -10 -8 0 -30 -45 -56 -112 -52 -136 -67 -165
-93 -172 -25 -6 -47 3 -47 20 0 17 22 18 37 3 8 -8 16 -4 29 16 17 26 16 29
-15 128 -17 56 -38 107 -46 113 -24 18 -17 24 30 24 25 0 45 -4 45 -10z m1938
-16 c20 -6 22 -12 22 -86 0 -71 2 -79 18 -74 9 3 44 7 77 11 88 8 36 -11 -84
-32 -115 -19 -130 -19 -150 2 -14 13 -9 15 47 15 l62 0 0 69 c0 60 -3 71 -22
84 -25 17 -12 22 30 11z m1742 -29 c11 -13 4 -15 -56 -13 -56 1 -60 2 -21 5
26 2 47 8 47 14 0 14 16 11 30 -6z m190 -96 c0 -20 -19 -7 -34 23 -9 17 -16
34 -16 37 1 10 50 -49 50 -60z m-250 21 c14 0 31 5 36 10 8 8 15 6 24 -5 10
-12 10 -15 0 -15 -10 0 -11 -17 -6 -70 4 -45 2 -70 -4 -70 -5 0 -10 7 -10 15
0 10 -11 15 -35 15 -24 0 -35 -5 -35 -15 0 -8 -4 -15 -10 -15 -6 0 -10 36 -10
87 0 68 3 84 12 75 7 -7 24 -12 38 -12z m162 -45 c-4 -63 8 -85 45 -85 39 0
63 18 64 48 1 21 3 18 9 -13 4 -22 6 -42 4 -44 -11 -12 -115 -12 -129 -1 -20
16 -22 162 -2 155 8 -4 11 -23 9 -60z m154 4 c9 -18 10 -30 4 -34 -6 -3 -15 6
-20 22 -6 15 -15 37 -22 48 -10 18 -10 19 6 6 10 -8 24 -27 32 -42z m-206 -50
c-8 -15 -15 -18 -22 -11 -8 8 -6 18 6 36 9 14 17 33 18 43 0 10 3 4 5 -14 2
-18 -1 -42 -7 -54z m-4887 -516 c11 -6 8 -415 -3 -433 -6 -10 -10 55 -10 192
0 174 -2 209 -16 222 -8 9 -20 16 -25 16 -5 0 -9 5 -9 10 0 9 42 5 63 -7z
m856 6 l31 -11 0 -198 c0 -109 -3 -205 -6 -214 -18 -46 -24 3 -24 189 0 194
-1 205 -20 217 -11 7 -20 16 -20 20 0 10 1 10 39 -3z m919 -12 c8 -6 12 -40
12 -104 0 -89 1 -93 19 -83 21 10 51 4 51 -11 0 -5 -16 -9 -35 -9 l-35 0 0
-92 c0 -100 -7 -141 -21 -132 -5 3 -9 97 -9 209 l0 203 -27 21 -28 21 30 -6
c17 -4 36 -11 43 -17z m440 17 c21 -6 22 -11 22 -99 0 -147 -12 -335 -22 -329
-4 3 -8 30 -8 60 l0 55 -118 -2 c-74 -1 -125 2 -138 9 -15 9 9 11 108 12 69 0
133 3 142 6 13 5 16 26 16 129 0 123 0 123 -27 144 -29 21 -19 26 25 15z m593
-4 c18 -10 19 -23 19 -210 0 -198 -3 -230 -23 -230 -7 0 -8 64 -3 200 l7 200
-27 25 c-21 20 -23 25 -10 25 10 0 26 -5 37 -10z m847 -5 c21 -6 22 -11 22
-106 0 -54 2 -99 5 -99 3 0 14 6 25 12 16 10 23 10 37 -5 16 -16 15 -17 -25
-17 l-42 0 0 -99 c0 -55 -3 -106 -6 -115 -17 -44 -24 15 -24 205 0 115 -4 209
-8 209 -5 0 -17 7 -28 16 -19 15 -19 15 1 10 11 -2 30 -7 43 -11z m441 4 l31
-11 0 -206 c0 -117 -5 -214 -10 -222 -6 -10 -10 55 -10 192 0 174 -2 209 -16
222 -8 9 -20 16 -25 16 -5 0 -9 5 -9 10 0 12 0 12 39 -1z m1000 0 l31 -11 0
-99 c0 -96 4 -111 27 -88 12 12 53 3 53 -12 0 -5 -18 -9 -40 -9 l-40 0 0 -102
c0 -57 -5 -110 -10 -118 -6 -10 -10 55 -10 192 0 174 -2 209 -16 222 -8 9 -20
16 -25 16 -5 0 -9 5 -9 10 0 12 0 12 39 -1z m469 5 c21 -6 22 -10 22 -136 0
-83 -4 -127 -10 -123 -5 3 -10 17 -10 29 0 26 -33 41 -59 26 -10 -5 -23 -3
-36 6 -17 13 -14 14 33 14 l52 0 0 46 0 47 -32 -5 c-37 -6 -58 -1 -58 13 0 5
23 9 50 9 47 0 50 2 50 25 0 14 -4 25 -8 25 -5 0 -17 7 -28 15 -21 16 -8 20
34 9z m426 -4 l26 -10 0 -199 c0 -110 -3 -206 -6 -215 -16 -41 -24 -7 -24 95
l0 112 -44 -5 c-26 -3 -53 0 -67 8 -22 12 -18 13 44 14 l67 0 0 90 c0 87 -1
90 -27 104 -32 18 -10 22 31 6z m995 -1 l31 -11 0 -99 c0 -54 3 -99 6 -99 3 0
14 4 24 10 20 11 50 4 50 -11 0 -5 -18 -9 -40 -9 l-40 0 0 -109 c0 -63 -4
-112 -10 -116 -7 -4 -10 67 -10 205 l0 210 -25 12 c-14 6 -25 15 -25 20 0 10
1 10 39 -3z m474 -6 c11 -6 9 -431 -3 -438 -7 -4 -10 67 -10 205 l0 210 -25
12 c-34 15 -32 30 3 22 15 -4 30 -9 35 -11z m-8402 -45 c-42 -76 -55 -158 -36
-232 8 -32 27 -79 41 -104 l26 -47 -31 35 c-74 82 -99 192 -63 271 19 43 77
129 87 129 3 0 -8 -24 -24 -52z m1360 42 c16 -9 19 -22 19 -80 l0 -69 35 6
c28 4 35 2 35 -11 0 -12 -10 -16 -40 -16 l-40 0 0 -75 c0 -43 -4 -75 -10 -75
-6 0 -10 56 -10 149 0 143 -1 149 -22 164 -20 14 -21 16 -5 16 10 1 27 -4 38
-9z m2810 0 c16 -9 19 -22 19 -79 l0 -69 31 2 c18 0 34 -5 36 -11 3 -9 -8 -13
-36 -13 l-41 0 0 -75 c0 -43 -4 -75 -10 -75 -6 0 -10 57 -10 150 l0 149 -27
15 c-27 15 -27 15 -5 16 13 0 32 -5 43 -10z m2129 -11 c0 -14 -17 -10 -23 5
-4 10 -1 13 9 9 7 -3 14 -9 14 -14z m1058 15 c21 -6 22 -11 22 -105 0 -55 3
-99 6 -99 3 0 14 4 24 10 20 11 50 4 50 -11 0 -5 -18 -9 -40 -9 l-40 0 0 -109
c0 -63 -4 -112 -10 -116 -7 -4 -10 65 -10 199 l0 204 -27 21 c-29 21 -19 26
25 15z m1456 -4 c25 -9 26 -13 26 -85 0 -41 2 -75 5 -75 3 0 14 6 25 12 16 10
23 10 37 -5 16 -16 15 -17 -25 -17 l-42 0 0 -79 c0 -44 -4 -83 -10 -86 -7 -4
-10 48 -10 149 l0 154 -27 21 c-30 22 -20 27 21 11z m560 0 c25 -9 26 -14 26
-80 0 -38 3 -70 6 -70 3 0 19 8 35 17 27 16 30 16 46 0 16 -16 15 -17 -25 -17
l-42 0 0 -54 c0 -30 -4 -58 -10 -61 -6 -4 -10 10 -10 33 l0 40 -67 -29 c-68
-28 -68 -28 -85 -8 -17 20 -17 20 -66 -5 -64 -33 -72 -24 -72 77 0 64 -4 83
-17 94 -16 13 -14 14 21 9 22 -3 48 0 60 7 28 15 168 18 163 3 -2 -6 -25 -12
-50 -14 l-47 -3 0 -75 c0 -85 0 -85 88 -59 l52 16 0 74 c0 68 -2 75 -27 94
-30 22 -20 27 21 11z m-9013 -108 c44 -90 35 -161 -32 -262 -23 -33 -43 -60
-44 -58 -2 2 12 36 32 75 30 61 36 83 36 140 1 59 -4 78 -36 143 l-37 75 30
-35 c17 -19 40 -54 51 -78z m3299 97 l32 -12 -7 -186 c-4 -102 -11 -190 -16
-195 -5 -6 -9 65 -9 174 0 175 -1 185 -22 207 -25 26 -23 27 22 12z m1986 -16
c-4 -16 -7 -47 -8 -70 l-1 -43 -64 0 -63 0 0 -35 0 -35 50 0 c28 0 59 5 69 11
20 13 79 3 65 -11 -14 -14 -383 -15 -396 -2 -9 9 12 12 85 12 l97 0 0 35 0 35
65 0 65 0 0 55 0 56 -107 -3 -108 -3 -3 -52 -3 -53 38 -1 38 -1 -35 -10 c-19
-5 -41 -14 -47 -20 -10 -8 -13 6 -13 66 0 61 -3 76 -15 76 -8 0 -15 5 -15 10
0 6 59 10 156 10 l156 0 -6 -27z m3053 11 c8 -3 11 -8 5 -13 -12 -11 -131 2
-144 15 -10 10 108 8 139 -2z m-8518 -18 c17 -4 35 -20 48 -42 18 -31 20 -39
9 -62 -7 -15 -24 -32 -38 -39 -14 -7 -24 -18 -22 -23 1 -8 -4 -8 -17 0 -11 5
-30 10 -43 11 -17 1 -14 3 12 11 73 20 94 78 44 117 -32 25 -52 26 -82 5 -18
-12 -20 -19 -12 -29 12 -14 6 -35 -10 -35 -15 0 -20 30 -8 55 11 25 51 46 78
40 8 -2 27 -6 41 -9z m1084 4 c13 -20 -18 -81 -63 -128 -43 -43 -148 -110
-157 -100 -3 2 23 26 57 54 60 47 128 125 128 146 0 6 -29 9 -72 7 -40 -1 -84
2 -98 7 -19 7 -1 10 80 15 58 3 108 6 112 7 4 1 10 -3 13 -8z m1815 0 c0 -6
-27 -10 -61 -10 -51 0 -60 -2 -50 -14 8 -10 8 -21 1 -41 -13 -33 -5 -44 56
-80 24 -14 48 -34 54 -45 25 -46 3 -40 -69 20 l-60 50 -48 -51 c-67 -71 -93
-81 -39 -14 65 79 91 132 75 152 -9 10 -24 13 -44 10 -18 -3 -38 1 -49 9 -16
12 -7 14 75 17 52 1 109 4 127 5 17 1 32 -2 32 -8z m985 -46 c-26 -63 -62
-101 -133 -144 -94 -56 -108 -50 -26 10 68 50 133 122 134 149 0 11 -15 13
-74 9 -44 -3 -81 -1 -93 6 -14 9 5 12 87 16 58 3 109 2 113 -1 5 -4 1 -24 -8
-45z m362 46 c47 0 64 -3 61 -12 -7 -20 -86 -21 -124 -3 -34 16 -48 33 -18 21
9 -3 45 -6 81 -6z m1450 0 c47 0 64 -3 61 -12 -7 -20 -86 -21 -124 -3 -34 16
-48 33 -18 21 9 -3 45 -6 81 -6z m359 -15 c-20 -19 -26 -33 -26 -68 0 -56 23
-86 71 -93 29 -5 41 -2 58 15 26 26 29 105 5 141 -16 23 -15 23 12 -3 24 -23
29 -35 29 -77 0 -76 -36 -105 -128 -101 -45 2 -77 42 -77 96 0 56 12 80 48 99
38 21 39 20 8 -9z m-3719 2 c4 -7 22 -19 40 -26 44 -18 67 -69 59 -134 -10
-88 -82 -135 -154 -100 -96 47 -92 208 7 238 19 6 30 14 27 22 -7 17 11 17 21
0z m5240 0 c4 -7 20 -18 35 -24 41 -18 62 -58 62 -118 0 -63 -22 -101 -71
-122 -33 -13 -40 -13 -81 2 -33 13 -47 26 -58 51 -34 80 -5 175 58 192 18 5
32 14 31 21 -4 15 14 14 24 -2z m-6901 -14 c-3 -10 -6 -64 -8 -120 -3 -90 -5
-103 -20 -103 -16 0 -18 12 -18 105 l0 105 -76 0 -75 0 1 -112 c2 -150 2 -158
-10 -158 -6 0 -10 52 -10 135 0 120 -2 136 -17 143 -10 4 32 9 92 13 61 3 118
6 128 7 13 1 17 -3 13 -15z m879 7 c4 -6 -18 -10 -59 -10 -36 0 -66 -2 -66 -5
0 -3 5 -13 11 -23 8 -13 7 -27 -5 -56 l-16 -38 65 -64 c59 -57 80 -94 56 -94
-5 0 -35 32 -66 71 l-58 72 -18 -34 c-20 -40 -99 -132 -106 -125 -3 3 11 27
31 54 20 28 47 74 60 103 47 109 43 136 -22 126 -29 -5 -43 -3 -52 8 -10 12 2
15 87 18 54 1 110 4 125 5 15 1 30 -2 33 -8z m3240 0 c4 -6 -18 -10 -59 -10
-67 0 -77 -4 -52 -24 13 -10 13 -17 0 -54 -14 -41 -14 -43 10 -75 14 -19 37
-39 50 -47 26 -13 54 -66 42 -78 -4 -3 -19 9 -34 28 -15 19 -42 52 -61 73
l-35 39 -17 -34 c-20 -39 -99 -131 -106 -124 -3 3 11 27 31 54 20 28 47 74 60
103 47 109 43 136 -22 126 -29 -5 -43 -3 -52 8 -10 12 2 15 87 18 54 1 110 4
125 5 15 1 30 -2 33 -8z m1852 -6 c18 -47 -52 -163 -146 -240 -80 -67 -104
-70 -35 -6 82 77 154 182 154 225 0 6 -28 8 -78 5 -50 -4 -85 -2 -98 6 -15 9
0 12 81 17 55 3 104 6 108 7 4 1 10 -5 14 -14z m257 6 c26 -9 26 -10 26 -130
0 -141 -9 -135 133 -96 48 13 87 22 87 20 0 -18 -222 -90 -241 -79 -5 4 -9 62
-9 130 0 112 -2 125 -20 138 -11 8 -17 17 -13 20 8 9 7 9 37 -3z m1054 -122
c3 -150 -6 -142 128 -103 48 14 89 23 91 21 6 -6 -104 -54 -164 -72 -83 -24
-83 -24 -83 124 0 123 -1 130 -22 146 -23 16 -23 16 12 13 l35 -2 3 -127z
m-4543 100 c-19 -63 -61 -139 -92 -169 l-36 -34 27 36 c23 32 76 146 76 165 0
4 -31 4 -68 1 -38 -3 -75 -2 -82 3 -10 6 14 10 65 13 44 1 88 4 98 5 15 2 17
-3 12 -20z m5162 -4 c5 -14 -236 -25 -251 -12 -6 4 33 8 85 8 51 0 101 5 109
10 19 13 52 9 57 -6z m-6610 -35 c15 -15 5 -39 -17 -39 -22 0 -32 24 -17 39 6
6 14 11 17 11 3 0 11 -5 17 -11z m2400 -1 c-3 -9 -34 -13 -108 -13 -57 0 -110
-4 -116 -8 -7 -4 -23 -2 -35 5 -20 11 -9 14 92 19 63 3 128 6 143 7 19 1 27
-2 24 -10z m1453 -4 c0 -15 -12 -16 -99 -12 -55 3 -106 1 -115 -4 -10 -6 -24
-4 -38 4 -20 11 -9 14 87 19 61 3 122 6 138 7 19 1 27 -3 27 -14z m2708 -24
c43 -26 46 -78 6 -109 -40 -32 -126 -29 -159 4 -27 26 -31 54 -14 86 22 42
113 52 167 19z m-4352 -65 c-50 -50 -11 -135 63 -135 10 0 30 9 45 21 31 24
36 81 9 111 -9 10 -11 18 -5 18 6 0 20 -12 32 -27 16 -21 20 -36 16 -62 -7
-44 -23 -60 -70 -71 -73 -16 -136 21 -136 81 0 27 34 79 51 79 6 0 4 -7 -5
-15z m1450 -7 c-52 -73 38 -164 111 -113 29 21 38 68 20 105 -15 28 -14 29 3
20 25 -13 41 -65 30 -95 -29 -77 -171 -76 -200 1 -11 28 2 72 27 92 24 18 26
15 9 -10z m-5561 -91 c-10 -46 -36 -68 -87 -74 -51 -6 -81 6 -104 42 -17 26
-11 65 11 65 17 0 25 -23 15 -41 -14 -21 18 -49 57 -49 62 0 97 62 68 121
l-16 34 31 -33 c26 -28 30 -39 25 -65z m6214 54 c9 -6 11 -14 4 -26 -8 -14 -1
-25 34 -58 24 -22 49 -49 54 -60 20 -36 -2 -30 -46 13 l-46 45 -22 -26 c-12
-15 -40 -39 -62 -55 -38 -28 -39 -28 -24 -5 14 22 14 26 -9 48 -13 13 -21 27
-17 31 3 4 14 -4 24 -17 l18 -23 31 48 c35 52 38 64 20 82 -9 9 -8 12 8 12 10
0 25 -4 33 -9z m-926 -31 c5 -4 1 -14 -8 -23 -14 -15 -12 -18 24 -37 22 -11
45 -20 52 -20 15 0 69 -39 69 -51 0 -17 -20 -9 -94 36 l-74 45 -59 -38 c-63
-41 -118 -68 -108 -53 3 6 29 23 58 40 61 35 118 91 100 98 -7 3 -13 9 -13 15
0 10 39 2 53 -12z m748 10 c14 -8 17 -15 10 -28 -4 -9 -7 -22 -4 -28 4 -12
-90 -104 -108 -104 -6 0 12 25 40 56 52 56 61 80 39 102 -15 15 -3 16 23 2z
m3094 -4 c71 -30 69 -103 -2 -133 -45 -18 -153 -14 -198 8 -25 12 -30 21 -33
55 -2 25 2 45 10 51 42 33 164 43 223 19z m-7222 -18 c7 -21 -4 -38 -23 -38
-10 0 -20 6 -23 13 -7 20 4 37 23 37 10 0 20 -6 23 -12z m-1001 -55 l3 -48
124 0 c91 0 125 -3 128 -12 6 -18 -248 -18 -265 -1 -7 7 -12 28 -12 48 0 28
-5 39 -22 48 -22 10 -21 11 9 11 31 1 32 0 35 -46z m2810 0 l3 -48 124 0 c91
0 125 -3 128 -12 6 -18 -248 -18 -265 -1 -7 7 -12 27 -12 44 0 23 -7 38 -22
48 -22 16 -22 16 9 16 31 0 32 -1 35 -47z m4648 -8 l5 -40 124 0 c92 0 125 -3
129 -13 3 -10 -26 -12 -135 -10 l-138 3 -3 35 c-2 21 -12 42 -25 53 l-22 17
30 -2 c27 -3 31 -7 35 -43z m-8662 -1410 c-9 -21 -8 -28 5 -38 21 -15 7 -40
-19 -35 -26 4 -29 42 -7 72 23 33 36 33 21 1z m395 8 c11 -6 8 -415 -3 -433
-6 -10 -10 55 -10 192 0 174 -2 209 -16 222 -8 9 -20 16 -25 16 -5 0 -9 5 -9
10 0 9 42 5 63 -7z m1200 0 c11 -6 8 -415 -3 -433 -6 -10 -10 55 -10 192 0
174 -2 209 -16 222 -8 9 -20 16 -25 16 -5 0 -9 5 -9 10 0 9 42 5 63 -7z m1128
7 c18 -10 19 -23 19 -210 0 -109 -3 -205 -6 -214 -18 -46 -24 4 -24 193 0 205
0 209 -22 224 -20 14 -21 16 -5 16 10 1 27 -4 38 -9z m428 -5 l24 -7 -5 -210
c-4 -136 -9 -213 -17 -221 -8 -8 -11 42 -11 198 l0 209 -27 24 c-29 24 -26 25
36 7z m435 5 c24 -9 26 -14 26 -77 0 -99 -11 -203 -21 -197 -5 3 -9 61 -9 129
l0 124 -27 15 c-32 18 -10 22 31 6z m449 -7 c11 -6 8 -415 -3 -433 -6 -10 -10
55 -10 192 0 174 -2 209 -16 222 -8 9 -20 16 -25 16 -5 0 -9 5 -9 10 0 9 42 5
63 -7z m551 7 c24 -9 26 -14 26 -74 l0 -65 35 6 c28 4 35 2 35 -11 0 -12 -10
-16 -40 -16 l-40 0 0 -50 c0 -27 -4 -50 -10 -50 -6 0 -10 47 -10 120 l0 119
-27 15 c-32 18 -10 22 31 6z m1025 -1 l31 -11 0 -198 c0 -109 -3 -205 -6 -214
-18 -46 -24 3 -24 189 0 194 -1 205 -20 217 -11 7 -20 16 -20 20 0 10 1 10 39
-3z m460 -13 c11 -9 13 -48 8 -214 -3 -128 -9 -208 -16 -215 -8 -8 -11 47 -11
201 l0 212 -25 12 c-14 6 -25 15 -25 20 0 10 50 -1 69 -16z m415 14 l26 -10 0
-199 c0 -110 -3 -206 -6 -215 -15 -40 -24 -8 -24 88 0 96 -2 105 -20 111 -11
4 -33 4 -48 1 -15 -3 -34 -2 -42 4 -11 7 3 10 48 10 l62 0 0 95 c0 52 -4 95
-8 95 -5 0 -17 7 -28 15 -17 12 -17 14 -2 15 9 0 28 -4 42 -10z m430 0 c26
-10 26 -10 26 -134 0 -133 -17 -185 -22 -69 l-3 68 -38 -3 c-20 -2 -45 2 -55
7 -13 8 -5 10 36 11 l52 0 0 50 c0 28 -4 50 -8 50 -5 0 -17 7 -28 15 -17 12
-17 14 -2 15 9 0 28 -4 42 -10z m525 -1 l31 -11 0 -99 c0 -54 3 -99 6 -99 3 0
14 4 24 10 20 11 50 4 50 -11 0 -5 -18 -9 -40 -9 l-40 0 0 -109 c0 -63 -4
-112 -10 -116 -7 -4 -10 67 -10 205 l0 210 -25 12 c-14 6 -25 15 -25 20 0 10
1 10 39 -3z m459 5 c21 -6 22 -10 22 -140 0 -83 -4 -134 -10 -134 -6 0 -10 48
-10 125 0 69 -4 125 -8 125 -5 0 -17 7 -28 15 -21 16 -8 20 34 9z m570 -9 c21
-6 22 -11 22 -106 0 -54 2 -99 5 -99 3 0 14 6 25 12 16 10 23 10 37 -5 16 -16
15 -17 -25 -17 l-42 0 0 -99 c0 -55 -3 -106 -6 -115 -17 -44 -24 15 -24 205 0
115 -4 209 -8 209 -5 0 -17 7 -28 16 -19 15 -19 15 1 10 11 -2 30 -7 43 -11z
m1025 -2 c4 -2 7 -49 7 -104 0 -54 3 -99 6 -99 3 0 14 4 24 10 20 11 50 4 50
-11 0 -5 -18 -9 -40 -9 l-40 0 0 -109 c0 -63 -4 -112 -10 -116 -7 -4 -10 67
-10 205 l0 210 -25 12 c-34 15 -32 30 3 22 15 -4 30 -9 35 -11z m426 6 c31
-11 31 -12 31 -80 0 -66 1 -69 19 -59 21 10 51 4 51 -11 0 -5 -18 -9 -40 -9
l-40 0 0 -56 c0 -34 -4 -53 -10 -49 -6 4 -10 57 -10 125 0 110 -1 119 -20 125
-11 3 -20 11 -20 16 0 11 0 11 39 -2z m905 5 c14 -5 16 -34 16 -219 0 -132 -4
-216 -10 -220 -7 -4 -10 63 -10 195 0 200 0 201 -25 225 -21 22 -22 25 -5 25
10 0 25 -3 34 -6z m374 -207 c1 -129 -1 -197 -8 -197 -6 0 -10 37 -10 95 l0
96 -37 -1 c-21 -1 -48 2 -60 5 -14 5 -23 3 -23 -3 0 -14 -107 -130 -134 -144
-11 -6 3 15 31 47 52 58 123 179 123 209 0 18 -52 22 -92 7 -16 -6 -32 -5 -48
4 -21 11 -13 13 75 17 55 2 101 3 103 2 2 -1 -6 -26 -18 -55 -11 -30 -20 -57
-20 -61 0 -5 20 -8 45 -8 l45 0 0 79 c0 58 -4 82 -15 91 -23 19 -18 29 13 21
l27 -7 3 -197z m63 203 c18 -10 19 -23 19 -210 0 -109 -3 -205 -6 -214 -18
-46 -24 4 -24 193 0 205 0 209 -22 224 -20 14 -21 16 -5 16 10 1 27 -4 38 -9z
m987 4 c22 -6 22 -9 22 -170 0 -103 -4 -164 -10 -164 -5 0 -10 23 -10 51 l0
52 -47 -6 c-27 -3 -57 -2 -68 3 -14 6 1 9 48 9 l68 1 -3 48 -3 47 -42 0 c-23
0 -45 3 -49 8 -4 4 16 7 44 7 l52 0 0 39 c0 31 -6 44 -27 60 -29 21 -19 26 25
15z m-11648 -56 c-58 -110 -60 -217 -4 -317 30 -54 25 -64 -9 -19 -64 83 -85
193 -51 261 22 44 78 127 86 127 3 0 -7 -24 -22 -52z m371 42 c16 -9 19 -22
19 -80 l0 -69 35 6 c28 4 35 2 35 -11 0 -12 -10 -16 -40 -16 l-40 0 0 -75 c0
-43 -4 -75 -10 -75 -6 0 -10 56 -10 149 0 143 -1 149 -22 164 -20 14 -21 16
-5 16 10 1 27 -4 38 -9z m4067 4 c22 -6 22 -9 22 -160 0 -91 -4 -155 -10 -159
-6 -4 -10 45 -10 139 l0 144 -27 21 c-29 21 -19 26 25 15z m5336 0 c39 -15 -5
-24 -120 -24 l-124 0 0 -51 0 -52 127 4 c95 3 127 1 130 -8 4 -10 -26 -13
-125 -13 -72 0 -137 3 -146 6 -12 5 -16 20 -16 59 0 47 -3 55 -22 62 -15 5 22
10 107 13 72 3 140 7 152 8 12 1 28 -1 37 -4z m1447 -4 c15 -9 19 -22 19 -68
l0 -58 35 4 c21 3 35 0 35 -7 0 -6 -17 -11 -40 -11 l-40 0 0 -50 c0 -27 -4
-50 -10 -50 -6 0 -10 43 -10 110 0 109 0 109 -27 124 -27 15 -27 15 -5 16 13
0 32 -5 43 -10z m-10703 -48 c45 -70 62 -115 62 -170 0 -52 -31 -125 -75 -177
-30 -34 -29 -32 10 50 50 104 43 205 -21 306 -13 21 -20 39 -15 39 5 0 23 -21
39 -48z m620 17 c2 -16 -5 -32 -19 -45 l-22 -19 12 23 c10 18 9 23 -4 28 -8 3
-15 15 -15 26 0 31 44 20 48 -13z m151 22 c9 -6 12 -25 10 -65 -4 -52 -2 -57
19 -63 12 -3 53 -3 90 1 126 11 135 11 139 -1 4 -10 -28 -13 -135 -13 -157 0
-152 -3 -152 77 0 32 -5 50 -17 59 -17 12 -16 13 7 14 14 0 31 -4 39 -9z m739
3 c22 -6 22 -8 22 -200 0 -118 -4 -195 -10 -199 -6 -4 -10 36 -10 113 0 114
-1 120 -21 125 -12 3 -34 3 -49 0 -16 -3 -36 0 -47 6 -14 8 -5 10 45 11 l62 0
0 59 c0 51 -3 62 -22 75 -24 17 -12 21 30 10z m6293 -24 c-3 -14 -5 -35 -5
-47 -1 -23 -4 -23 -119 -23 l-118 0 3 -32 3 -33 127 0 c69 0 130 -4 134 -8 4
-4 -59 -6 -142 -5 l-149 3 -3 37 c-2 26 -9 39 -23 43 -48 15 1 22 126 17 l135
-5 0 32 c0 31 0 31 -52 31 -29 0 -82 -5 -117 -10 -47 -6 -70 -6 -85 3 -17 10
4 13 119 18 182 7 171 8 166 -21z m1833 24 c14 -5 16 -33 16 -205 0 -126 -4
-199 -10 -199 -6 0 -10 42 -10 105 l0 105 -30 0 c-24 0 -30 -4 -30 -20 0 -65
-72 -114 -132 -91 -83 31 -90 198 -11 233 15 7 31 17 35 22 10 15 86 -52 100
-89 9 -26 18 -35 35 -35 22 0 23 4 23 72 0 52 -4 76 -17 90 -14 16 -14 18 0
18 8 0 22 -3 31 -6z m955 -5 l31 -11 0 -104 c0 -63 -4 -104 -10 -104 -5 0 -10
5 -10 10 0 6 -35 10 -85 10 -50 0 -85 -4 -85 -10 0 -5 -4 -10 -10 -10 -6 0
-10 36 -10 89 0 50 -4 93 -10 96 -22 14 -8 23 20 14 22 -8 30 -17 30 -35 0
-23 3 -24 70 -24 69 0 70 1 70 26 0 15 -10 34 -22 45 -27 21 -23 23 21 8z
m-7869 -14 c0 -8 9 -15 19 -15 30 0 78 -46 85 -80 15 -77 -48 -136 -137 -127
-68 6 -102 40 -102 103 0 39 5 50 33 75 18 16 44 29 58 29 19 0 25 4 20 15 -3
9 0 15 9 15 8 0 15 -7 15 -15z m1596 0 c4 -8 13 -15 21 -15 8 0 30 -15 49 -34
48 -48 47 -95 -1 -143 -34 -34 -38 -35 -92 -31 -48 4 -61 10 -85 37 -37 41
-38 88 -2 130 14 17 40 35 57 39 18 5 31 14 30 21 -4 17 17 13 23 -4z m-4561
-5 c13 -20 -18 -81 -63 -128 -43 -43 -148 -110 -157 -100 -3 2 23 26 57 54 60
47 128 125 128 146 0 6 -29 9 -72 7 -40 -1 -84 2 -98 7 -19 7 -1 10 80 15 58
3 108 6 112 7 4 1 10 -3 13 -8z m2105 -30 c25 0 70 -56 71 -88 3 -80 -15 -122
-65 -146 -19 -9 -39 -16 -46 -16 -28 0 -82 35 -96 62 -22 42 -20 115 3 147 11
14 34 32 51 40 18 8 32 22 33 30 0 12 4 10 16 -6 8 -13 23 -23 33 -23z m525
-58 l0 -92 -93 0 c-85 0 -94 -2 -99 -20 -13 -49 -23 -12 -23 85 0 93 -2 105
-17 107 -10 1 34 5 97 8 63 3 120 5 125 5 6 -1 10 -40 10 -93z m910 87 c35 12
75 8 75 -10 0 -5 -38 -9 -85 -9 l-85 0 0 -73 c0 -41 2 -76 5 -79 3 -2 44 1 93
8 48 8 94 13 102 13 31 -1 -124 -39 -168 -42 l-47 -2 -3 88 c-2 66 -6 89 -17
94 -33 12 -2 19 45 9 37 -7 59 -7 85 3z m1935 -4 c0 -21 -99 -21 -126 0 -17
13 -12 14 54 15 57 0 72 -3 72 -15z m456 -16 c-3 -17 -6 -44 -6 -60 l0 -29
-70 0 -70 0 0 -40 c0 -32 4 -40 18 -40 18 0 112 15 160 25 12 3 22 1 22 -3 0
-13 -106 -41 -165 -44 l-50 -3 -5 59 c-4 47 -9 61 -25 67 -11 5 22 5 73 2 l92
-6 0 42 0 42 -75 -2 c-49 -2 -79 1 -87 9 -9 9 10 12 91 12 l104 0 -7 -31z
m1014 21 c0 -6 -27 -10 -61 -10 -51 0 -60 -2 -50 -14 8 -10 8 -21 1 -41 -13
-33 -2 -48 51 -76 35 -17 69 -53 69 -71 0 -16 -17 -7 -76 41 l-61 50 -59 -60
c-72 -73 -92 -78 -30 -7 56 64 92 129 83 152 -5 12 -17 16 -45 15 -21 -2 -45
2 -52 7 -14 8 13 11 198 22 17 1 32 -2 32 -8z m1507 -47 c-3 -18 -13 -48 -21
-65 -9 -17 -16 -33 -16 -36 0 -2 27 -30 60 -62 33 -32 60 -65 60 -74 0 -26
-16 -19 -46 22 -15 20 -40 51 -55 69 l-27 32 -41 -63 c-47 -74 -90 -115 -52
-51 56 93 71 123 91 185 20 58 20 65 6 76 -26 18 -19 24 15 12 28 -10 31 -14
26 -45z m479 26 c-3 -17 -6 -44 -6 -60 l0 -29 -75 0 -75 0 0 -40 c0 -22 1 -40
3 -40 2 0 52 7 112 15 59 9 110 13 112 11 7 -7 -90 -34 -165 -47 -75 -13 -82
-9 -82 60 0 30 -6 48 -17 57 -15 11 -3 12 75 7 l92 -6 0 43 0 42 -72 -2 c-112
-4 -124 3 -18 10 52 3 101 7 109 8 10 2 12 -6 7 -29z m-4871 11 c22 -35 -63
-145 -148 -194 -80 -46 -92 -38 -20 13 63 45 133 126 133 154 0 5 -33 8 -72 6
-40 -1 -84 2 -98 7 -19 7 -1 10 80 15 58 3 108 6 112 7 4 1 10 -3 13 -8z
m2330 -10 c-3 -4 9 -10 25 -14 41 -8 70 -57 70 -119 0 -67 -21 -102 -73 -122
-40 -15 -48 -15 -80 -2 -49 21 -70 56 -71 122 0 65 24 105 72 120 18 5 32 15
32 22 0 7 7 10 15 7 8 -4 13 -10 10 -14z m-6959 -7 c-3 -10 -6 -64 -8 -120 -3
-90 -5 -103 -20 -103 -16 0 -18 12 -18 105 l0 105 -76 0 -75 0 1 -112 c2 -150
2 -158 -10 -158 -6 0 -10 52 -10 135 0 120 -2 136 -17 143 -10 4 32 9 92 13
61 3 118 6 128 7 13 1 17 -3 13 -15z m1204 7 c0 -6 -28 -10 -65 -10 -66 0 -76
-4 -51 -24 13 -10 13 -17 0 -54 -14 -41 -14 -43 10 -75 14 -19 36 -39 50 -46
22 -12 46 -49 46 -72 0 -19 -16 -5 -69 59 -28 34 -55 62 -59 62 -4 0 -16 -15
-26 -34 -10 -18 -38 -53 -63 -77 -52 -49 -51 -49 9 41 48 72 85 168 74 195 -5
14 -14 17 -45 12 -21 -2 -46 0 -57 7 -15 9 2 12 86 17 58 3 117 6 133 7 15 1
27 -2 27 -8z m4467 -22 c-4 -18 -7 -72 -9 -120 -2 -77 -4 -88 -20 -88 -16 0
-18 11 -18 105 l0 105 -76 0 -75 0 1 -112 c2 -151 2 -160 -10 -153 -6 4 -10
60 -10 136 0 114 -2 130 -17 137 -10 4 32 9 92 13 61 3 118 6 129 7 15 2 17
-3 13 -30z m2381 26 c47 -13 18 -24 -63 -24 l-85 0 0 -120 c0 -108 2 -120 18
-120 23 1 162 26 187 35 15 5 17 4 5 -3 -25 -16 -210 -64 -226 -58 -11 4 -14
32 -14 135 0 113 -2 131 -17 141 -14 8 -2 9 47 5 36 -4 76 -2 90 4 31 12 30
12 58 5z m3796 -2 c20 -33 -101 -171 -185 -211 -32 -16 -37 -17 -19 -4 55 39
105 91 137 140 18 29 33 55 33 59 0 4 -35 4 -79 1 -43 -2 -84 -1 -92 4 -8 5
23 9 81 12 52 1 100 4 107 5 6 1 14 -2 17 -6z m-9740 -8 c13 -5 16 -26 16
-125 0 -140 -16 -131 150 -93 45 10 8 -13 -64 -40 -105 -40 -106 -38 -106 109
0 117 -1 125 -22 139 -17 12 -19 16 -6 16 9 0 23 -3 32 -6z m4006 -54 c0 -6
-29 -10 -67 -10 -48 0 -64 -3 -56 -11 7 -7 8 -21 0 -45 -10 -31 -8 -37 19 -65
16 -17 39 -35 51 -40 22 -8 61 -69 45 -69 -5 0 -36 26 -69 58 l-60 57 -58 -63
c-31 -34 -60 -61 -62 -58 -3 3 15 31 40 63 55 71 89 137 81 157 -4 11 -14 14
-37 9 -18 -3 -34 -6 -37 -6 -3 -1 -16 3 -30 9 -20 7 -3 10 75 15 55 3 115 6
133 7 17 1 32 -2 32 -8z m4010 -60 c8 -5 12 -11 10 -14 -8 -7 -399 -10 -407
-3 -3 4 68 7 158 7 90 0 171 5 179 10 19 12 41 12 60 0z m-8243 -47 c3 -9 -40
-13 -174 -15 -98 -2 -187 0 -198 4 -11 4 51 7 137 7 99 1 159 5 163 12 9 14
67 7 72 -8z m6790 -10 c3 -9 -43 -13 -179 -15 -101 -2 -192 0 -203 4 -11 4 52
7 140 8 88 0 167 5 175 10 19 13 62 9 67 -7z m-4410 -29 c40 -5 42 -6 38 -35
-3 -16 -7 -42 -9 -58 -3 -15 0 -33 7 -40 8 -8 -18 -11 -106 -11 -71 0 -117 -4
-117 -10 0 -5 -4 -10 -10 -10 -6 0 -10 31 -10 74 0 58 -3 75 -16 80 -55 21 83
27 223 10z m5818 -39 l0 -45 -117 0 -118 0 0 -32 0 -31 131 6 c100 5 130 4
126 -6 -4 -13 -197 -23 -254 -12 -30 5 -33 9 -33 41 0 29 -5 37 -22 42 -13 4
38 9 112 12 133 5 135 5 138 29 l4 23 -119 -2 c-166 -4 -175 3 -13 10 74 3
142 7 150 8 12 2 15 -8 15 -43z m1439 3 l-2 -43 -112 -3 -111 -3 3 -27 3 -27
122 0 c160 0 171 -19 13 -23 -147 -4 -160 0 -160 39 0 22 -5 32 -20 36 -11 3
-20 10 -20 15 0 6 50 7 130 2 l130 -7 0 27 0 27 -107 -1 c-159 -2 -176 14 -23
20 69 3 132 7 141 8 12 2 15 -7 13 -40z m-4978 22 l103 0 -2 -65 -2 -65 -109
0 c-92 0 -111 -3 -122 -17 -12 -16 -13 -9 -14 49 0 58 -3 69 -21 79 -18 9 -19
13 -8 20 8 5 27 7 43 4 16 -3 75 -5 132 -5z m3065 4 l36 -6 -9 -42 c-5 -22 -7
-51 -5 -63 4 -23 3 -23 -101 -23 -88 0 -107 -3 -118 -17 -12 -16 -13 -8 -14
54 0 63 -2 72 -20 78 -11 3 -20 11 -20 16 0 10 193 12 251 3z m-6351 -18 c40
-14 61 -56 44 -84 -19 -32 -76 -52 -144 -52 -104 0 -164 40 -145 96 13 35 60
52 145 52 36 0 81 -5 100 -12z m4360 -61 c0 -43 -4 -75 -10 -75 -6 0 -10 27
-10 61 l0 60 -124 -2 c-173 -3 -186 15 -16 21 74 3 141 7 148 8 9 1 12 -19 12
-73z m-3113 49 c18 -5 23 -14 25 -53 l3 -46 128 2 c96 1 127 -1 124 -10 -4
-13 -188 -22 -244 -12 -31 6 -33 8 -33 49 0 34 -5 47 -22 59 -24 17 -17 21 19
11z m-4039 -59 l3 -48 118 6 c65 3 124 1 132 -3 25 -16 -13 -21 -142 -18
l-124 3 -5 43 c-4 33 -11 47 -30 58 -25 14 -25 14 10 11 34 -3 35 -4 38 -52z
m1134 8 l3 -48 125 0 c168 0 172 -19 5 -23 -148 -3 -165 3 -165 57 0 29 -5 40
-22 49 -21 10 -20 11 14 11 l37 1 3 -47z m6776 41 c19 -5 22 -13 22 -52 l0
-45 131 6 c100 5 130 4 126 -6 -5 -16 -239 -22 -267 -7 -14 7 -20 21 -20 45 0
24 -7 39 -22 49 -24 17 -12 21 30 10z m3384 -41 l3 -48 128 2 c96 1 127 -1
124 -10 -2 -8 -41 -13 -118 -15 -152 -4 -159 -2 -159 48 0 29 -6 43 -22 54
-22 16 -22 16 9 16 31 0 32 -1 35 -47z m-8112 22 c-30 -8 -95 -20 -144 -28
-82 -12 -90 -12 -110 4 -21 18 -19 18 54 20 41 0 98 4 125 9 28 4 68 7 90 8
39 0 39 0 -15 -13z m1600 0 c-30 -8 -95 -20 -144 -28 -82 -12 -90 -12 -110 4
-21 18 -19 18 54 20 41 0 98 4 125 9 28 4 68 7 90 8 39 0 39 0 -15 -13z m1528
-17 c18 -18 15 -43 -9 -69 l-20 -24 6 23 c4 13 1 29 -5 37 -13 15 -7 45 8 45
4 0 13 -5 20 -12z m-6789 -542 c11 -9 13 -48 8 -214 -3 -128 -9 -208 -16 -215
-8 -8 -11 47 -11 201 l0 212 -25 12 c-14 6 -25 15 -25 20 0 10 50 -1 69 -16z
m410 13 l31 -11 0 -203 c0 -112 -3 -210 -6 -219 -17 -44 -24 15 -24 204 0 200
-1 209 -20 215 -11 3 -20 11 -20 16 0 11 0 11 39 -2z m575 1 c24 -9 26 -14 26
-69 l0 -60 36 6 c29 5 36 3 32 -8 -2 -8 -21 -15 -41 -17 -35 -3 -37 -5 -37
-38 0 -19 -4 -34 -10 -34 -6 0 -10 40 -10 100 0 55 -4 100 -8 100 -5 0 -17 7
-28 15 -17 12 -17 14 -2 15 9 0 28 -4 42 -10z m1035 -5 l24 -7 -5 -210 c-4
-136 -9 -213 -17 -221 -8 -8 -11 42 -11 198 l0 209 -27 24 c-29 24 -26 25 36
7z m440 0 l24 -7 -5 -210 c-4 -136 -9 -213 -17 -221 -8 -8 -11 42 -11 198 l0
209 -27 24 c-29 24 -26 25 36 7z m444 -2 c11 -6 8 -415 -3 -433 -6 -10 -10 55
-10 192 0 174 -2 209 -16 222 -8 9 -20 16 -25 16 -5 0 -9 5 -9 10 0 9 42 5 63
-7z m1370 -9 c68 -20 93 -47 78 -86 -13 -34 -62 -52 -141 -52 -89 0 -124 18
-128 66 -3 30 1 40 22 53 14 10 42 17 61 17 28 0 35 3 31 15 -4 9 -1 13 6 10
7 -3 39 -13 71 -23z m1091 20 c13 -5 16 -26 16 -130 0 -76 -4 -124 -10 -124
-5 0 -10 13 -10 30 0 28 -1 29 -44 27 -40 -2 -45 -5 -51 -32 -6 -21 -9 -25
-12 -12 -4 14 -17 17 -89 17 -49 0 -84 -4 -84 -10 0 -5 -4 -10 -10 -10 -6 0
-10 38 -10 93 0 59 -4 97 -12 105 -9 9 -8 12 4 12 32 0 48 -12 48 -36 0 -23 3
-24 70 -24 68 0 70 1 70 25 0 15 -9 29 -22 36 -29 16 -9 23 25 10 20 -8 27
-18 27 -36 0 -23 4 -25 45 -25 43 0 45 1 45 30 0 22 -7 33 -27 44 -26 14 -26
15 -6 16 12 0 28 -3 37 -6z m1455 -9 l24 -7 -5 -210 c-4 -136 -9 -213 -17
-221 -8 -8 -11 42 -11 198 l0 209 -27 24 c-29 24 -26 25 36 7z m999 9 c20 -6
22 -12 22 -75 l0 -68 35 2 c47 3 49 -17 3 -21 l-38 -3 0 -50 c0 -27 -4 -49
-10 -49 -6 0 -10 45 -10 114 0 113 0 115 -27 135 -29 21 -19 26 25 15z m421
-5 l31 -11 0 -99 c0 -54 3 -99 6 -99 3 0 14 4 24 10 20 11 50 4 50 -11 0 -5
-18 -9 -40 -9 l-40 0 0 -102 c0 -57 -5 -110 -10 -118 -6 -10 -10 55 -10 192 0
174 -2 209 -16 222 -8 9 -20 16 -25 16 -5 0 -9 5 -9 10 0 12 0 12 39 -1z
m1059 5 c22 -6 22 -7 22 -209 0 -112 -3 -210 -6 -219 -18 -46 -24 4 -24 193 0
205 0 209 -22 224 -25 17 -12 22 30 11z m441 -18 c11 -9 13 -48 8 -214 -3
-128 -9 -208 -16 -215 -8 -8 -11 47 -11 201 l0 212 -25 12 c-14 6 -25 15 -25
20 0 10 50 -1 69 -16z m425 14 c24 -9 26 -14 26 -77 0 -97 -11 -203 -21 -203
-5 0 -9 59 -9 130 0 72 -4 130 -8 130 -5 0 -17 7 -28 15 -17 12 -17 14 -2 15
9 0 28 -4 42 -10z m314 0 c9 -5 36 -14 59 -20 23 -6 49 -17 58 -26 20 -21 19
-57 -3 -77 -26 -24 -120 -39 -168 -28 -36 8 -34 9 33 10 97 1 123 12 123 51 0
39 -27 50 -123 50 -76 0 -117 -16 -117 -47 0 -9 -2 -14 -5 -11 -4 3 -3 17 0
31 7 28 42 47 87 47 23 0 29 4 24 15 -6 17 7 19 32 5z m-9683 -20 c-3 -4 9
-10 25 -14 39 -7 73 -60 65 -101 -12 -67 -88 -101 -159 -71 -37 16 -56 46 -56
92 0 31 50 84 79 84 12 0 21 6 21 15 0 9 6 12 15 9 8 -4 13 -10 10 -14z m522
7 c4 -8 26 -17 48 -20 43 -7 85 -45 85 -77 0 -10 -11 -32 -24 -47 -23 -27 -28
-28 -120 -28 -85 0 -98 2 -117 22 -27 27 -29 75 -4 103 9 10 36 23 59 28 23 5
40 14 39 20 -4 16 24 15 34 -1z m2571 7 c20 -6 22 -12 22 -80 l0 -73 35 2 c47
3 49 -17 3 -21 l-38 -3 0 -75 c0 -43 -4 -74 -10 -74 -6 0 -10 57 -10 150 l0
149 -27 15 c-29 16 -16 20 25 10z m1909 -16 c8 -7 13 -36 13 -80 0 -65 1 -68
19 -58 21 10 51 4 51 -11 0 -5 -18 -9 -40 -9 l-40 0 0 -80 c0 -47 -4 -80 -10
-80 -6 0 -10 58 -10 155 0 85 -4 155 -8 155 -5 0 -17 7 -28 16 -18 15 -18 15
11 9 16 -4 36 -11 42 -17z m551 16 c21 -6 22 -11 22 -105 0 -101 3 -109 40
-89 20 11 50 4 50 -11 0 -5 -18 -9 -40 -9 l-40 0 0 -99 c0 -55 -3 -106 -6
-115 -17 -44 -24 14 -24 199 l0 204 -27 15 c-29 16 -16 20 25 10z m-2866 -25
c-2 -7 -9 -41 -17 -74 l-13 -60 -1 63 -1 64 -127 -3 c-72 -2 -135 1 -143 6
-10 7 32 12 135 15 174 6 171 7 167 -11z m1458 9 c0 -4 -58 -8 -130 -8 l-130
0 0 -31 0 -31 88 5 c48 3 98 8 112 12 16 4 32 1 45 -9 18 -14 9 -15 -107 -16
l-128 0 0 -32 0 -31 125 6 c79 4 125 3 125 -3 0 -6 -55 -10 -139 -10 -157 0
-151 -3 -151 81 0 35 -4 51 -15 55 -37 15 -4 19 145 20 88 0 160 -3 160 -8z
m727 -11 c-6 -18 -147 -7 -147 11 0 4 34 6 76 4 52 -3 74 -7 71 -15z m1583 -8
c-5 -18 -7 -36 -4 -40 3 -5 -49 -9 -115 -9 l-121 0 0 -31 0 -32 128 4 c79 3
128 0 130 -6 3 -14 -243 -19 -268 -5 -12 6 -20 21 -20 36 0 13 -7 27 -15 30
-42 16 -2 24 125 24 l140 0 0 25 c0 24 -3 25 -57 25 -32 0 -85 -5 -118 -10
-61 -10 -95 -6 -95 11 0 5 64 9 149 9 l150 0 -9 -31z m1988 8 c15 -12 17 -364
2 -387 -7 -10 -10 20 -10 95 0 124 -5 133 -70 129 -19 -1 -61 -3 -92 -3 l-58
-1 0 -65 c0 -36 1 -65 3 -65 1 0 38 7 81 15 44 8 81 13 84 10 6 -6 -4 -9 -95
-30 -40 -9 -77 -14 -82 -10 -6 3 -11 35 -11 70 0 55 -3 66 -22 80 -22 15 -19
16 57 13 l80 -3 3 54 3 54 -58 -5 c-32 -3 -67 -2 -78 3 -13 5 0 8 41 8 34 1
75 4 92 7 l30 6 -9 -38 c-4 -22 -9 -50 -9 -64 0 -24 3 -25 45 -22 l45 4 0 69
c0 53 -4 71 -15 75 -8 4 -15 10 -15 14 0 10 40 1 58 -13z m-6528 -2 c0 -8 9
-15 19 -15 30 0 78 -46 85 -80 15 -77 -48 -136 -137 -127 -68 6 -102 40 -102
103 0 39 5 50 33 75 18 16 44 29 58 29 19 0 25 4 20 15 -3 9 0 15 9 15 8 0 15
-7 15 -15z m1086 -38 c-11 -54 -56 -105 -132 -153 -41 -25 -78 -44 -84 -42 -6
2 21 27 59 55 59 44 131 126 131 148 0 4 -37 5 -82 3 -46 -1 -90 2 -98 7 -11
7 16 11 90 15 58 3 109 3 114 1 4 -2 5 -17 2 -34z m2887 34 c4 -1 7 -5 7 -11
0 -15 -123 -12 -144 3 -14 10 -5 12 56 10 40 -1 76 -2 81 -2z m899 -8 c20 -3
51 0 68 6 34 11 80 5 80 -10 0 -5 -38 -9 -85 -9 l-85 0 0 -80 c0 -78 1 -80 23
-76 62 13 169 27 173 23 6 -6 -164 -47 -194 -47 -27 0 -32 18 -32 111 0 65 -3
79 -16 79 -8 0 -12 5 -9 11 4 6 14 7 24 4 9 -4 33 -9 53 -12z m1310 12 c3 -3
0 -29 -7 -58 -7 -29 -15 -73 -19 -98 l-7 -46 38 1 c60 2 49 -19 -12 -22 l-55
-3 0 -39 c0 -22 -4 -40 -10 -40 -5 0 -10 -20 -10 -44 0 -25 -4 -48 -10 -51 -6
-4 -10 30 -10 94 l0 101 -60 0 -60 0 0 -94 c0 -53 -4 -98 -10 -101 -6 -4 -10
28 -10 89 l0 95 -49 -2 c-29 -1 -55 3 -62 11 -10 10 18 12 143 12 179 0 166
-8 175 108 l6 72 -86 0 c-47 0 -98 -5 -112 -12 -20 -9 -31 -8 -52 3 -26 13
-17 14 112 19 77 3 145 7 151 8 6 1 13 0 16 -3z m642 -21 c3 -8 14 -14 24 -14
10 0 29 -12 43 -26 20 -22 24 -36 24 -90 0 -58 -3 -66 -32 -96 -63 -62 -159
-33 -182 55 -18 73 9 139 65 157 23 8 34 17 30 25 -3 9 0 12 9 9 7 -3 16 -12
19 -20z m382 9 c23 -3 58 0 78 7 36 12 76 6 76 -11 0 -5 -40 -9 -90 -9 l-90 0
0 -41 0 -42 48 8 c68 11 111 11 114 0 2 -6 -31 -11 -79 -13 l-83 -3 0 -41 0
-41 53 7 c28 3 78 10 110 14 31 5 57 5 57 1 0 -9 -168 -49 -209 -49 l-31 0 0
101 c0 92 -2 101 -20 106 -11 3 -17 10 -14 15 3 5 13 6 23 3 9 -4 35 -9 57
-12z m-1849 -5 c4 -7 22 -20 38 -28 62 -31 82 -132 40 -196 -24 -38 -78 -58
-119 -44 -50 16 -76 50 -82 107 -9 69 14 116 67 137 22 9 37 21 34 26 -3 6 -2
10 4 10 5 0 14 -6 18 -12z m-8145 -13 c2 -6 -37 -11 -94 -13 l-98 -3 0 -69 c0
-45 4 -70 13 -74 6 -3 1 -4 -13 -3 -24 2 -25 5 -28 76 -2 51 -8 78 -18 85 -10
8 19 11 111 11 73 0 126 -4 127 -10z m428 5 c0 -6 -28 -10 -65 -10 -65 0 -75
-6 -53 -28 9 -9 8 -21 -2 -51 -12 -38 -12 -42 15 -76 15 -20 37 -41 50 -47 30
-13 60 -78 37 -78 -5 0 -32 29 -60 65 -29 36 -56 65 -61 65 -4 0 -12 -10 -18
-22 -12 -27 -104 -131 -110 -125 -2 3 16 33 40 68 51 73 91 172 81 201 -5 17
-12 20 -43 15 -21 -2 -46 0 -57 7 -15 9 0 12 81 17 55 3 115 6 133 7 17 1 32
-2 32 -8z m1587 -110 c-2 -117 -3 -120 -24 -120 -22 0 -23 3 -23 105 l0 105
-70 0 -70 0 -1 -117 c-1 -153 -13 -188 -22 -64 -4 52 -7 116 -7 143 0 31 -4
49 -12 50 -7 1 34 5 92 8 58 3 113 7 122 8 15 2 16 -11 15 -118z m443 110 c0
-6 -29 -10 -67 -10 -65 0 -66 0 -48 -20 17 -19 17 -22 2 -62 l-17 -42 53 -51
c63 -59 93 -105 68 -105 -5 0 -35 31 -68 69 l-58 70 -14 -27 c-18 -36 -100
-132 -112 -132 -6 0 10 29 35 64 51 70 99 186 89 212 -5 13 -15 15 -47 11 -27
-4 -47 -1 -60 8 -17 13 -7 15 85 18 57 1 116 4 132 5 15 1 27 -2 27 -8z m3890
-14 c0 -64 -72 -175 -152 -234 -85 -62 -87 -59 -12 19 79 82 119 139 130 183
l7 29 -80 -5 c-51 -4 -86 -2 -99 6 -15 9 0 12 81 17 55 3 106 6 113 7 7 1 12
-8 12 -22z m-547 -11 c-3 -12 -232 -24 -253 -13 -8 4 28 8 80 8 52 1 104 5
115 10 25 11 61 8 58 -5z m-2409 -15 c23 -8 26 -15 26 -54 l0 -44 54 -6 c34
-5 63 -3 75 4 21 11 71 4 71 -10 0 -13 -371 -17 -395 -5 -15 8 0 11 68 13 l87
3 0 43 c0 35 -4 45 -22 54 -30 14 0 16 36 2z m3426 -20 c0 -6 -29 -10 -66 -10
-55 0 -65 -2 -55 -14 8 -10 8 -21 1 -41 -10 -25 -7 -31 22 -56 18 -16 40 -31
48 -34 19 -7 52 -53 48 -66 -2 -6 -34 16 -72 48 l-69 58 -64 -64 c-75 -75 -96
-75 -28 1 48 54 85 115 85 143 0 12 -8 16 -32 14 -18 -1 -42 2 -53 7 -14 6 8
11 75 15 52 3 110 6 128 7 17 1 32 -2 32 -8z m3634 -19 c-2 -3 -12 3 -22 13
-16 17 -16 18 5 5 12 -7 20 -15 17 -18z m-1541 12 c-7 -2 -21 -2 -30 0 -10 3
-4 5 12 5 17 0 24 -2 18 -5z m-3146 -37 c30 -35 29 -51 -6 -87 -25 -25 -37
-29 -84 -29 -49 0 -58 3 -81 31 -33 39 -33 54 4 91 29 28 35 30 87 26 46 -4
61 -10 80 -32z m3058 27 c-16 -2 -52 -8 -78 -13 -38 -8 -54 -7 -75 5 -25 13
-19 14 78 13 58 -1 92 -3 75 -5z m-4345 -43 c8 -5 12 -11 10 -14 -8 -7 -399
-10 -407 -3 -3 4 68 7 158 7 90 0 171 5 179 10 19 12 41 12 60 0z m6250 0 c8
-5 12 -11 10 -14 -8 -7 -389 -10 -397 -3 -3 4 65 7 153 7 87 0 166 5 174 10
19 12 41 12 60 0z m-3336 -19 c6 -10 -355 -20 -389 -11 -11 3 57 7 150 10 94
3 184 7 202 8 17 1 34 -2 37 -7z m-2334 -11 c8 -5 12 -11 9 -14 -9 -9 -390 -9
-399 0 -5 5 57 8 152 6 103 -2 165 1 172 8 12 12 46 13 66 0z m-5054 -15 c17
-13 14 -14 -38 -15 l-58 0 0 -51 0 -51 68 6 c108 10 39 -11 -99 -30 -111 -15
-122 -15 -137 0 -15 15 -11 16 56 16 l72 0 0 60 c0 59 1 60 28 61 15 0 36 4
47 9 29 12 39 12 61 -5z m1569 0 c0 -12 -352 -24 -375 -13 -8 4 53 8 135 8 83
0 157 5 165 10 19 13 75 9 75 -5z m-512 -10 c2 -12 -89 -19 -112 -9 -11 6 0
10 34 15 62 8 76 7 78 -6z m-259 -25 c24 -9 26 -14 26 -79 l0 -70 31 11 c47
16 45 3 -2 -16 -53 -21 -59 -14 -59 77 0 53 -3 67 -15 67 -8 0 -15 5 -15 10 0
12 2 12 34 0z m7073 -6 c40 -5 42 -6 38 -35 -3 -16 -7 -42 -9 -58 -3 -15 0
-33 7 -40 8 -8 -18 -11 -106 -11 -71 0 -117 -4 -117 -10 0 -5 -4 -10 -10 -10
-6 0 -10 31 -10 74 0 58 -3 75 -16 80 -55 21 83 27 223 10z m-3442 -39 l0 -45
-117 0 -118 0 0 -32 0 -31 131 6 c100 5 130 4 126 -6 -2 -8 -40 -13 -123 -15
-150 -4 -164 0 -164 38 0 18 -8 34 -22 44 -20 14 -11 16 113 18 132 3 134 3
137 27 l4 23 -119 -2 c-166 -4 -175 3 -13 10 74 3 142 7 150 8 12 2 15 -8 15
-43z m1019 3 l-2 -43 -112 -3 -111 -3 3 -27 c3 -26 5 -27 77 -30 41 -2 87 2
101 8 28 12 80 4 80 -11 0 -5 -65 -9 -145 -9 l-145 0 0 33 c0 25 -6 37 -22 45
-18 8 8 11 115 11 131 1 137 2 137 21 0 20 -5 21 -112 20 -165 -2 -182 14 -23
20 72 3 137 7 146 8 12 2 15 -7 13 -40z m1888 36 c4 -3 3 -18 -2 -34 -5 -18
-4 -32 3 -39 8 -8 -22 -11 -111 -11 l-122 0 0 -31 0 -32 125 4 c79 3 125 0
125 -6 0 -14 -245 -19 -270 -5 -13 7 -20 21 -20 40 0 17 -7 33 -17 39 -13 7
21 10 120 11 132 0 137 1 137 21 0 19 -5 20 -118 18 -170 -3 -180 15 -12 21
74 3 140 7 146 8 6 1 13 -1 16 -4z m3348 -25 c-5 -16 -6 -37 -3 -45 4 -12 -15
-14 -117 -14 l-121 0 3 -27 3 -28 125 0 c168 0 172 -19 5 -23 -142 -3 -165 4
-165 49 0 21 -6 32 -22 39 -16 6 22 9 115 9 l137 1 0 26 0 26 -112 -2 c-162
-4 -167 3 -8 10 74 3 143 7 152 8 14 2 15 -3 8 -29z m-9570 12 c0 -10 -196
-20 -220 -11 -8 3 26 8 75 11 50 3 102 6 118 7 15 1 27 -2 27 -7z m3890 -87
c0 -47 -4 -73 -10 -69 -5 3 -10 33 -10 66 l0 59 -91 0 c-50 0 -99 -5 -109 -10
-20 -11 -70 5 -70 22 0 4 65 8 145 8 l145 0 0 -76z m5053 66 c-46 -10 -65 -29
-61 -59 4 -35 40 -51 118 -51 78 0 114 16 118 51 4 33 -18 51 -71 60 l-42 6
37 2 c77 2 120 -37 99 -91 -13 -36 -73 -52 -168 -46 -86 6 -123 26 -123 67 0
42 37 70 95 69 l30 0 -32 -8z m-6752 -14 c-20 -24 -9 -69 19 -83 36 -18 160
-17 188 3 24 17 30 62 10 82 -7 7 -8 12 -2 12 21 0 45 -38 42 -67 -5 -41 -54
-63 -146 -63 -89 0 -137 18 -146 55 -7 29 15 75 35 75 8 0 8 -5 0 -14z m-2019
-43 l3 -48 125 0 c163 0 174 -19 13 -23 -156 -4 -163 -2 -163 48 0 29 -6 43
-22 54 -22 16 -22 16 9 16 31 0 32 -1 35 -47z m2480 0 l3 -48 124 0 c91 0 125
-3 128 -12 6 -18 -248 -18 -265 -1 -7 7 -12 28 -12 48 0 28 -5 39 -22 48 -22
10 -21 11 9 11 31 1 32 0 35 -46z m-872 22 c-30 -8 -95 -20 -144 -28 -82 -12
-90 -12 -110 4 -21 18 -19 18 54 20 41 0 98 4 125 9 28 4 68 7 90 8 39 0 39 0
-15 -13z m2760 -30 l5 -40 124 0 c92 0 125 -3 129 -13 3 -10 -26 -12 -135 -10
l-138 3 -5 38 c-4 28 -12 43 -30 53 l-25 14 35 -2 c33 -3 35 -6 40 -43z
m-4572 8 c29 -40 2 -74 -64 -80 -43 -5 -54 -2 -81 21 l-32 27 21 24 c12 14 26
25 31 25 4 0 1 -7 -7 -16 -34 -34 -11 -64 49 -64 44 0 65 13 65 41 0 21 -13
30 -60 41 -28 6 -25 6 15 3 31 -3 55 -12 63 -22z m-1014 -519 c14 -5 16 -34
16 -219 0 -132 -4 -216 -10 -220 -7 -4 -10 63 -10 195 0 200 0 201 -25 225
-21 22 -22 25 -5 25 10 0 25 -3 34 -6z m850 0 c12 -5 16 -21 16 -75 l0 -68 35
2 c47 3 49 -17 3 -21 -38 -3 -38 -4 -38 -48 0 -24 5 -44 10 -44 6 0 10 -35 10
-85 0 -50 -4 -85 -10 -85 -5 0 -10 5 -10 10 0 6 -7 10 -15 10 -10 0 -15 11
-15 35 l0 35 -100 0 -100 0 0 -49 c0 -28 -4 -53 -10 -56 -6 -4 -10 22 -10 71
0 58 -4 82 -17 96 -18 20 -7 23 31 8 14 -5 26 -16 26 -25 0 -12 17 -15 100
-15 92 0 100 1 100 20 0 10 -8 24 -17 30 -13 8 -14 13 -5 16 8 4 12 36 12 110
0 103 0 103 -27 118 -26 14 -26 15 -6 16 12 0 28 -3 37 -6z m459 -11 c11 -6 8
-415 -3 -433 -6 -10 -10 55 -10 192 0 174 -2 209 -16 222 -8 9 -20 16 -25 16
-5 0 -9 5 -9 10 0 9 42 5 63 -7z m396 6 l31 -11 0 -99 c0 -54 3 -99 6 -99 3 0
14 4 24 10 20 11 50 4 50 -11 0 -5 -18 -9 -40 -9 l-40 0 0 -102 c0 -57 -5
-110 -10 -118 -6 -10 -10 55 -10 192 0 174 -2 209 -16 222 -8 9 -20 16 -25 16
-5 0 -9 5 -9 10 0 12 0 12 39 -1z m-1785 -15 c14 -5 16 -33 16 -205 0 -126 -4
-199 -10 -199 -6 0 -10 45 -10 116 l0 117 -39 -6 c-26 -3 -46 0 -58 9 -16 12
-12 13 35 14 l52 0 0 64 c0 56 -3 67 -22 80 l-22 16 21 0 c12 0 28 -3 37 -6z
m518 -1 c2 -5 -4 -37 -13 -73 l-18 -65 0 58 -1 59 -127 -3 c-72 -2 -135 1
-143 6 -10 7 30 12 130 15 80 3 150 7 157 8 6 1 13 -1 15 -5z m291 -2 c4 -1 7
-6 7 -12 0 -14 -135 -8 -149 6 -8 8 72 11 142 6z m-853 -41 c0 -5 -24 -10 -54
-10 -53 0 -78 -11 -55 -25 10 -7 6 -55 -7 -90 -3 -7 17 -35 45 -62 27 -27 53
-62 57 -78 7 -28 6 -29 -11 -15 -10 8 -36 39 -58 68 l-39 54 -45 -67 c-24 -37
-46 -65 -48 -63 -2 1 17 44 41 94 25 50 45 108 47 130 2 38 1 39 -33 39 -19 0
-42 5 -50 10 -11 7 9 12 70 16 47 3 97 6 113 7 15 1 27 -2 27 -8z m1158 -122
c3 -150 -7 -142 134 -103 50 15 93 24 96 21 2 -3 -6 -10 -19 -15 -13 -5 -52
-20 -86 -35 -33 -14 -80 -28 -102 -32 l-41 -7 0 136 0 136 -27 16 -28 15 35
-2 35 -3 3 -127z m576 126 c37 -14 11 -24 -64 -24 l-80 0 0 -121 0 -121 48 6
c114 16 118 16 57 -4 -33 -11 -76 -21 -95 -23 l-35 -2 -5 134 c-5 122 -7 135
-25 142 -12 6 8 7 50 3 39 -3 81 -1 95 5 31 12 35 12 54 5z m-826 -16 c-6 -17
-224 -28 -253 -13 -15 8 8 11 95 16 63 3 126 6 138 7 15 1 22 -3 20 -10z
m-520 -24 c19 -5 22 -13 22 -54 l0 -47 55 -7 c34 -4 64 -2 76 5 22 11 69 5 69
-10 0 -13 -359 -19 -390 -6 -20 8 -7 11 68 13 l92 3 0 38 c0 29 -6 43 -22 54
-25 17 -12 22 30 11z m476 -33 c22 -19 21 -88 -1 -99 -63 -33 -157 -19 -174
26 -13 33 2 69 33 82 31 13 123 7 142 -9z m-337 -53 c-3 -8 -6 -5 -6 6 -1 11
2 17 5 13 3 -3 4 -12 1 -19z m1273 -108 c-8 -5 -22 -9 -30 -9 -10 0 -8 3 5 9
27 12 43 12 25 0z m-1488 -22 c-7 -7 -12 -24 -12 -39 0 -43 32 -59 120 -59 88
0 120 16 120 59 0 15 -5 32 -12 39 -9 9 -9 12 0 12 21 0 45 -48 38 -76 -9 -35
-60 -54 -146 -54 -86 0 -137 19 -146 54 -7 28 17 76 38 76 9 0 9 -3 0 -12z
m1706 -66 c3 -16 -2 -22 -17 -22 -24 0 -35 15 -27 36 9 23 40 13 44 -14z
m10942 -1952 c0 -7 -8820 -10 -26440 -10 -17620 0 -26440 3 -26440 10 0 7
8820 10 26440 10 17620 0 26440 -3 26440 -10z"/>
<path d="M12600 36945 l0 -655 320 0 320 0 0 655 0 655 -320 0 -320 0 0 -655z"/>
<path d="M12920 34270 l0 -480 235 0 235 0 0 480 0 480 -235 0 -235 0 0 -480z"/>
<path d="M23326 30234 c-140 -43 -247 -173 -297 -361 -29 -106 -31 -328 -5
-423 40 -147 138 -275 253 -331 41 -21 63 -24 153 -24 98 0 110 2 173 32 128
61 225 190 263 349 22 93 22 296 0 388 -34 141 -122 273 -222 332 -89 53 -219
68 -318 38z"/>
<path d="M20833 29739 c-46 -13 -88 -61 -114 -127 -31 -79 -39 -279 -15 -372
30 -117 91 -180 173 -180 60 0 89 16 122 69 46 72 64 150 64 276 0 168 -38
287 -101 319 -39 19 -92 26 -129 15z"/>
<path d="M14547 29679 c-58 -14 -95 -36 -112 -69 -35 -68 -5 -138 74 -173 91
-40 323 -32 397 14 43 26 69 90 54 134 -25 76 -99 105 -265 104 -60 -1 -127
-5 -148 -10z"/>
<path d="M12425 29374 c-106 -16 -139 -27 -176 -61 -33 -30 -39 -42 -39 -75 0
-76 53 -117 176 -139 88 -15 265 -6 322 16 136 55 111 211 -39 244 -53 12
-203 21 -244 15z"/>
<path d="M16270 26979 c-57 -23 -76 -71 -49 -121 38 -71 266 -59 284 15 19 75
-23 111 -133 114 -42 2 -88 -2 -102 -8z"/>
<path d="M13494 26966 c-41 -18 -64 -52 -64 -94 0 -44 14 -68 50 -87 54 -28
136 -11 160 34 15 29 12 84 -6 110 -16 23 -71 51 -96 51 -7 -1 -27 -7 -44 -14z"/>
<path d="M14830 26953 c-63 -57 -44 -165 34 -191 49 -16 108 -1 130 33 9 14
16 45 16 75 0 44 -5 56 -29 81 -41 40 -107 41 -151 2z"/>
<path d="M23930 26825 l0 -65 90 0 90 0 0 65 0 65 -90 0 -90 0 0 -65z"/>
<path d="M18744 26951 c-64 -39 -71 -146 -13 -196 47 -39 111 -35 155 9 27 27
34 42 34 74 0 58 -15 89 -52 112 -41 25 -84 25 -124 1z"/>
<path d="M20684 26951 c-64 -39 -71 -146 -13 -196 47 -39 111 -35 155 9 27 27
34 42 34 74 0 58 -15 89 -52 112 -41 25 -84 25 -124 1z"/>
<path d="M12680 26850 l0 -110 90 0 90 0 0 110 0 110 -90 0 -90 0 0 -110z"/>
<path d="M19470 26790 l0 -140 100 0 100 0 0 140 0 140 -100 0 -100 0 0 -140z"/>
<path d="M24535 26815 c-30 -30 -32 -64 -4 -99 18 -23 27 -26 84 -26 57 0 66
3 84 26 28 35 26 69 -4 99 -20 21 -34 25 -80 25 -46 0 -60 -4 -80 -25z"/>
<path d="M17664 26641 c-64 -11 -96 -36 -92 -73 5 -55 44 -73 153 -73 80 0 98
3 122 21 21 16 28 30 28 55 0 29 -5 36 -35 51 -43 20 -121 29 -176 19z"/>
<path d="M21537 26641 c-55 -12 -87 -31 -94 -59 -8 -32 5 -53 48 -75 66 -35
247 -9 266 39 10 28 -7 62 -39 77 -41 19 -131 28 -181 18z"/>
<path d="M13313 25815 c-80 -34 -94 -196 -23 -267 21 -21 38 -28 67 -28 76 0
113 51 113 155 0 80 -19 121 -65 141 -42 17 -51 17 -92 -1z"/>
<path d="M17746 25719 c-57 -45 -11 -99 83 -99 69 0 101 19 101 60 0 41 -32
60 -101 60 -42 0 -63 -5 -83 -21z"/>
<path d="M15818 25655 c-54 -30 -60 -126 -11 -165 74 -58 164 20 133 115 -7
22 -23 41 -40 50 -35 18 -48 18 -82 0z"/>
<path d="M17800 25435 l0 -45 130 0 130 0 0 45 0 45 -130 0 -130 0 0 -45z"/>
<path d="M13941 25513 c-43 -22 -56 -43 -48 -75 16 -63 214 -85 294 -32 33 21
28 69 -10 98 -40 30 -186 35 -236 9z"/>
<path d="M15337 25521 c-128 -26 -127 -115 1 -142 91 -18 203 5 219 47 10 28
-7 62 -39 77 -41 19 -131 28 -181 18z"/>
<path d="M54090 10370 c-24 -24 -34 -62 -26 -95 11 -44 41 -65 91 -65 59 0 95
34 95 90 0 56 -36 90 -95 90 -31 0 -51 -6 -65 -20z"/>
<path d="M54670 10370 c-24 -24 -34 -62 -26 -95 11 -44 41 -65 91 -65 59 0 95
34 95 90 0 56 -36 90 -95 90 -31 0 -51 -6 -65 -20z"/>
<path d="M56380 8330 l0 -40 100 0 100 0 0 40 0 40 -100 0 -100 0 0 -40z"/>
<path d="M53437 8508 c-9 -7 -21 -28 -26 -45 l-10 -33 65 0 c73 0 88 14 63 59
-17 30 -64 40 -92 19z"/>
<path d="M57460 8350 l0 -50 35 0 35 0 0 50 0 50 -35 0 -35 0 0 -50z"/>
<path d="M60966 7746 c5 -13 -2 -16 -35 -16 l-41 0 0 -70 c0 -77 0 -77 63 -59
l38 10 -3 71 c-2 46 -7 73 -16 76 -7 2 -10 -2 -6 -12z"/>
<path d="M54229 7701 c-24 -25 -29 -37 -29 -81 0 -62 11 -85 50 -105 27 -14
33 -14 60 0 39 20 50 43 50 105 0 44 -5 56 -29 81 -16 16 -39 29 -51 29 -12 0
-35 -13 -51 -29z"/>
<path d="M59478 7713 c-54 -34 -66 -120 -23 -171 31 -37 55 -44 93 -25 71 34
70 168 -3 201 -33 15 -34 15 -67 -5z"/>
<path d="M60337 7642 c-36 -39 -13 -86 47 -98 50 -9 90 13 94 52 4 45 -19 64
-77 64 -34 0 -53 -5 -64 -18z"/>
<path d="M60980 7507 c-30 -10 -35 -17 -38 -47 -5 -48 16 -60 108 -60 90 0
120 15 120 61 0 25 -6 33 -35 45 -41 17 -107 17 -155 1z"/>
<path d="M62261 5931 c-44 -44 -37 -154 11 -180 62 -35 118 32 102 122 -11 70
-71 100 -113 58z"/>
<path d="M63270 5895 l0 -45 70 0 70 0 0 45 0 45 -70 0 -70 0 0 -45z"/>
<path d="M55479 5961 c-20 -20 -29 -39 -29 -61 0 -48 47 -90 100 -90 56 0 90
34 90 90 0 56 -34 90 -90 90 -33 0 -48 -6 -71 -29z"/>
<path d="M57079 5961 c-20 -20 -29 -39 -29 -61 0 -48 47 -90 100 -90 56 0 90
34 90 90 0 56 -34 90 -90 90 -33 0 -48 -6 -71 -29z"/>
<path d="M54599 5941 c-25 -25 -29 -37 -29 -81 0 -44 4 -56 29 -81 37 -36 79
-38 118 -5 25 22 28 31 28 86 0 55 -3 64 -28 86 -39 33 -81 31 -118 -5z"/>
<path d="M55030 5920 l0 -80 75 0 76 0 -3 78 -3 77 -72 3 -73 3 0 -81z"/>
<path d="M58938 5953 c-54 -34 -66 -120 -23 -171 31 -37 55 -44 93 -25 71 34
70 168 -3 201 -33 15 -34 15 -67 -5z"/>
<path d="M56100 5705 l0 -55 95 0 95 0 0 55 0 55 -95 0 -95 0 0 -55z"/>
<path d="M58440 5700 l0 -50 95 0 95 0 0 28 c0 15 3 37 6 50 6 22 5 22 -95 22
l-101 0 0 -50z"/>
<path d="M61440 5700 l0 -50 89 0 c98 0 101 2 101 66 l0 34 -95 0 -95 0 0 -50z"/>
<path d="M55095 5748 c-26 -15 -35 -28 -35 -55 0 -36 36 -53 112 -53 74 0 115
14 123 42 9 28 -3 54 -31 66 -32 15 -143 15 -169 0z"/>
<path d="M56123 5118 c-16 -7 -23 -20 -23 -38 0 -36 33 -50 120 -50 87 0 120
14 120 50 0 19 -7 30 -25 38 -32 15 -162 14 -192 0z"/>
<path d="M57280 5028 l0 -38 50 0 50 0 0 40 0 40 -50 -1 -50 -2 0 -39z"/>
<path d="M57100 5010 l0 -50 65 0 65 0 0 50 0 50 -65 0 -65 0 0 -50z"/>
<path d="M52770 5123 c-32 -12 -50 -37 -50 -70 0 -43 30 -73 74 -73 92 0 120
109 35 139 -35 12 -37 12 -59 4z"/>
<path d="M53222 5108 c-27 -13 -39 -53 -22 -73 29 -35 156 -44 210 -15 30 16
24 70 -10 87 -30 15 -146 16 -178 1z"/>
<path d="M54639 5081 c-20 -20 -29 -39 -29 -61 0 -48 47 -90 100 -90 56 0 90
34 90 90 0 56 -34 90 -90 90 -33 0 -48 -6 -71 -29z"/>
<path d="M61469 5061 c-25 -25 -29 -37 -29 -81 0 -44 4 -56 29 -81 31 -31 64
-36 104 -18 31 14 47 48 47 99 0 51 -16 85 -47 99 -40 18 -73 13 -104 -18z"/>
<path d="M60032 5074 c-52 -36 -66 -107 -32 -162 55 -90 150 -43 150 73 0 38
-5 52 -29 76 -33 33 -56 36 -89 13z"/>
<path d="M57546 5004 c-34 -33 -13 -90 37 -99 34 -7 87 8 99 28 13 20 9 55 -8
71 -10 10 -33 16 -64 16 -31 0 -54 -6 -64 -16z"/>
<path d="M59627 4873 c-4 -3 -7 -28 -7 -55 l0 -48 94 0 94 0 4 48 c3 26 3 50
1 55 -5 9 -177 10 -186 0z"/>
<path d="M52608 4149 c-28 -16 -23 -63 7 -77 37 -17 91 -15 109 4 22 21 20 61
-3 74 -25 13 -91 13 -113 -1z"/>
</g>
</svg>
