<svg width="28" height="28" viewBox="0 0 28 28" fill="none" xmlns="http://www.w3.org/2000/svg">
<g id="ic / main /28">
<path id="rectangle.3.group.fill" d="M3.26607 11.683C2.63758 11.683 2.16622 11.5228 1.85198 11.2022C1.53774 10.8817 1.38062 10.3978 1.38062 9.75043V5.42331C1.38062 4.77597 1.53774 4.29518 1.85198 3.98094C2.16622 3.66042 2.63758 3.50015 3.26607 3.50015H12.288C12.9164 3.50015 13.3878 3.66042 13.702 3.98094C14.0163 4.29518 14.1734 4.77597 14.1734 5.42331V9.75043C14.1734 10.3978 14.0163 10.8817 13.702 11.2022C13.3878 11.5228 12.9164 11.683 12.288 11.683H3.26607ZM8.21849 23.7504C7.59001 23.7504 7.1155 23.5901 6.79498 23.2696C6.48073 22.9553 6.32361 22.4745 6.32361 21.8272V15.183C6.32361 14.5294 6.48073 14.0455 6.79498 13.7312C7.1155 13.4107 7.59001 13.2504 8.21849 13.2504H11.6343C12.2691 13.2504 12.7436 13.4107 13.0578 13.7312C13.3721 14.0455 13.5292 14.5294 13.5292 15.183V21.8272C13.5292 22.4745 13.3721 22.9553 13.0578 23.2696C12.7436 23.5901 12.2691 23.7504 11.6343 23.7504H8.21849ZM17.2718 20.9033C16.637 20.9033 16.1625 20.7431 15.8483 20.4225C15.534 20.102 15.3769 19.6181 15.3769 18.9707V8.86472C15.3769 8.21738 15.534 7.73345 15.8483 7.41292C16.1625 7.09239 16.637 6.93213 17.2718 6.93213H23.8143C24.4428 6.93213 24.9142 7.09239 25.2284 7.41292C25.5489 7.73345 25.7092 8.21738 25.7092 8.86472V18.9707C25.7092 19.6181 25.5489 20.102 25.2284 20.4225C24.9142 20.7431 24.4428 20.9033 23.8143 20.9033H17.2718Z" fill="#0F0F0F"/>
</g>
</svg>
