<svg width="29" height="28" viewBox="0 0 29 28" fill="none" xmlns="http://www.w3.org/2000/svg">
<path d="M6.84094 24.5005C4.99288 24.5005 4.06885 23.8971 4.06885 22.6902C4.06885 21.951 4.29514 21.1627 4.74773 20.3254C5.20031 19.4881 5.85279 18.6999 6.70516 17.9607C7.56508 17.2139 8.60225 16.6067 9.81669 16.139C11.0387 15.6713 12.4191 15.4375 13.9579 15.4375C15.4891 15.4375 16.8619 15.6713 18.0764 16.139C19.2984 16.6067 20.3355 17.2139 21.1879 17.9607C22.0478 18.6999 22.7041 19.4881 23.1567 20.3254C23.6093 21.1627 23.8355 21.951 23.8355 22.6902C23.8355 23.8971 22.9115 24.5005 21.0635 24.5005H6.84094ZM6.30915 22.792H21.6066C21.7499 22.792 21.8517 22.7694 21.9121 22.7241C21.9799 22.6789 22.0139 22.5959 22.0139 22.4752C22.0139 22.0151 21.8366 21.4833 21.4821 20.8798C21.1351 20.2689 20.6184 19.6805 19.932 19.1148C19.2456 18.549 18.4007 18.0814 17.3975 17.7117C16.4018 17.3346 15.2553 17.146 13.9579 17.146C12.6604 17.146 11.5101 17.3346 10.5069 17.7117C9.50365 18.0814 8.65883 18.549 7.9724 19.1148C7.28598 19.6805 6.76551 20.2689 6.41098 20.8798C6.064 21.4833 5.89051 22.0151 5.89051 22.4752C5.89051 22.5959 5.92068 22.6789 5.98102 22.7241C6.04891 22.7694 6.15829 22.792 6.30915 22.792Z" fill="#A5A5A5"/>
<circle cx="14.125" cy="9" r="4" stroke="#A5A5A5" stroke-width="1.5"/>
</svg>
