<svg width="29" height="28" viewBox="0 0 29 28" fill="none" xmlns="http://www.w3.org/2000/svg">
<path d="M6.84094 24.5005C4.99288 24.5005 4.06885 23.8971 4.06885 22.6902C4.06885 21.951 4.29514 21.1627 4.74773 20.3254C5.20031 19.4881 5.85279 18.6999 6.70516 17.9607C7.56508 17.2139 8.60225 16.6067 9.81669 16.139C11.0387 15.6713 12.4191 15.4375 13.9579 15.4375C15.4891 15.4375 16.8619 15.6713 18.0764 16.139C19.2984 16.6067 20.3355 17.2139 21.1879 17.9607C22.0478 18.6999 22.7041 19.4881 23.1567 20.3254C23.6093 21.1627 23.8355 21.951 23.8355 22.6902C23.8355 23.8971 22.9115 24.5005 21.0635 24.5005H6.84094Z" fill="#0F0F0F"/>
<circle cx="14.125" cy="9" r="4" fill="#0F0F0F" stroke="#0F0F0F" stroke-width="1.5"/>
</svg>
