<svg width="29" height="28" viewBox="0 0 29 28" fill="none" xmlns="http://www.w3.org/2000/svg">
<path d="M3.44612 11.7716C3.44612 10.5043 3.68373 9.31627 4.15894 8.20744C4.6417 7.09106 5.3055 6.11045 6.15032 5.26563C6.99515 4.41326 7.97198 3.74946 9.08082 3.27425C10.1972 2.79903 11.389 2.56142 12.6563 2.56142C13.931 2.56142 15.1228 2.79903 16.2317 3.27425C17.3481 3.74946 18.3287 4.41326 19.1735 5.26563C20.0183 6.11045 20.6783 7.09106 21.1536 8.20744C21.6363 9.31627 21.8777 10.5043 21.8777 11.7716C21.8777 12.7672 21.7231 13.7139 21.4138 14.6115C21.1121 15.5092 20.6934 16.3276 20.1579 17.0668L25.3173 22.2489C25.4758 22.3998 25.5927 22.577 25.6681 22.7807C25.7511 22.9844 25.7926 23.1994 25.7926 23.4256C25.7926 23.7425 25.7209 24.0291 25.5776 24.2856C25.4343 24.542 25.2381 24.7419 24.9892 24.8852C24.7403 25.0361 24.4537 25.1115 24.1293 25.1115C23.903 25.1115 23.6843 25.07 23.4731 24.9871C23.2694 24.9116 23.0846 24.7909 22.9186 24.625L17.7252 19.4316C17.0011 19.9143 16.2091 20.2953 15.3491 20.5744C14.4968 20.8459 13.5991 20.9817 12.6563 20.9817C11.389 20.9817 10.1972 20.7441 9.08082 20.2689C7.97198 19.7936 6.99515 19.1336 6.15032 18.2888C5.3055 17.444 4.6417 16.4671 4.15894 15.3583C3.68373 14.2419 3.44612 13.0463 3.44612 11.7716ZM5.85614 11.7716C5.85614 12.7144 6.02963 13.597 6.37662 14.4192C6.73114 15.2414 7.22144 15.9655 7.84752 16.5916C8.4736 17.2101 9.19774 17.6967 10.0199 18.0512C10.8421 18.4057 11.7209 18.583 12.6563 18.583C13.5991 18.583 14.4817 18.4057 15.3039 18.0512C16.1261 17.6967 16.8464 17.2101 17.465 16.5916C18.0911 15.9655 18.5814 15.2414 18.9359 14.4192C19.2904 13.597 19.4677 12.7144 19.4677 11.7716C19.4677 10.8362 19.2904 9.95744 18.9359 9.13524C18.5814 8.31304 18.0911 7.5889 17.465 6.96282C16.8464 6.33675 16.1261 5.85022 15.3039 5.50323C14.4817 5.14871 13.5991 4.97144 12.6563 4.97144C11.7209 4.97144 10.8421 5.14871 10.0199 5.50323C9.19774 5.85022 8.4736 6.33675 7.84752 6.96282C7.22144 7.5889 6.73114 8.31304 6.37662 9.13524C6.02963 9.95744 5.85614 10.8362 5.85614 11.7716Z" fill="black"/>
</svg>
