<svg width="20" height="20" viewBox="0 0 20 20" fill="none" xmlns="http://www.w3.org/2000/svg">
<path d="M13.4075 5.38942C13.5337 5.38942 13.729 5.40445 13.9934 5.4345C14.2638 5.45853 14.5703 5.52464 14.9129 5.63281C15.2554 5.74099 15.604 5.91526 15.9585 6.15565C16.3131 6.39603 16.6406 6.73257 16.9411 7.16526C16.9111 7.18329 16.7969 7.26442 16.5986 7.40865C16.4062 7.55288 16.1869 7.76322 15.9405 8.03966C15.6941 8.3101 15.4778 8.65565 15.2915 9.07632C15.1112 9.49099 15.021 9.98678 15.021 10.5637C15.021 11.2248 15.1352 11.7837 15.3636 12.2404C15.598 12.6971 15.8684 13.0667 16.1749 13.3492C16.4874 13.6316 16.7638 13.8389 17.0042 13.9712C17.2506 14.0974 17.3828 14.1635 17.4008 14.1695C17.3948 14.1935 17.3498 14.3287 17.2656 14.5751C17.1815 14.8155 17.0493 15.128 16.869 15.5126C16.6947 15.8912 16.4663 16.2879 16.1839 16.7025C15.9255 17.0691 15.6581 17.4207 15.3816 17.7572C15.1112 18.0937 14.8137 18.3672 14.4892 18.5775C14.1707 18.7939 13.8101 18.902 13.4075 18.902C13.101 18.902 12.8395 18.866 12.6232 18.7939C12.4069 18.7218 12.1995 18.6376 12.0012 18.5415C11.8089 18.4513 11.5956 18.3702 11.3612 18.2981C11.1268 18.226 10.8353 18.1899 10.4868 18.1899C10.03 18.1899 9.64844 18.25 9.34195 18.3702C9.04147 18.4964 8.75601 18.6196 8.48558 18.7398C8.21514 18.86 7.89663 18.9201 7.53005 18.9201C6.97115 18.9201 6.47837 18.6977 6.05168 18.253C5.63101 17.8083 5.19832 17.2764 4.75361 16.6575C4.41106 16.1647 4.09856 15.5968 3.81611 14.9537C3.53365 14.3107 3.30829 13.6286 3.14002 12.9075C2.97175 12.1863 2.88762 11.4651 2.88762 10.744C2.88762 9.59014 3.10697 8.61959 3.54567 7.83233C3.98437 7.04507 4.54627 6.45012 5.23137 6.04748C5.91647 5.64483 6.62861 5.44351 7.36779 5.44351C7.75841 5.44351 8.125 5.50661 8.46755 5.63281C8.81611 5.75901 9.14062 5.88822 9.44111 6.02043C9.74159 6.14663 10.015 6.20974 10.2614 6.20974C10.4958 6.20974 10.7722 6.14363 11.0907 6.01142C11.4093 5.8732 11.7608 5.73498 12.1454 5.59675C12.5361 5.45853 12.9567 5.38942 13.4075 5.38942ZM12.7764 3.92909C12.476 4.29567 12.0974 4.59916 11.6406 4.83954C11.1899 5.07993 10.7632 5.20012 10.3606 5.20012C10.2764 5.20012 10.1953 5.19111 10.1172 5.17308C10.1112 5.14904 10.1022 5.10697 10.0901 5.04688C10.0841 4.98678 10.0811 4.92067 10.0811 4.84856C10.0811 4.39183 10.1803 3.94712 10.3786 3.51442C10.5769 3.08173 10.8053 2.72115 11.0637 2.43269C11.3822 2.05409 11.7849 1.73858 12.2716 1.48618C12.7644 1.23377 13.2362 1.09856 13.6869 1.08053C13.7049 1.18269 13.7139 1.29988 13.7139 1.43209C13.7139 1.89483 13.6268 2.34555 13.4525 2.78425C13.2782 3.21695 13.0529 3.59856 12.7764 3.92909Z" fill="white"/>
</svg>
