<svg width="20" height="20" viewBox="0 0 20 20" fill="none" xmlns="http://www.w3.org/2000/svg">
<path fill-rule="evenodd" clip-rule="evenodd" d="M9.61667 18.6258L9.675 18.6592L9.69833 18.6725C9.79086 18.7225 9.89439 18.7487 9.99958 18.7487C10.1048 18.7487 10.2083 18.7225 10.3008 18.6725L10.3242 18.66L10.3833 18.6258C10.7093 18.4326 11.0273 18.2263 11.3367 18.0075C12.1376 17.4421 12.8859 16.8056 13.5725 16.1058C15.1925 14.4475 16.875 11.9558 16.875 8.75C16.875 6.92664 16.1507 5.17795 14.8614 3.88864C13.572 2.59933 11.8234 1.875 10 1.875C8.17664 1.875 6.42795 2.59933 5.13864 3.88864C3.84933 5.17795 3.125 6.92664 3.125 8.75C3.125 11.955 4.80833 14.4475 6.4275 16.1058C7.11387 16.8056 7.86189 17.442 8.6625 18.0075C8.97214 18.2263 9.29045 18.4326 9.61667 18.6258ZM10 11.25C10.663 11.25 11.2989 10.9866 11.7678 10.5178C12.2366 10.0489 12.5 9.41304 12.5 8.75C12.5 8.08696 12.2366 7.45107 11.7678 6.98223C11.2989 6.51339 10.663 6.25 10 6.25C9.33696 6.25 8.70107 6.51339 8.23223 6.98223C7.76339 7.45107 7.5 8.08696 7.5 8.75C7.5 9.41304 7.76339 10.0489 8.23223 10.5178C8.70107 10.9866 9.33696 11.25 10 11.25Z" fill="#007DF0"/>
</svg>
