<svg width="36" height="36" viewBox="0 0 36 36" fill="none" xmlns="http://www.w3.org/2000/svg">
<path d="M13.3562 19.7437C13.1271 19.7437 12.9167 19.6875 12.725 19.575C12.5375 19.4625 12.3875 19.3125 12.275 19.125C12.1625 18.9375 12.1062 18.7271 12.1062 18.4937C12.1062 18.2646 12.1625 18.0562 12.275 17.8687C12.3875 17.6771 12.5375 17.525 12.725 17.4125C12.9167 17.3 13.1271 17.2437 13.3562 17.2437C13.7104 17.2437 14.0104 17.3667 14.2562 17.6125C14.5021 17.8542 14.625 18.1479 14.625 18.4937C14.625 18.7271 14.5667 18.9375 14.45 19.125C14.3375 19.3125 14.1854 19.4625 13.9937 19.575C13.8062 19.6875 13.5937 19.7437 13.3562 19.7437ZM18 19.7437C17.7708 19.7437 17.5604 19.6875 17.3687 19.575C17.1812 19.4625 17.0312 19.3125 16.9187 19.125C16.8104 18.9375 16.7562 18.7271 16.7562 18.4937C16.7562 18.2646 16.8104 18.0562 16.9187 17.8687C17.0312 17.6771 17.1812 17.525 17.3687 17.4125C17.5604 17.3 17.7708 17.2437 18 17.2437C18.3458 17.2437 18.6396 17.3667 18.8812 17.6125C19.1271 17.8542 19.25 18.1479 19.25 18.4937C19.25 18.7271 19.1937 18.9375 19.0812 19.125C18.9687 19.3125 18.8187 19.4625 18.6312 19.575C18.4437 19.6875 18.2333 19.7437 18 19.7437ZM22.6438 19.7437C22.4104 19.7437 22.1979 19.6875 22.0063 19.575C21.8146 19.4625 21.6625 19.3125 21.55 19.125C21.4375 18.9375 21.3813 18.7271 21.3813 18.4937C21.3813 18.2646 21.4375 18.0562 21.55 17.8687C21.6625 17.6771 21.8146 17.525 22.0063 17.4125C22.1979 17.3 22.4104 17.2437 22.6438 17.2437C22.9896 17.2437 23.2833 17.3667 23.525 17.6125C23.7708 17.8542 23.8938 18.1479 23.8938 18.4937C23.8938 18.7271 23.8375 18.9375 23.725 19.125C23.6125 19.3125 23.4604 19.4625 23.2688 19.575C23.0813 19.6875 22.8729 19.7437 22.6438 19.7437Z" fill="black"/>
</svg>
