<svg width="29" height="28" viewBox="0 0 29 28" fill="none" xmlns="http://www.w3.org/2000/svg">
<path d="M8.18438 24.5594C6.9375 24.5594 5.97865 24.2276 5.30781 23.5641C4.64427 22.9078 4.3125 21.9599 4.3125 20.7203V8.27344C4.3125 7.03385 4.64427 6.08594 5.30781 5.42969C5.97865 4.76615 6.9375 4.43438 8.18438 4.43438H19.5703L16.7484 7.25625H8.49063C8.05313 7.25625 7.71771 7.36927 7.48438 7.59531C7.25104 7.81406 7.13438 8.15677 7.13438 8.62344V20.3703C7.13438 20.837 7.25104 21.1833 7.48438 21.4094C7.71771 21.6281 8.05313 21.7375 8.49063 21.7375H20.4453C20.7953 21.7375 21.076 21.6281 21.2875 21.4094C21.5063 21.1833 21.6156 20.837 21.6156 20.3703V12.2109L24.4375 9.38906V20.7203C24.4375 21.9599 24.113 22.9078 23.4641 23.5641C22.8224 24.2276 21.9182 24.5594 20.7516 24.5594H8.18438ZM12.5813 16.8703C12.4135 16.9286 12.2568 16.8922 12.1109 16.7609C11.9724 16.6297 11.9396 16.4729 12.0125 16.2906L13.0078 13.9391L22.5781 4.36875L24.5469 6.32656L14.9656 15.9078L12.5813 16.8703ZM25.4328 5.45156L23.4531 3.48281L24.1641 2.78281C24.412 2.5349 24.7 2.39635 25.0281 2.36719C25.3563 2.33802 25.626 2.42552 25.8375 2.62969L26.1875 2.97969C26.4427 3.22031 26.563 3.50469 26.5484 3.83281C26.5411 4.16094 26.4099 4.45625 26.1547 4.71875L25.4328 5.45156Z" fill="black"/>
</svg>
