<svg width="28" height="28" viewBox="0 0 28 28" fill="none" xmlns="http://www.w3.org/2000/svg">
<path d="M3.31897 20.0539C3.31897 19.6767 3.42834 19.3109 3.64709 18.9564C3.86584 18.6018 4.13739 18.2548 4.46175 17.9154C4.79364 17.576 5.12177 17.2365 5.44612 16.8971C5.69504 16.6406 5.88739 16.305 6.02317 15.8901C6.16649 15.4752 6.27209 15.0339 6.33998 14.5663C6.40787 14.0986 6.4569 13.646 6.48707 13.2085C6.5097 11.7225 6.66433 10.4176 6.95097 9.29364C7.23761 8.16218 7.68642 7.21929 8.29741 6.46498C8.91595 5.71067 9.72683 5.15248 10.7301 4.79041C10.9186 4.05118 11.2996 3.42511 11.8728 2.91218C12.4537 2.39924 13.1589 2.14278 13.9887 2.14278C14.826 2.14278 15.5313 2.39924 16.1045 2.91218C16.6853 3.42511 17.07 4.05118 17.2586 4.79041C18.2619 5.15248 19.069 5.71067 19.68 6.46498C20.2909 7.21929 20.7398 8.16218 21.0264 9.29364C21.3206 10.4176 21.479 11.7225 21.5016 13.2085C21.5318 13.646 21.5808 14.0986 21.6487 14.5663C21.7166 15.0339 21.8184 15.4752 21.9542 15.8901C22.0975 16.305 22.2936 16.6406 22.5426 16.8971C22.8669 17.2365 23.1913 17.576 23.5156 17.9154C23.8475 18.2548 24.1228 18.6018 24.3416 18.9564C24.5603 19.3109 24.6697 19.6767 24.6697 20.0539C24.6697 20.4687 24.5189 20.8006 24.2171 21.0496C23.9154 21.2985 23.4968 21.423 22.9612 21.423H18.1864C18.1563 22.1546 17.9564 22.8297 17.5867 23.4483C17.2247 24.0744 16.7344 24.576 16.1158 24.9531C15.4973 25.3303 14.7883 25.5189 13.9887 25.5189C13.1967 25.5189 12.4914 25.3265 11.8728 24.9418C11.2543 24.5647 10.7602 24.0668 10.3906 23.4483C10.0286 22.8297 9.83244 22.1546 9.80226 21.423H5.02748C4.49192 21.423 4.07328 21.2985 3.77155 21.0496C3.46983 20.8006 3.31897 20.4687 3.31897 20.0539ZM5.51401 19.7144H22.4634V19.5787C22.3955 19.4731 22.2823 19.3335 22.1239 19.16C21.9731 18.979 21.7958 18.7829 21.5921 18.5717C21.396 18.3605 21.1961 18.1455 20.9925 17.9267C20.7888 17.7004 20.6115 17.4402 20.4607 17.146C20.3098 16.8443 20.1816 16.5048 20.076 16.1277C19.9779 15.7505 19.8949 15.3319 19.827 14.8718C19.7667 14.4116 19.7252 13.9062 19.7026 13.3556C19.6724 11.7112 19.4989 10.4062 19.1821 9.44073C18.8728 8.47521 18.458 7.75862 17.9375 7.29095C17.4246 6.81573 16.8438 6.48761 16.195 6.30657C16.0593 6.2764 15.9499 6.2236 15.8669 6.14817C15.7915 6.06519 15.7538 5.95205 15.7538 5.80873C15.7311 5.22037 15.5614 4.74138 15.2446 4.37177C14.9353 3.99461 14.5167 3.80603 13.9887 3.80603C13.4682 3.80603 13.0496 3.99461 12.7328 4.37177C12.4235 4.74138 12.2575 5.22037 12.2349 5.80873C12.2274 5.95205 12.1859 6.06519 12.1105 6.14817C12.035 6.2236 11.9256 6.2764 11.7823 6.30657C11.1336 6.48761 10.549 6.81573 10.0286 7.29095C9.51563 7.75862 9.10453 8.47521 8.79526 9.44073C8.48599 10.4062 8.31627 11.7112 8.2861 13.3556C8.25593 13.9062 8.21067 14.4116 8.15032 14.8718C8.08998 15.3319 8.007 15.7505 7.9014 16.1277C7.7958 16.5048 7.66756 16.8443 7.5167 17.146C7.36584 17.4402 7.18858 17.7004 6.98491 17.9267C6.78879 18.1455 6.5889 18.3605 6.38524 18.5717C6.18912 18.7829 6.01185 18.979 5.85345 19.16C5.69504 19.3335 5.5819 19.4731 5.51401 19.5787V19.7144ZM11.5673 21.423C11.6051 22.1923 11.8464 22.7996 12.2915 23.2446C12.7441 23.6972 13.3098 23.9235 13.9887 23.9235C14.6751 23.9235 15.2408 23.6972 15.6859 23.2446C16.1309 22.7996 16.3761 22.1923 16.4213 21.423H11.5673Z" fill="black"/>
<rect x="20" width="8" height="8" rx="4" fill="#007DF0"/>
</svg>
