<svg width="24" height="24" viewBox="0 0 24 24" fill="none" xmlns="http://www.w3.org/2000/svg">
<path d="M6.02586 11.9978C6.02586 11.875 6.04849 11.7619 6.09375 11.6584C6.13901 11.5485 6.2069 11.4483 6.29741 11.3578L13.9881 3.8319C14.1627 3.66379 14.3728 3.57974 14.6185 3.57974C14.7866 3.57974 14.9353 3.61854 15.0647 3.69612C15.2004 3.77371 15.3071 3.88039 15.3847 4.01616C15.4687 4.14547 15.5108 4.29418 15.5108 4.46229C15.5108 4.70151 15.4235 4.91164 15.2489 5.09267L8.18858 11.9978L15.2489 18.903C15.4235 19.0841 15.5108 19.2942 15.5108 19.5334C15.5108 19.7015 15.4687 19.8502 15.3847 19.9795C15.3071 20.1153 15.2004 20.222 15.0647 20.2996C14.9353 20.3772 14.7866 20.4159 14.6185 20.4159C14.3728 20.4159 14.1627 20.3287 13.9881 20.1541L6.29741 12.6379C6.2069 12.5474 6.13901 12.4504 6.09375 12.347C6.04849 12.2371 6.02586 12.1207 6.02586 11.9978Z" fill="black"/>
</svg>
