<svg width="330" height="128" viewBox="0 0 330 128" fill="none" xmlns="http://www.w3.org/2000/svg">
<path d="M76.5455 43.1515L82.2208 37.9018L79.3638 45.9891L87.9412 45.7311L80.8729 50.6003L87.9605 55.4307L79.3831 55.2114L82.2788 63.2858L76.5777 58.0684L74.1786 78.8606L71.7344 58.0813L66.0591 63.331L68.9161 55.2372L60.3387 55.4952L67.407 50.6261L60.3193 45.7956L68.8967 46.0085L66.0011 37.9341L71.7021 43.1515L74.1012 25.5001L76.5455 43.1386V43.1515Z" fill="#0F0F0F"/>
<path d="M13.7112 64.9562C13.3307 64.853 13.0211 64.7176 12.7825 64.5435C12.5439 64.3693 12.344 64.1243 12.1892 63.7953C12.0344 63.4664 11.9764 63.0988 12.0086 62.6861C12.0795 61.106 12.1311 59.1842 12.1634 56.9334C12.1956 54.6827 12.215 52.6447 12.215 50.8196C12.215 48.9945 12.1956 46.7889 12.1634 44.1898C12.1311 41.5908 12.0795 39.2627 12.0086 37.1989V36.6314H38.8372V37.1989C38.7663 39.1917 38.7147 41.5263 38.6824 44.1898C38.6502 46.8534 38.6308 49.0848 38.6308 50.8712C38.6308 52.7608 38.6502 54.9987 38.6824 57.5783C38.7147 60.158 38.7663 62.4604 38.8372 64.4919V65.111H14.7946C14.4528 65.111 14.0917 65.0594 13.7112 64.9562ZM30.5822 61.3963V40.2429H20.2636V61.3963H30.5822ZM46.3182 61.6542C46.3505 58.694 46.3698 55.7532 46.3698 52.8317C46.3698 49.9103 46.3505 46.9694 46.3182 44.0093C46.286 41.0491 46.2344 38.0438 46.1635 34.9804V34.3613H54.4184V34.9804C54.3475 38.0438 54.2959 41.0491 54.2636 44.0093C54.2314 46.9694 54.212 49.9103 54.212 52.8317C54.212 55.7532 54.2314 58.694 54.2636 61.6542C54.2959 64.6144 54.3475 67.6197 54.4184 70.6831V71.3022H46.1635V70.6831C46.2344 67.6197 46.286 64.6144 46.3182 61.6542Z" fill="#0F0F0F"/>
<path d="M94.1455 40.1397V36.425H123.863V40.1397H114.009C113.938 40.6879 113.835 41.3586 113.699 42.1519C113.564 42.9451 113.441 43.5965 113.338 44.1124C113.203 44.8347 112.996 45.6925 112.719 46.6921C112.442 47.6917 112.184 48.5301 111.945 49.2202C111.913 49.2524 111.887 49.3169 111.868 49.4008C111.849 49.4846 111.823 49.562 111.79 49.6329C112.339 49.9102 112.88 50.2198 113.416 50.5616C113.951 50.9034 114.389 51.2001 114.731 51.4387C115.279 51.7805 115.963 52.2384 116.769 52.8059C117.575 53.3734 118.272 53.8636 118.859 54.2763C119.446 54.6891 120.129 55.1857 120.923 55.7725C121.716 56.3594 122.386 56.8883 122.935 57.3719C123.554 57.8556 124.231 58.4103 124.973 59.0487C125.714 59.6872 126.372 60.2934 126.959 60.8803L118.859 66.3492C118.517 65.7301 118.156 65.04 117.775 64.2855C117.395 63.5309 117.053 62.8731 116.743 62.3249C116.434 61.738 116.066 61.1318 115.634 60.4933C115.202 59.8549 114.802 59.2616 114.422 58.7134C114.009 58.1265 113.545 57.5203 113.029 56.8818C112.513 56.2433 112.048 55.6887 111.636 55.205C111.429 54.9664 111.178 54.6955 110.888 54.4053C110.597 54.1151 110.294 53.8313 109.985 53.554C109.952 53.6572 109.888 53.7668 109.804 53.8894C109.72 54.0119 109.643 54.1216 109.572 54.2247C109.088 54.9793 108.547 55.721 107.947 56.4433C107.347 57.1656 106.734 57.8363 106.115 58.4554C105.464 59.1068 104.754 59.7388 104 60.3386C103.245 60.9383 102.523 61.4672 101.833 61.9122C101.143 62.3572 100.388 62.8344 99.5628 63.331C98.7373 63.8276 97.9828 64.2661 97.2927 64.6466C96.6413 64.9884 95.8416 65.3947 94.8936 65.8591C93.9456 66.3234 93.1459 66.691 92.4945 66.9683L91.4626 64.6982C92.0108 64.3177 92.6042 63.905 93.2426 63.46C93.8811 63.015 94.4744 62.5635 95.0226 62.1185C95.6095 61.6348 96.2157 61.0867 96.8542 60.4675C97.4926 59.8484 98.0473 59.2616 98.5309 58.7134C99.0146 58.1265 99.5564 57.4429 100.156 56.6496C100.756 55.8564 101.246 55.1212 101.627 54.4311C102.007 53.7797 102.375 53.0123 102.736 52.1352C103.097 51.2581 103.4 50.4391 103.639 49.6845C103.845 48.9945 104.032 48.1561 104.206 47.1564C104.38 46.1568 104.496 45.3313 104.567 44.68C104.638 44.235 104.696 43.5513 104.748 42.642C104.8 41.7327 104.825 41.0362 104.825 40.5525V40.1397H94.1455ZM129.9 61.6542C129.932 58.694 129.951 55.7532 129.951 52.8317C129.951 49.9102 129.932 46.9694 129.9 44.0092C129.868 41.0491 129.816 38.0437 129.745 34.9804V34.3613H138V34.9804C137.929 38.0437 137.877 41.0491 137.845 44.0092C137.813 46.9694 137.794 49.9102 137.794 52.8317C137.794 55.7532 137.813 58.694 137.845 61.6542C137.877 64.6144 137.929 67.6197 138 70.683V71.3022H129.745V70.683C129.816 67.6197 129.868 64.6144 129.9 61.6542Z" fill="#0F0F0F"/>
<g clip-path="url(#clip0_153_1340)">
<path d="M1.08681 91.48H-0.273193V90.16H1.08681V91.48ZM1.08681 99.74H-0.273193V98.42H1.08681V99.74Z" fill="#0F0F0F"/>
<path d="M15.2201 86.26V103.34H6.32007V86.26H15.2201ZM6.86007 102.84H14.6801V86.76H6.86007V102.84ZM20.6401 86H21.1801V103.7H20.6401V86Z" fill="#0F0F0F"/>
<path d="M25.8401 94.98C25.8401 93.9666 25.9134 93.0333 26.0734 92.18C26.2268 91.3266 26.4268 90.54 26.6801 89.82C26.9334 89.1133 27.2201 88.4666 27.5401 87.88C27.8601 87.2933 28.1934 86.76 28.5401 86.28H28.9401C28.5534 86.9066 28.2068 87.5333 27.9001 88.1466C27.5934 88.76 27.3334 89.42 27.1201 90.0933C26.9068 90.7733 26.7401 91.5133 26.6201 92.3066C26.5001 93.1 26.4401 93.9933 26.4401 94.9733C26.4401 95.9533 26.5001 96.8533 26.6201 97.64C26.7401 98.4333 26.9068 99.1666 27.1201 99.8533C27.3334 100.533 27.5934 101.187 27.9001 101.8C28.2068 102.413 28.5534 103.04 28.9401 103.667H28.5401C28.1934 103.187 27.8601 102.653 27.5401 102.067C27.2201 101.48 26.9334 100.827 26.6801 100.107C26.4268 99.4 26.2201 98.62 26.0734 97.7666C25.9201 96.9133 25.8401 95.98 25.8401 94.9666V94.98Z" fill="#0F0F0F"/>
<path d="M40.2198 86.92C40.2198 88.04 40.0065 89.06 39.5798 89.98C39.1532 90.9 38.5732 91.7267 37.8398 92.4733C37.1065 93.2133 36.2398 93.86 35.2532 94.4133C34.2598 94.9667 33.1998 95.4333 32.0798 95.8067L31.8398 95.3467C32.8665 95 33.8532 94.5667 34.7932 94.0467C35.7332 93.5267 36.5598 92.9133 37.2798 92.2133C37.9998 91.5133 38.5732 90.7333 38.9998 89.8667C39.4265 89 39.6398 88.0533 39.6398 87.0267V86.7667H32.2998V86.26H40.2198V86.92ZM33.4798 97.88V103H46.3798V103.5H32.9198V97.88H33.4798ZM49.2198 92.16H45.7798V99.08H45.2398V86H45.7798V91.66H49.2198V92.16Z" fill="#0F0F0F"/>
<path d="M54.2602 94.98C54.2602 95.9934 54.1802 96.9267 54.0335 97.78C53.8802 98.6333 53.6735 99.4133 53.4202 100.12C53.1668 100.84 52.8735 101.493 52.5468 102.08C52.2202 102.667 51.8868 103.2 51.5602 103.68H51.1602C51.5335 103.053 51.8735 102.427 52.1868 101.813C52.5002 101.193 52.7602 100.54 52.9802 99.8667C53.1935 99.1867 53.3602 98.4533 53.4802 97.6533C53.6002 96.86 53.6602 95.9733 53.6602 94.9867C53.6602 94 53.6002 93.1133 53.4802 92.32C53.3602 91.5267 53.1935 90.7933 52.9802 90.1067C52.7668 89.4267 52.5002 88.7734 52.1868 88.16C51.8735 87.54 51.5268 86.92 51.1602 86.2934H51.5602C51.8935 86.7734 52.2202 87.3067 52.5468 87.8934C52.8735 88.48 53.1602 89.1267 53.4202 89.8333C53.6735 90.5533 53.8735 91.34 54.0335 92.1934C54.1868 93.0467 54.2602 93.98 54.2602 94.9934V94.98Z" fill="#0F0F0F"/>
<path d="M63.1601 86.76V95.06C63.1601 96.74 63.6135 98.2467 64.5068 99.5667C65.4068 100.893 66.6268 102.04 68.1601 103L67.8001 103.42C67.3201 103.14 66.8268 102.787 66.3268 102.367C65.8268 101.947 65.3535 101.473 64.9068 100.947C64.4601 100.42 64.0601 99.8333 63.7001 99.2C63.3401 98.5667 63.0668 97.88 62.8801 97.16C62.6935 97.9067 62.4068 98.6067 62.0335 99.26C61.6535 99.9133 61.2268 100.513 60.7401 101.06C60.2601 101.607 59.7535 102.093 59.2268 102.533C58.7001 102.967 58.2001 103.327 57.7201 103.62L57.3801 103.22C58.1535 102.74 58.8535 102.193 59.4935 101.587C60.1268 100.98 60.6735 100.327 61.1335 99.6267C61.5935 98.9267 61.9535 98.1933 62.2001 97.42C62.4468 96.6467 62.5801 95.86 62.5801 95.06V86.76H58.1801V86.26H67.5601V86.76H63.1601ZM72.6401 86H73.1801V103.7H72.6401V86Z" fill="#0F0F0F"/>
</g>
<defs>
<clipPath id="clip0_153_1340">
<rect width="73.3333" height="18" fill="white" transform="translate(0 86.0001)"/>
</clipPath>
</defs>
</svg>
