<svg width="84" height="36" viewBox="0 0 84 36" fill="none" xmlns="http://www.w3.org/2000/svg">
<path d="M43.0303 11.7676L46.8138 8.26785L44.9092 13.6594L50.6275 13.4874L45.9153 16.7335L50.6404 19.9538L44.9221 19.8076L46.8525 25.1905L43.0518 21.7122L41.4524 35.5737L39.8229 21.7208L36.0394 25.2206L37.9441 19.8248L32.2258 19.9968L36.938 16.7507L32.2129 13.5304L37.9312 13.6723L36.0007 8.28935L39.8014 11.7676L41.4008 0L43.0303 11.759V11.7676Z" fill="#0F0F0F"/>
<path d="M1.14079 26.3041C0.887122 26.2353 0.680748 26.145 0.521668 26.0289C0.362589 25.9128 0.229306 25.7494 0.126119 25.5302C0.0229318 25.3109 -0.0157633 25.0658 0.00573395 24.7907C0.0530279 23.7373 0.0874236 22.4561 0.108921 20.9556C0.130418 19.455 0.143316 18.0964 0.143316 16.8797C0.143316 15.6629 0.130418 14.1925 0.108921 12.4598C0.0874236 10.7272 0.0530279 9.17506 0.00573395 7.79923V7.42088H17.8915V7.79923C17.8442 9.12776 17.8098 10.6842 17.7883 12.4598C17.7668 14.2355 17.7539 15.7231 17.7539 16.9141C17.7539 18.1738 17.7668 19.6657 17.7883 21.3855C17.8098 23.1053 17.8442 24.6402 17.8915 25.9945V26.4073H1.8631C1.63523 26.4073 1.39446 26.3729 1.14079 26.3041ZM12.3882 23.9308V9.82857H5.50904V23.9308H12.3882ZM22.8788 24.1028C22.9003 22.1293 22.9132 20.1688 22.9132 18.2211C22.9132 16.2735 22.9003 14.3129 22.8788 12.3395C22.8573 10.366 22.8229 8.36246 22.7756 6.32022V5.90747H28.2789V6.32022C28.2316 8.36246 28.1973 10.366 28.1758 12.3395C28.1543 14.3129 28.1414 16.2735 28.1414 18.2211C28.1414 20.1688 28.1543 22.1293 28.1758 24.1028C28.1973 26.0762 28.2316 28.0798 28.2789 30.122V30.5347H22.7756V30.122C22.8229 28.0798 22.8573 26.0762 22.8788 24.1028Z" fill="#0F0F0F"/>
<path d="M54.7637 9.75978V7.2833H74.5756V9.75978H68.006C67.9587 10.1252 67.8899 10.5724 67.7996 11.1012C67.7093 11.63 67.6276 12.0643 67.5588 12.4082C67.4686 12.8898 67.331 13.4616 67.1461 14.128C66.9612 14.7944 66.7892 15.3534 66.6302 15.8134C66.6087 15.8349 66.5915 15.8779 66.5786 15.9338C66.5657 15.9897 66.5485 16.0413 66.527 16.0886C66.8924 16.2735 67.2536 16.4798 67.6104 16.7077C67.9673 16.9356 68.2597 17.1333 68.4875 17.2924C68.853 17.5203 69.3087 17.8256 69.8462 18.2039C70.3836 18.5823 70.8479 18.909 71.2392 19.1842C71.6304 19.4593 72.0862 19.7904 72.615 20.1817C73.1438 20.5729 73.591 20.9255 73.9564 21.2479C74.3692 21.5704 74.8206 21.9401 75.3151 22.3658C75.8095 22.7914 76.248 23.1956 76.6393 23.5868L71.2392 27.2328C71.0113 26.82 70.7705 26.36 70.5169 25.8569C70.2632 25.3539 70.0353 24.9154 69.829 24.5499C69.6226 24.1587 69.3775 23.7545 69.0895 23.3289C68.8014 22.9032 68.5348 22.5077 68.2812 22.1422C68.006 21.751 67.6964 21.3468 67.3525 20.9212C67.0085 20.4955 66.699 20.1258 66.4238 19.8033C66.2862 19.6442 66.1185 19.4636 65.9251 19.2702C65.7316 19.0767 65.5295 18.8875 65.3231 18.7026C65.3016 18.7714 65.2586 18.8445 65.2027 18.9262C65.1469 19.0079 65.0953 19.081 65.048 19.1498C64.7255 19.6528 64.3644 20.1473 63.9645 20.6288C63.5647 21.1103 63.1562 21.5575 62.7435 21.9702C62.3092 22.4045 61.8363 22.8258 61.3332 23.2257C60.8302 23.6255 60.3487 23.9781 59.8886 24.2747C59.4286 24.5714 58.9255 24.8896 58.3752 25.2206C57.8249 25.5517 57.3218 25.844 56.8618 26.0977C56.4276 26.3256 55.8944 26.5964 55.2624 26.906C54.6304 27.2156 54.0973 27.4606 53.663 27.6455L52.9751 26.1321C53.3406 25.8784 53.7361 25.6033 54.1617 25.3066C54.5874 25.0099 54.9829 24.709 55.3484 24.4123C55.7396 24.0899 56.1438 23.7244 56.5694 23.3117C56.9951 22.8989 57.3648 22.5077 57.6873 22.1422C58.0098 21.751 58.3709 21.2952 58.7708 20.7664C59.1706 20.2375 59.4974 19.7474 59.751 19.2874C60.0047 18.8531 60.2498 18.3415 60.4905 17.7568C60.7313 17.172 60.9334 16.626 61.0925 16.123C61.23 15.6629 61.3547 15.104 61.4708 14.4376C61.5869 13.7712 61.6643 13.2208 61.7116 12.7866C61.7589 12.4899 61.7976 12.0342 61.832 11.428C61.8664 10.8217 61.8836 10.3574 61.8836 10.0349V9.75978H54.7637ZM78.5998 24.1028C78.6213 22.1293 78.6342 20.1688 78.6342 18.2211C78.6342 16.2735 78.6213 14.3129 78.5998 12.3395C78.5783 10.366 78.544 8.36246 78.4967 6.32022V5.90747H84V6.32022C83.9527 8.36246 83.9183 10.366 83.8968 12.3395C83.8753 14.3129 83.8624 16.2735 83.8624 18.2211C83.8624 20.1688 83.8753 22.1293 83.8968 24.1028C83.9183 26.0762 83.9527 28.0798 84 30.122V30.5347H78.4967V30.122C78.544 28.0798 78.5783 26.0762 78.5998 24.1028Z" fill="#0F0F0F"/>
</svg>
