<svg width="28" height="28" viewBox="0 0 28 28" fill="none" xmlns="http://www.w3.org/2000/svg">
<path d="M14 26.5169C12.3556 26.5169 10.8057 26.2022 9.35011 25.5728C7.90243 24.9434 6.6239 24.074 5.51454 22.9646C4.40517 21.8552 3.53577 20.5767 2.90635 19.129C2.27692 17.6735 1.96221 16.1235 1.96221 14.4791C1.96221 12.8348 2.27692 11.2887 2.90635 9.84104C3.53577 8.38549 4.40124 7.10303 5.50273 5.99367C6.6121 4.8843 7.89062 4.01491 9.33831 3.38548C10.7939 2.75605 12.3438 2.44134 13.9882 2.44134C15.6326 2.44134 17.1825 2.75605 18.6381 3.38548C20.0936 4.01491 21.3761 4.8843 22.4855 5.99367C23.5948 7.10303 24.4642 8.38549 25.0937 9.84104C25.7231 11.2887 26.0378 12.8348 26.0378 14.4791C26.0378 16.1235 25.7231 17.6735 25.0937 19.129C24.4642 20.5767 23.5948 21.8552 22.4855 22.9646C21.3761 24.074 20.0936 24.9434 18.6381 25.5728C17.1904 26.2022 15.6444 26.5169 14 26.5169ZM14 24.5106C15.3926 24.5106 16.6947 24.251 17.9064 23.7317C19.118 23.2124 20.1841 22.4965 21.1047 21.5838C22.0252 20.6633 22.7412 19.5972 23.2526 18.3855C23.7719 17.1739 24.0315 15.8717 24.0315 14.4791C24.0315 13.0865 23.7719 11.7844 23.2526 10.5727C22.7333 9.3611 22.0134 8.29501 21.0929 7.37447C20.1802 6.45394 19.1141 5.73796 17.8946 5.22655C16.6829 4.70728 15.3808 4.44764 13.9882 4.44764C12.5956 4.44764 11.2935 4.70728 10.0818 5.22655C8.87017 5.73796 7.80801 6.45394 6.89534 7.37447C5.98267 8.29501 5.2667 9.3611 4.74742 10.5727C4.23601 11.7844 3.98031 13.0865 3.98031 14.4791C3.98031 15.8717 4.23601 17.1739 4.74742 18.3855C5.2667 19.5972 5.98267 20.6633 6.89534 21.5838C7.81588 22.4965 8.88197 23.2124 10.0936 23.7317C11.3053 24.251 12.6074 24.5106 14 24.5106ZM22.0724 22.2565C21.3564 22.9567 20.5146 23.5547 19.5468 24.0504C18.5869 24.546 17.6153 24.9237 16.6318 25.1833C15.6483 25.4508 14.771 25.5846 14 25.5846C13.2368 25.5846 12.3596 25.4508 11.3682 25.1833C10.3847 24.9237 9.40912 24.546 8.44137 24.0504C7.47363 23.5547 6.6357 22.9567 5.9276 22.2565L5.963 22.1149C6.1597 21.5405 6.61997 20.974 7.34381 20.4154C8.06765 19.8568 8.99605 19.3965 10.129 19.0346C11.2699 18.6727 12.5602 18.4917 14 18.4917C15.4477 18.4917 16.738 18.6727 17.871 19.0346C19.0118 19.3965 19.9402 19.8568 20.6562 20.4154C21.38 20.974 21.8403 21.5444 22.037 22.1267L22.0724 22.2565ZM14 16.4854C13.2447 16.4776 12.5602 16.2809 11.9465 15.8953C11.3407 15.5019 10.8568 14.9709 10.4949 14.3021C10.1408 13.6333 9.95986 12.878 9.952 12.0362C9.94413 11.2415 10.1212 10.5137 10.4831 9.85284C10.845 9.19194 11.3328 8.6648 11.9465 8.27141C12.5602 7.87015 13.2447 7.66952 14 7.66952C14.7553 7.66952 15.4359 7.87015 16.0417 8.27141C16.6554 8.6648 17.1432 9.19194 17.5051 9.85284C17.867 10.5137 18.048 11.2415 18.048 12.0362C18.048 12.878 17.867 13.6373 17.5051 14.3139C17.1511 14.9905 16.6672 15.5256 16.0535 15.9189C15.4398 16.3045 14.7553 16.4933 14 16.4854Z" fill="#0F0F0F"/>
</svg>
