<svg width="120" height="120" viewBox="0 0 120 120" fill="none" xmlns="http://www.w3.org/2000/svg">
<path fill-rule="evenodd" clip-rule="evenodd" d="M57 21C55.8954 21 55 21.8954 55 23V25C55 26.1046 55.8954 27 57 27V29.1232C38.5214 30.6477 24 46.128 24 65C24 84.8823 40.1177 101 60 101C79.8823 101 96 84.8823 96 65C96 46.128 81.4786 30.6477 63 29.1232V27C64.1046 27 65 26.1046 65 25V23C65 21.8954 64.1046 21 63 21H57Z" fill="#3D3D3D"/>
<circle opacity="0.5" cx="60" cy="65" r="32.5" stroke="#6F6F6F"/>
<circle opacity="0.5" cx="60" cy="65" r="29" stroke="#A5A5A5" stroke-width="1.2" stroke-linecap="round" stroke-dasharray="0.25 12"/>
<path d="M56.4964 55.4707L59.8861 47.1851L61.5326 55.9836L69.1437 51.2819L65.299 59.3563L74.2317 60.0279L66.3614 64.3029L73.2004 70.0907L64.3178 68.9289L72.9913 88.9667L59.9475 71.4777L56.5523 79.7537L54.9209 70.9592L47.3002 75.6665L51.149 67.577L42.2218 66.9149L50.077 62.6359L43.2532 56.8522L52.1206 58.0099L45.0891 40.8162L56.4964 55.4707Z" fill="white"/>
<path opacity="0.15" fill-rule="evenodd" clip-rule="evenodd" d="M61.8533 63.3494L63.0361 55.9851L63.4867 37.4196L58.0415 55.1795L57.0646 61.2615L51.4145 58.798L33.5471 53.7342L49.3894 63.4342L56.2361 66.4194L55.5712 70.5593L54.5923 92.3549L60.5676 71.354L61.0248 68.5073L63.6681 69.6598L84.5319 76.0402L65.683 65.0192L61.8533 63.3494Z" fill="white"/>
<path opacity="0.3" fill-rule="evenodd" clip-rule="evenodd" d="M61.3504 63.5938L59.495 55.1398L53.109 37.7013L54.5528 56.2211L54.7839 57.2742L54.0074 56.5269L39.0151 45.5671L50.4968 60.1698L56.7375 66.1759L57.8919 71.4359L64.9705 92.0732L62.9889 71.9395L79.0643 84.2074L65.2229 67.3207L61.3504 63.5938Z" fill="white"/>
<path opacity="0.1" fill-rule="evenodd" clip-rule="evenodd" d="M37.2963 54.9814C39.3682 50.3772 42.7588 46.4908 47.0395 43.8137C51.3202 41.1365 56.2985 39.7889 61.3451 39.9411C61.6211 39.9495 61.8381 40.18 61.8298 40.456C61.8215 40.732 61.591 40.949 61.315 40.9407C56.4661 40.7944 51.6827 42.0893 47.5697 44.6615C43.4568 47.2338 40.1989 50.9679 38.2082 55.3917C38.0949 55.6435 37.7989 55.7558 37.5471 55.6425C37.2952 55.5292 37.183 55.2332 37.2963 54.9814ZM43.1644 55.6961C44.6739 52.3416 47.1442 49.5101 50.263 47.5597C53.3817 45.6092 57.0088 44.6273 60.6855 44.7383C60.9616 44.7466 61.1786 44.9771 61.1702 45.2531C61.1619 45.5291 60.9314 45.7461 60.6554 45.7378C57.1763 45.6328 53.7442 46.5619 50.7932 48.4075C47.8421 50.2531 45.5047 52.9323 44.0763 56.1064C43.963 56.3582 43.667 56.4705 43.4152 56.3572C43.1633 56.2439 43.0511 55.9479 43.1644 55.6961ZM71.3266 84.8008C68.1604 86.6733 64.5101 87.5649 60.8372 87.3628C60.5615 87.3476 60.3503 87.1118 60.3655 86.8361C60.3806 86.5604 60.6165 86.3492 60.8922 86.3643C64.3676 86.5555 67.8216 85.7119 70.8175 83.94C73.8135 82.1682 76.2167 79.5477 77.7233 76.4101C77.8428 76.1611 78.1415 76.0562 78.3905 76.1758C78.6394 76.2953 78.7443 76.594 78.6248 76.8429C77.0325 80.1589 74.4927 82.9282 71.3266 84.8008Z" fill="#C1C1C1"/>
<path d="M92.0481 28.721C91.5895 28.6237 91.2625 28.4146 91.0671 28.0936C90.8809 27.7666 90.834 27.3853 90.9264 26.9497C90.9491 26.8427 90.9709 26.7395 90.992 26.6401C91.0131 26.5408 91.035 26.4376 91.0577 26.3306C91.1938 25.6887 91.4423 25.1384 91.8031 24.6799C92.164 24.2213 92.6152 23.8259 93.1569 23.4935C93.7002 23.1535 94.3036 22.8503 94.9671 22.5837C95.563 22.3347 96.083 22.0857 96.5272 21.8365C96.9714 21.5873 97.3342 21.2889 97.6155 20.9412C97.8969 20.5936 98.0927 20.16 98.203 19.6403C98.331 19.0365 98.2786 18.4743 98.0456 17.9537C97.8202 17.4347 97.4614 16.9992 96.969 16.6472C96.4783 16.2876 95.889 16.0348 95.2012 15.8889C94.6433 15.7706 94.108 15.7529 93.5952 15.8358C93.0917 15.9127 92.6259 16.1133 92.1977 16.4378C91.7771 16.7639 91.4024 17.2315 91.0736 17.8406C90.9001 18.1312 90.6717 18.3423 90.3882 18.4738C90.114 18.5994 89.8049 18.6257 89.461 18.5527C89.0407 18.4636 88.738 18.2716 88.553 17.9768C88.3772 17.6759 88.3314 17.3268 88.4157 16.9294C88.466 16.6925 88.5454 16.4498 88.654 16.2013C88.7719 15.9468 88.925 15.6957 89.1133 15.4481C89.591 14.8147 90.1815 14.3091 90.8846 13.9311C91.5953 13.5548 92.3726 13.3163 93.2165 13.2158C94.0681 13.1169 94.9524 13.1647 95.8695 13.3593C97.0923 13.6186 98.1496 14.0745 99.0415 14.7269C99.935 15.3716 100.581 16.1675 100.979 17.1144C101.386 18.0554 101.467 19.1067 101.22 20.2683C100.987 21.3688 100.498 22.2595 99.7551 22.9404C99.021 23.6153 98.079 24.1782 96.9291 24.6291C96.2242 24.9028 95.6627 25.1591 95.2447 25.3979C94.8359 25.6306 94.5203 25.8951 94.2977 26.1913C94.0828 26.4891 93.9144 26.8687 93.7926 27.33C93.7813 27.3835 93.7691 27.4408 93.7562 27.502C93.7432 27.5631 93.7302 27.6243 93.7173 27.6854C93.604 28.0687 93.406 28.3621 93.1232 28.5657C92.8421 28.7616 92.4837 28.8134 92.0481 28.721ZM90.7166 35.1111C90.3651 35.0365 90.0657 34.8852 89.8186 34.6571C89.5715 34.429 89.3939 34.1557 89.2857 33.8373C89.176 33.5265 89.1575 33.1991 89.2305 32.8552C89.3018 32.5189 89.4515 32.2273 89.6797 31.9802C89.9078 31.733 90.1802 31.5592 90.497 31.4587C90.8155 31.3506 91.1505 31.3338 91.502 31.4083C91.8459 31.4813 92.1414 31.6318 92.3886 31.8599C92.6449 32.082 92.8272 32.3523 92.9353 32.6707C93.0511 32.9908 93.0734 33.3189 93.0021 33.6552C92.9291 33.9991 92.7756 34.29 92.5414 34.5278C92.3133 34.7749 92.0362 34.9518 91.7101 35.0583C91.3917 35.1665 91.0605 35.1841 90.7166 35.1111Z" fill="#007DF0"/>
<mask id="mask0_293_4697" style="mask-type:alpha" maskUnits="userSpaceOnUse" x="42" y="40" width="33" height="49">
<path d="M56.4964 55.4707L59.8861 47.1851L61.5326 55.9836L69.1437 51.2819L65.299 59.3563L74.2317 60.0279L66.3614 64.3029L73.2004 70.0907L64.3178 68.9289L72.9913 88.9667L59.9475 71.4777L56.5523 79.7537L54.9209 70.9592L47.3002 75.6665L51.149 67.577L42.2219 66.9149L50.077 62.6359L43.2532 56.8522L52.1206 58.0099L45.0891 40.8162L56.4964 55.4707Z" fill="white"/>
</mask>
<g mask="url(#mask0_293_4697)">
<path d="M41.5 71L45 41L72.5 52.5L59.5 64.5L41.5 71Z" fill="#D9D9D9"/>
</g>
<circle cx="59" cy="63" r="3" fill="#3D3D3D"/>
</svg>
