<svg width="120" height="120" viewBox="0 0 120 120" fill="none" xmlns="http://www.w3.org/2000/svg">
<path fill-rule="evenodd" clip-rule="evenodd" d="M57 21C55.8954 21 55 21.8954 55 23V25C55 26.1046 55.8954 27 57 27V29.1232C38.5214 30.6477 24 46.128 24 65C24 84.8823 40.1177 101 60 101C79.8823 101 96 84.8823 96 65C96 46.128 81.4786 30.6477 63 29.1232V27C64.1046 27 65 26.1046 65 25V23C65 21.8954 64.1046 21 63 21H57Z" fill="#3D3D3D"/>
<circle opacity="0.5" cx="60" cy="65" r="32.5" stroke="#6F6F6F"/>
<circle opacity="0.5" cx="60" cy="65" r="29" stroke="#A5A5A5" stroke-width="1.2" stroke-linecap="round" stroke-dasharray="0.25 12"/>
<path d="M56.4966 55.4707L59.8862 47.1851L61.5327 55.9836L69.1438 51.2819L65.2991 59.3563L74.2318 60.0279L66.3615 64.3029L73.2005 70.0907L64.3179 68.9289L72.9914 88.9667L59.9476 71.4777L56.5524 79.7537L54.921 70.9592L47.3003 75.6665L51.1491 67.577L42.222 66.9149L50.0772 62.6359L43.2533 56.8522L52.1208 58.0099L45.0892 40.8162L56.4966 55.4707Z" fill="white"/>
<path opacity="0.15" fill-rule="evenodd" clip-rule="evenodd" d="M61.8535 63.3494L63.0363 55.9851L63.487 37.4196L58.0417 55.1795L57.0648 61.2615L51.4147 58.798L33.5474 53.7342L49.3897 63.4342L56.2364 66.4194L55.5714 70.5593L54.5925 92.3549L60.5678 71.354L61.025 68.5073L63.6684 69.6598L84.5321 76.0402L65.6833 65.0192L61.8535 63.3494Z" fill="white"/>
<path opacity="0.3" fill-rule="evenodd" clip-rule="evenodd" d="M61.3504 63.5938L59.495 55.1398L53.109 37.7013L54.5528 56.2211L54.7839 57.2742L54.0074 56.5269L39.0151 45.5671L50.4968 60.1698L56.7375 66.1759L57.8919 71.4359L64.9705 92.0732L62.9889 71.9395L79.0643 84.2074L65.2229 67.3207L61.3504 63.5938Z" fill="white"/>
<path opacity="0.1" fill-rule="evenodd" clip-rule="evenodd" d="M37.2962 54.9814C39.3681 50.3772 42.7587 46.4908 47.0394 43.8137C51.32 41.1365 56.2984 39.7889 61.345 39.9411C61.621 39.9495 61.838 40.18 61.8297 40.456C61.8214 40.732 61.5909 40.949 61.3148 40.9407C56.466 40.7944 51.6826 42.0893 47.5696 44.6615C43.4567 47.2338 40.1988 50.9679 38.2081 55.3917C38.0948 55.6435 37.7988 55.7558 37.5469 55.6425C37.2951 55.5292 37.1828 55.2332 37.2962 54.9814ZM43.1643 55.6961C44.6738 52.3416 47.1441 49.5101 50.2628 47.5597C53.3816 45.6092 57.0087 44.6273 60.6854 44.7383C60.9614 44.7466 61.1784 44.9771 61.1701 45.2531C61.1618 45.5291 60.9313 45.7461 60.6553 45.7378C57.1762 45.6328 53.7441 46.5619 50.7931 48.4075C47.842 50.2531 45.5045 52.9323 44.0762 56.1064C43.9629 56.3582 43.6669 56.4705 43.415 56.3572C43.1632 56.2439 43.0509 55.9479 43.1643 55.6961ZM71.3265 84.8008C68.1603 86.6733 64.51 87.5649 60.8371 87.3628C60.5614 87.3476 60.3502 87.1118 60.3653 86.8361C60.3805 86.5604 60.6163 86.3492 60.8921 86.3643C64.3675 86.5555 67.8215 85.7119 70.8174 83.94C73.8133 82.1682 76.2166 79.5477 77.7232 76.4101C77.8427 76.1611 78.1414 76.0562 78.3903 76.1758C78.6393 76.2953 78.7442 76.594 78.6246 76.8429C77.0324 80.1589 74.4926 82.9282 71.3265 84.8008Z" fill="#C1C1C1"/>
<path d="M92.0482 28.721C91.5897 28.6237 91.2627 28.4146 91.0672 28.0936C90.881 27.7666 90.8341 27.3853 90.9265 26.9497C90.9492 26.8427 90.9711 26.7395 90.9921 26.6401C91.0132 26.5408 91.0351 26.4376 91.0578 26.3306C91.194 25.6887 91.4425 25.1384 91.8033 24.6799C92.1641 24.2213 92.6153 23.8259 93.157 23.4935C93.7003 23.1535 94.3037 22.8503 94.9672 22.5837C95.5631 22.3347 96.0831 22.0857 96.5273 21.8365C96.9715 21.5873 97.3343 21.2889 97.6157 20.9412C97.897 20.5936 98.0928 20.16 98.2031 19.6403C98.3311 19.0365 98.2787 18.4743 98.0457 17.9537C97.8204 17.4347 97.4615 16.9992 96.9691 16.6472C96.4784 16.2876 95.8891 16.0348 95.2013 15.8889C94.6434 15.7706 94.1081 15.7529 93.5953 15.8358C93.0919 15.9127 92.626 16.1133 92.1978 16.4378C91.7773 16.7639 91.4025 17.2315 91.0737 17.8406C90.9002 18.1312 90.6718 18.3423 90.3883 18.4738C90.1141 18.5994 89.8051 18.6257 89.4611 18.5527C89.0408 18.4636 88.7381 18.2716 88.5531 17.9768C88.3773 17.6759 88.3316 17.3268 88.4158 16.9294C88.4661 16.6925 88.5455 16.4498 88.6541 16.2013C88.772 15.9468 88.9251 15.6957 89.1134 15.4481C89.5911 14.8147 90.1816 14.3091 90.8847 13.9311C91.5954 13.5548 92.3728 13.3163 93.2167 13.2158C94.0682 13.1169 94.9525 13.1647 95.8696 13.3593C97.0924 13.6186 98.1498 14.0745 99.0416 14.7269C99.9351 15.3716 100.581 16.1675 100.979 17.1144C101.386 18.0554 101.467 19.1067 101.22 20.2683C100.987 21.3688 100.499 22.2595 99.7552 22.9404C99.0211 23.6153 98.0791 24.1782 96.9293 24.6291C96.2243 24.9028 95.6628 25.1591 95.2448 25.3979C94.8361 25.6306 94.5204 25.8951 94.2978 26.1913C94.0829 26.4891 93.9146 26.8687 93.7928 27.33C93.7814 27.3835 93.7693 27.4408 93.7563 27.502C93.7433 27.5631 93.7303 27.6243 93.7174 27.6854C93.6041 28.0687 93.4061 28.3621 93.1234 28.5657C92.8422 28.7616 92.4838 28.8134 92.0482 28.721ZM90.7167 35.1111C90.3652 35.0365 90.0659 34.8852 89.8188 34.6571C89.5716 34.429 89.394 34.1557 89.2859 33.8373C89.1761 33.5265 89.1577 33.1991 89.2306 32.8552C89.3019 32.5189 89.4517 32.2273 89.6798 31.9802C89.9079 31.733 90.1804 31.5592 90.4972 31.4587C90.8156 31.3506 91.1506 31.3338 91.5021 31.4083C91.8461 31.4813 92.1416 31.6318 92.3887 31.8599C92.645 32.082 92.8273 32.3523 92.9355 32.6707C93.0513 32.9908 93.0735 33.3189 93.0022 33.6552C92.9292 33.9991 92.7757 34.29 92.5416 34.5278C92.3134 34.7749 92.0363 34.9518 91.7103 35.0583C91.3918 35.1665 91.0607 35.1841 90.7167 35.1111Z" fill="#007DF0"/>
<mask id="mask0_691_6888" style="mask-type:alpha" maskUnits="userSpaceOnUse" x="42" y="40" width="33" height="49">
<path d="M56.4966 55.4707L59.8862 47.1851L61.5327 55.9836L69.1438 51.2819L65.2991 59.3563L74.2318 60.028L66.3615 64.3029L73.2005 70.0907L64.3179 68.9289L72.9914 88.9667L59.9476 71.4777L56.5524 79.7537L54.921 70.9592L47.3003 75.6665L51.1491 67.577L42.222 66.9149L50.0772 62.6359L43.2533 56.8522L52.1208 58.0099L45.0892 40.8162L56.4966 55.4707Z" fill="white"/>
</mask>
<g mask="url(#mask0_691_6888)">
<path d="M41.5 71L45 41L72.5 52.5L59.5 64.5L41.5 71Z" fill="#D9D9D9"/>
</g>
<circle cx="59" cy="63" r="3" fill="#3D3D3D"/>
</svg>
