<svg width="22" height="24" viewBox="0 0 22 24" fill="none" xmlns="http://www.w3.org/2000/svg">
<path d="M0.318966 18.0539C0.318966 17.6767 0.428341 17.3109 0.647091 16.9564C0.865841 16.6018 1.13739 16.2548 1.46175 15.9154C1.79364 15.576 2.12177 15.2365 2.44612 14.8971C2.69504 14.6406 2.88739 14.305 3.02317 13.8901C3.16649 13.4752 3.27209 13.0339 3.33998 12.5663C3.40787 12.0986 3.4569 11.646 3.48707 11.2085C3.5097 9.72252 3.66433 8.41756 3.95097 7.29364C4.23761 6.16218 4.68642 5.21929 5.29741 4.46498C5.91595 3.71067 6.72683 3.15248 7.73006 2.79041C7.91864 2.05118 8.29957 1.42511 8.87285 0.912176C9.45366 0.399245 10.1589 0.142779 10.9887 0.142779C11.826 0.142779 12.5313 0.399245 13.1045 0.912176C13.6853 1.42511 14.07 2.05118 14.2586 2.79041C15.2619 3.15248 16.069 3.71067 16.68 4.46498C17.2909 5.21929 17.7398 6.16218 18.0264 7.29364C18.3206 8.41756 18.479 9.72252 18.5016 11.2085C18.5318 11.646 18.5808 12.0986 18.6487 12.5663C18.7166 13.0339 18.8184 13.4752 18.9542 13.8901C19.0975 14.305 19.2936 14.6406 19.5426 14.8971C19.8669 15.2365 20.1913 15.576 20.5156 15.9154C20.8475 16.2548 21.1228 16.6018 21.3416 16.9564C21.5603 17.3109 21.6697 17.6767 21.6697 18.0539C21.6697 18.4687 21.5189 18.8006 21.2171 19.0496C20.9154 19.2985 20.4968 19.423 19.9612 19.423H15.1864C15.1563 20.1546 14.9564 20.8297 14.5867 21.4483C14.2247 22.0744 13.7344 22.576 13.1158 22.9531C12.4973 23.3303 11.7883 23.5189 10.9887 23.5189C10.1967 23.5189 9.49138 23.3265 8.87285 22.9418C8.25431 22.5647 7.76024 22.0668 7.39063 21.4483C7.02856 20.8297 6.83244 20.1546 6.80226 19.423H2.02748C1.49192 19.423 1.07328 19.2985 0.771552 19.0496C0.469828 18.8006 0.318966 18.4687 0.318966 18.0539ZM2.51401 17.7144H19.4634V17.5787C19.3955 17.4731 19.2823 17.3335 19.1239 17.16C18.9731 16.979 18.7958 16.7829 18.5921 16.5717C18.396 16.3605 18.1961 16.1455 17.9925 15.9267C17.7888 15.7004 17.6115 15.4402 17.4607 15.146C17.3098 14.8443 17.1816 14.5048 17.076 14.1277C16.9779 13.7505 16.8949 13.3319 16.827 12.8718C16.7667 12.4116 16.7252 11.9062 16.7026 11.3556C16.6724 9.71121 16.4989 8.40625 16.1821 7.44073C15.8728 6.47521 15.458 5.75862 14.9375 5.29095C14.4246 4.81573 13.8438 4.48761 13.195 4.30657C13.0593 4.2764 12.9499 4.2236 12.8669 4.14817C12.7915 4.06519 12.7538 3.95205 12.7538 3.80873C12.7311 3.22037 12.5614 2.74138 12.2446 2.37177C11.9353 1.99461 11.5167 1.80603 10.9887 1.80603C10.4682 1.80603 10.0496 1.99461 9.73276 2.37177C9.42349 2.74138 9.25754 3.22037 9.23491 3.80873C9.22737 3.95205 9.18588 4.06519 9.11045 4.14817C9.03502 4.2236 8.92565 4.2764 8.78233 4.30657C8.13362 4.48761 7.54903 4.81573 7.02856 5.29095C6.51563 5.75862 6.10453 6.47521 5.79526 7.44073C5.48599 8.40625 5.31627 9.71121 5.2861 11.3556C5.25593 11.9062 5.21067 12.4116 5.15032 12.8718C5.08998 13.3319 5.007 13.7505 4.9014 14.1277C4.7958 14.5048 4.66756 14.8443 4.5167 15.146C4.36584 15.4402 4.18858 15.7004 3.98491 15.9267C3.78879 16.1455 3.5889 16.3605 3.38524 16.5717C3.18912 16.7829 3.01185 16.979 2.85345 17.16C2.69504 17.3335 2.5819 17.4731 2.51401 17.5787V17.7144ZM8.56735 19.423C8.60507 20.1923 8.84644 20.7996 9.29149 21.2446C9.74407 21.6972 10.3098 21.9235 10.9887 21.9235C11.6751 21.9235 12.2408 21.6972 12.6859 21.2446C13.1309 20.7996 13.3761 20.1923 13.4213 19.423H8.56735Z" fill="#0F0F0F"/>
</svg>
