<svg width="24" height="25" viewBox="0 0 24 25" fill="none" xmlns="http://www.w3.org/2000/svg">
<path d="M6.02586 12.4978C6.02586 12.375 6.04849 12.2619 6.09375 12.1584C6.13901 12.0485 6.2069 11.9483 6.29741 11.8578L13.9881 4.3319C14.1627 4.16379 14.3728 4.07974 14.6185 4.07974C14.7866 4.07974 14.9353 4.11854 15.0647 4.19612C15.2004 4.27371 15.3071 4.38039 15.3847 4.51616C15.4687 4.64547 15.5108 4.79418 15.5108 4.96229C15.5108 5.20151 15.4235 5.41164 15.2489 5.59267L8.18858 12.4978L15.2489 19.403C15.4235 19.5841 15.5108 19.7942 15.5108 20.0334C15.5108 20.2015 15.4687 20.3502 15.3847 20.4795C15.3071 20.6153 15.2004 20.722 15.0647 20.7996C14.9353 20.8772 14.7866 20.9159 14.6185 20.9159C14.3728 20.9159 14.1627 20.8287 13.9881 20.6541L6.29741 13.1379C6.2069 13.0474 6.13901 12.9504 6.09375 12.847C6.04849 12.7371 6.02586 12.6207 6.02586 12.4978Z" fill="black"/>
</svg>
