<svg width="32" height="32" viewBox="0 0 32 32" fill="none" xmlns="http://www.w3.org/2000/svg">
<path d="M17.1953 24.9219C16.8307 24.9219 16.5677 24.7917 16.4063 24.5313C16.2448 24.2708 16.1068 23.9453 15.9922 23.5547L14.75 19.4297C14.6771 19.1693 14.651 18.9609 14.6719 18.8047C14.6927 18.6432 14.7786 18.4818 14.9297 18.3203L22.9063 9.71875C22.9531 9.67187 22.9766 9.61979 22.9766 9.5625C22.9766 9.50521 22.9557 9.45833 22.9141 9.42187C22.8724 9.38542 22.8229 9.36719 22.7656 9.36719C22.7135 9.36198 22.6641 9.38281 22.6172 9.42969L14.0469 17.4375C13.875 17.5937 13.7083 17.6823 13.5469 17.7031C13.3854 17.7187 13.1797 17.6875 12.9297 17.6094L8.71094 16.3281C8.33594 16.2135 8.02604 16.0781 7.78125 15.9219C7.53646 15.7604 7.41406 15.5 7.41406 15.1406C7.41406 14.8594 7.52604 14.6172 7.75 14.4141C7.97396 14.2109 8.25 14.0469 8.57812 13.9219L22.0156 8.77344C22.1979 8.70573 22.3672 8.65364 22.5234 8.61719C22.6849 8.57552 22.8307 8.55469 22.9609 8.55469C23.2161 8.55469 23.4167 8.6276 23.5625 8.77344C23.7083 8.91927 23.7813 9.11979 23.7813 9.375C23.7813 9.51042 23.7604 9.65625 23.7188 9.8125C23.6823 9.96875 23.6302 10.138 23.5625 10.3203L18.4453 23.6875C18.2995 24.0625 18.125 24.362 17.9219 24.5859C17.7188 24.8099 17.4766 24.9219 17.1953 24.9219Z" fill="#0F0F0F"/>
</svg>
