<svg width="24" height="24" viewBox="0 0 24 24" fill="none" xmlns="http://www.w3.org/2000/svg">
<path d="M12.0022 6.02586C12.125 6.02586 12.2381 6.04849 12.3416 6.09375C12.4515 6.13901 12.5517 6.2069 12.6422 6.29741L20.1681 13.9881C20.3362 14.1627 20.4203 14.3728 20.4203 14.6185C20.4203 14.7866 20.3815 14.9353 20.3039 15.0647C20.2263 15.2004 20.1196 15.3071 19.9838 15.3847C19.8545 15.4687 19.7058 15.5108 19.5377 15.5108C19.2985 15.5108 19.0884 15.4235 18.9073 15.2489L12.0022 8.18858L5.09698 15.2489C4.91595 15.4235 4.70582 15.5108 4.4666 15.5108C4.29849 15.5108 4.14979 15.4688 4.02047 15.3847C3.8847 15.3071 3.77802 15.2004 3.70043 15.0647C3.62285 14.9353 3.58405 14.7866 3.58405 14.6185C3.58405 14.3728 3.67134 14.1627 3.84591 13.9881L11.3621 6.29741C11.4526 6.2069 11.5496 6.13901 11.653 6.09375C11.7629 6.04849 11.8793 6.02586 12.0022 6.02586Z" fill="black"/>
</svg>
